%TF.GenerationSoftware,KiCad,Pcbnew,8.0.9*%
%TF.CreationDate,2025-02-25T23:01:13+01:00*%
%TF.ProjectId,Heizkreiscontroller,4865697a-6b72-4656-9973-636f6e74726f,rev?*%
%TF.SameCoordinates,Original*%
%TF.FileFunction,Legend,Bot*%
%TF.FilePolarity,Positive*%
%FSLAX46Y46*%
G04 Gerber Fmt 4.6, Leading zero omitted, Abs format (unit mm)*
G04 Created by KiCad (PCBNEW 8.0.9) date 2025-02-25 23:01:13*
%MOMM*%
%LPD*%
G01*
G04 APERTURE LIST*
%ADD10C,0.150000*%
%ADD11C,0.120000*%
%ADD12C,0.350000*%
%ADD13O,2.200000X1.200000*%
G04 APERTURE END LIST*
D10*
X78879147Y-50985466D02*
X78811804Y-51052809D01*
X78811804Y-51052809D02*
X78778132Y-51153824D01*
X78778132Y-51153824D02*
X78778132Y-51221168D01*
X78778132Y-51221168D02*
X78811804Y-51322183D01*
X78811804Y-51322183D02*
X78912819Y-51490542D01*
X78912819Y-51490542D02*
X79081178Y-51658901D01*
X79081178Y-51658901D02*
X79249536Y-51759916D01*
X79249536Y-51759916D02*
X79350552Y-51793588D01*
X79350552Y-51793588D02*
X79417895Y-51793588D01*
X79417895Y-51793588D02*
X79518910Y-51759916D01*
X79518910Y-51759916D02*
X79586254Y-51692572D01*
X79586254Y-51692572D02*
X79619926Y-51591557D01*
X79619926Y-51591557D02*
X79619926Y-51524214D01*
X79619926Y-51524214D02*
X79586254Y-51423198D01*
X79586254Y-51423198D02*
X79485239Y-51254840D01*
X79485239Y-51254840D02*
X79316880Y-51086481D01*
X79316880Y-51086481D02*
X79148521Y-50985466D01*
X79148521Y-50985466D02*
X79047506Y-50951794D01*
X79047506Y-50951794D02*
X78980162Y-50951794D01*
X78980162Y-50951794D02*
X78879147Y-50985466D01*
X78643445Y-52635381D02*
X78542430Y-52062962D01*
X79047506Y-52231320D02*
X78340399Y-51524214D01*
X78340399Y-51524214D02*
X78071025Y-51793588D01*
X78071025Y-51793588D02*
X78037353Y-51894603D01*
X78037353Y-51894603D02*
X78037353Y-51961946D01*
X78037353Y-51961946D02*
X78071025Y-52062962D01*
X78071025Y-52062962D02*
X78172040Y-52163977D01*
X78172040Y-52163977D02*
X78273056Y-52197649D01*
X78273056Y-52197649D02*
X78340399Y-52197649D01*
X78340399Y-52197649D02*
X78441414Y-52163977D01*
X78441414Y-52163977D02*
X78710788Y-51894603D01*
D11*
%TO.C,C15*%
X227063752Y-81190000D02*
X225641248Y-81190000D01*
X227063752Y-83910000D02*
X225641248Y-83910000D01*
%TO.C,C2*%
X253656000Y-51765148D02*
X253656000Y-53187652D01*
X256376000Y-51765148D02*
X256376000Y-53187652D01*
%TO.C,C6*%
X280580000Y-39001248D02*
X280580000Y-40423752D01*
X283300000Y-39001248D02*
X283300000Y-40423752D01*
%TO.C,C1*%
X310248752Y-46265000D02*
X308826248Y-46265000D01*
X310248752Y-48985000D02*
X308826248Y-48985000D01*
%TO.C,C25*%
X238493752Y-62140000D02*
X237071248Y-62140000D01*
X238493752Y-64860000D02*
X237071248Y-64860000D01*
%TO.C,C19*%
X249923752Y-62140000D02*
X248501248Y-62140000D01*
X249923752Y-64860000D02*
X248501248Y-64860000D01*
%TO.C,R22*%
X74276235Y-50235836D02*
X77355068Y-47157003D01*
X76694540Y-52654141D02*
X79773373Y-49575308D01*
%TO.C,C24*%
X261353752Y-62140000D02*
X259931248Y-62140000D01*
X261353752Y-64860000D02*
X259931248Y-64860000D01*
%TO.C,C26*%
X238493752Y-81190000D02*
X237071248Y-81190000D01*
X238493752Y-83910000D02*
X237071248Y-83910000D01*
%TO.C,R2*%
X295175000Y-55107064D02*
X295175000Y-54652936D01*
X296645000Y-55107064D02*
X296645000Y-54652936D01*
%TO.C,C20*%
X227063752Y-62140000D02*
X225641248Y-62140000D01*
X227063752Y-64860000D02*
X225641248Y-64860000D01*
%TO.C,C22*%
X272783752Y-81190000D02*
X271361248Y-81190000D01*
X272783752Y-83910000D02*
X271361248Y-83910000D01*
%TO.C,C21*%
X249923752Y-81190000D02*
X248501248Y-81190000D01*
X249923752Y-83910000D02*
X248501248Y-83910000D01*
%TO.C,C17*%
X284213752Y-81190000D02*
X282791248Y-81190000D01*
X284213752Y-83910000D02*
X282791248Y-83910000D01*
%TO.C,C23*%
X306781252Y-81190000D02*
X305358748Y-81190000D01*
X306781252Y-83910000D02*
X305358748Y-83910000D01*
%TO.C,R1*%
X309922936Y-43715000D02*
X310377064Y-43715000D01*
X309922936Y-45185000D02*
X310377064Y-45185000D01*
%TO.C,R3*%
X297715000Y-45042064D02*
X297715000Y-44587936D01*
X299185000Y-45042064D02*
X299185000Y-44587936D01*
%TO.C,C14*%
X318503752Y-81190000D02*
X317081248Y-81190000D01*
X318503752Y-83910000D02*
X317081248Y-83910000D01*
%TO.C,C5*%
X184416248Y-38010000D02*
X185838752Y-38010000D01*
X184416248Y-40730000D02*
X185838752Y-40730000D01*
%TO.C,C13*%
X329983752Y-81190000D02*
X328561248Y-81190000D01*
X329983752Y-83910000D02*
X328561248Y-83910000D01*
%TO.C,C7*%
X218998748Y-44360000D02*
X220421252Y-44360000D01*
X218998748Y-47080000D02*
X220421252Y-47080000D01*
%TO.C,R15*%
X297080000Y-54652936D02*
X297080000Y-55107064D01*
X298550000Y-54652936D02*
X298550000Y-55107064D01*
%TO.C,C16*%
X261353752Y-81190000D02*
X259931248Y-81190000D01*
X261353752Y-83910000D02*
X259931248Y-83910000D01*
%TO.C,R4*%
X295810000Y-45042064D02*
X295810000Y-44587936D01*
X297280000Y-45042064D02*
X297280000Y-44587936D01*
%TO.C,C18*%
X295643752Y-81190000D02*
X294221248Y-81190000D01*
X295643752Y-83910000D02*
X294221248Y-83910000D01*
%TD*%
D12*
X236220000Y-67310000D03*
X236220000Y-72390000D03*
X238760000Y-67310000D03*
X238760000Y-72390000D03*
X241300000Y-67310000D03*
X241300000Y-72390000D03*
X281940000Y-86360000D03*
X281940000Y-91440000D03*
X284480000Y-86360000D03*
X284480000Y-91440000D03*
X287020000Y-86360000D03*
X287020000Y-91440000D03*
X285750000Y-50547651D03*
X285750000Y-47047651D03*
X132560000Y-88540000D03*
X132560000Y-94040000D03*
X137560000Y-88540000D03*
X137560000Y-94040000D03*
X142560000Y-88540000D03*
X142560000Y-94040000D03*
X147560000Y-88540000D03*
X147560000Y-94040000D03*
X153060000Y-88540000D03*
X153060000Y-94040000D03*
X158060000Y-88540000D03*
X158060000Y-94040000D03*
X163060000Y-88540000D03*
X163060000Y-94040000D03*
X168060000Y-88540000D03*
X168060000Y-94040000D03*
X187960000Y-73660000D03*
X187960000Y-71120000D03*
X187960000Y-63500000D03*
X182880000Y-63500000D03*
X182880000Y-71120000D03*
X182880000Y-73660000D03*
X304800000Y-86360000D03*
X304800000Y-91440000D03*
X307340000Y-86360000D03*
X307340000Y-91440000D03*
X309880000Y-86360000D03*
X309880000Y-91440000D03*
X208280000Y-73660000D03*
X208280000Y-71120000D03*
X208280000Y-63500000D03*
X203200000Y-63500000D03*
X203200000Y-71120000D03*
X203200000Y-73660000D03*
X137027500Y-73415000D03*
X137027500Y-70875000D03*
X137027500Y-63255000D03*
X131947500Y-63255000D03*
X131947500Y-70875000D03*
X131947500Y-73415000D03*
X194106800Y-88556200D03*
X194106800Y-94056200D03*
X199106800Y-88556200D03*
X199106800Y-94056200D03*
X204106800Y-88556200D03*
X204106800Y-94056200D03*
X209106800Y-88556200D03*
X209106800Y-94056200D03*
X236220000Y-86360000D03*
X236220000Y-91440000D03*
X238760000Y-86360000D03*
X238760000Y-91440000D03*
X241300000Y-86360000D03*
X241300000Y-91440000D03*
X259080000Y-67310000D03*
X259080000Y-72390000D03*
X261620000Y-67310000D03*
X261620000Y-72390000D03*
X264160000Y-67310000D03*
X264160000Y-72390000D03*
X162250000Y-81750000D03*
X247650000Y-67310000D03*
X247650000Y-72390000D03*
X250190000Y-67310000D03*
X250190000Y-72390000D03*
X252730000Y-67310000D03*
X252730000Y-72390000D03*
X69884000Y-96075000D03*
X74964000Y-96075000D03*
X66859000Y-37667100D03*
X71939000Y-37667100D03*
X220670000Y-80645000D03*
X217170000Y-80645000D03*
X91560000Y-88540000D03*
X91560000Y-94040000D03*
X96560000Y-88540000D03*
X96560000Y-94040000D03*
X101560000Y-88540000D03*
X101560000Y-94040000D03*
X106560000Y-88540000D03*
X106560000Y-94040000D03*
X99695000Y-50490000D03*
X99695000Y-46990000D03*
X330500000Y-70000000D03*
X224790000Y-86360000D03*
X224790000Y-91440000D03*
X227330000Y-86360000D03*
X227330000Y-91440000D03*
X229870000Y-86360000D03*
X229870000Y-91440000D03*
X112060000Y-88540000D03*
X112060000Y-94040000D03*
X117060000Y-88540000D03*
X117060000Y-94040000D03*
X122060000Y-88540000D03*
X122060000Y-94040000D03*
X127060000Y-88540000D03*
X127060000Y-94040000D03*
X309880000Y-66040000D03*
X307340000Y-66040000D03*
X304800000Y-66040000D03*
X302260000Y-66040000D03*
X247650000Y-86360000D03*
X247650000Y-91440000D03*
X250190000Y-86360000D03*
X250190000Y-91440000D03*
X252730000Y-86360000D03*
X252730000Y-91440000D03*
X106547500Y-73537500D03*
X106547500Y-70997500D03*
X106547500Y-63377500D03*
X101467500Y-63377500D03*
X101467500Y-70997500D03*
X101467500Y-73537500D03*
X167640000Y-73537500D03*
X167640000Y-70997500D03*
X167640000Y-63377500D03*
X162560000Y-63377500D03*
X162560000Y-70997500D03*
X162560000Y-73537500D03*
X327660000Y-86360000D03*
X327660000Y-91440000D03*
X330200000Y-86360000D03*
X330200000Y-91440000D03*
X332740000Y-86360000D03*
X332740000Y-91440000D03*
X293370000Y-86360000D03*
X293370000Y-91440000D03*
X295910000Y-86360000D03*
X295910000Y-91440000D03*
X298450000Y-86360000D03*
X298450000Y-91440000D03*
X177800000Y-73660000D03*
X177800000Y-71120000D03*
X177800000Y-63500000D03*
X172720000Y-63500000D03*
X172720000Y-71120000D03*
X172720000Y-73660000D03*
X47000000Y-71000000D03*
X198120000Y-73660000D03*
X198120000Y-71120000D03*
X198120000Y-63500000D03*
X193040000Y-63500000D03*
X193040000Y-71120000D03*
X193040000Y-73660000D03*
X270510000Y-86360000D03*
X270510000Y-91440000D03*
X273050000Y-86360000D03*
X273050000Y-91440000D03*
X275590000Y-86360000D03*
X275590000Y-91440000D03*
X316230000Y-86360000D03*
X316230000Y-91440000D03*
X318770000Y-86360000D03*
X318770000Y-91440000D03*
X321310000Y-86360000D03*
X321310000Y-91440000D03*
X26500000Y-90000000D03*
X26500000Y-95500000D03*
X31500000Y-90000000D03*
X31500000Y-95500000D03*
X224790000Y-67310000D03*
X224790000Y-72390000D03*
X227330000Y-67310000D03*
X227330000Y-72390000D03*
X229870000Y-67310000D03*
X229870000Y-72390000D03*
X291541200Y-38252400D03*
X294081200Y-38252400D03*
X296621200Y-38252400D03*
X299161200Y-38252400D03*
X214630000Y-60635000D03*
X214630000Y-64135000D03*
X157480000Y-73537500D03*
X157480000Y-70997500D03*
X157480000Y-63377500D03*
X152400000Y-63377500D03*
X152400000Y-70997500D03*
X152400000Y-73537500D03*
X116707500Y-73415000D03*
X116707500Y-70875000D03*
X116707500Y-63255000D03*
X111627500Y-63255000D03*
X111627500Y-70875000D03*
X111627500Y-73415000D03*
X259080000Y-86360000D03*
X259080000Y-91440000D03*
X261620000Y-86360000D03*
X261620000Y-91440000D03*
X264160000Y-86360000D03*
X264160000Y-91440000D03*
X127000000Y-73537500D03*
X127000000Y-70997500D03*
X127000000Y-63377500D03*
X121920000Y-63377500D03*
X121920000Y-70997500D03*
X121920000Y-73537500D03*
X173560000Y-88540000D03*
X173560000Y-94040000D03*
X178560000Y-88540000D03*
X178560000Y-94040000D03*
X183560000Y-88540000D03*
X183560000Y-94040000D03*
X188560000Y-88540000D03*
X188560000Y-94040000D03*
X29000000Y-74750000D03*
X29000000Y-63500000D03*
X29000000Y-86000000D03*
X96520000Y-73537500D03*
X96520000Y-70997500D03*
X96520000Y-63377500D03*
X91440000Y-63377500D03*
X91440000Y-70997500D03*
X91440000Y-73537500D03*
D13*
X32000000Y-48750000D03*
X32000000Y-52750000D03*
X32000000Y-56750000D03*
X27000000Y-48750000D03*
X27000000Y-52750000D03*
X27000000Y-56750000D03*
D12*
X147187500Y-73415000D03*
X147187500Y-70875000D03*
X147187500Y-63255000D03*
X142107500Y-63255000D03*
X142107500Y-70875000D03*
X142107500Y-73415000D03*
M02*
