%TF.GenerationSoftware,KiCad,Pcbnew,8.0.9*%
%TF.CreationDate,2025-02-25T23:01:13+01:00*%
%TF.ProjectId,Heizkreiscontroller,4865697a-6b72-4656-9973-636f6e74726f,rev?*%
%TF.SameCoordinates,Original*%
%TF.FileFunction,Paste,Bot*%
%TF.FilePolarity,Positive*%
%FSLAX46Y46*%
G04 Gerber Fmt 4.6, Leading zero omitted, Abs format (unit mm)*
G04 Created by KiCad (PCBNEW 8.0.9) date 2025-02-25 23:01:13*
%MOMM*%
%LPD*%
G01*
G04 APERTURE LIST*
G04 Aperture macros list*
%AMRoundRect*
0 Rectangle with rounded corners*
0 $1 Rounding radius*
0 $2 $3 $4 $5 $6 $7 $8 $9 X,Y pos of 4 corners*
0 Add a 4 corners polygon primitive as box body*
4,1,4,$2,$3,$4,$5,$6,$7,$8,$9,$2,$3,0*
0 Add four circle primitives for the rounded corners*
1,1,$1+$1,$2,$3*
1,1,$1+$1,$4,$5*
1,1,$1+$1,$6,$7*
1,1,$1+$1,$8,$9*
0 Add four rect primitives between the rounded corners*
20,1,$1+$1,$2,$3,$4,$5,0*
20,1,$1+$1,$4,$5,$6,$7,0*
20,1,$1+$1,$6,$7,$8,$9,0*
20,1,$1+$1,$8,$9,$2,$3,0*%
G04 Aperture macros list end*
%ADD10RoundRect,0.250000X-0.412500X-1.100000X0.412500X-1.100000X0.412500X1.100000X-0.412500X1.100000X0*%
%ADD11RoundRect,0.250000X1.100000X-0.412500X1.100000X0.412500X-1.100000X0.412500X-1.100000X-0.412500X0*%
%ADD12RoundRect,0.250000X-0.751301X1.263953X-1.263953X0.751301X0.751301X-1.263953X1.263953X-0.751301X0*%
%ADD13RoundRect,0.250000X-0.450000X0.350000X-0.450000X-0.350000X0.450000X-0.350000X0.450000X0.350000X0*%
%ADD14RoundRect,0.250000X0.350000X0.450000X-0.350000X0.450000X-0.350000X-0.450000X0.350000X-0.450000X0*%
%ADD15RoundRect,0.250000X0.412500X1.100000X-0.412500X1.100000X-0.412500X-1.100000X0.412500X-1.100000X0*%
%ADD16RoundRect,0.250000X0.450000X-0.350000X0.450000X0.350000X-0.450000X0.350000X-0.450000X-0.350000X0*%
G04 APERTURE END LIST*
D10*
%TO.C,C15*%
X224790000Y-82550000D03*
X227915000Y-82550000D03*
%TD*%
D11*
%TO.C,C2*%
X255016000Y-54038900D03*
X255016000Y-50913900D03*
%TD*%
%TO.C,C6*%
X281940000Y-41275000D03*
X281940000Y-38150000D03*
%TD*%
D10*
%TO.C,C1*%
X307975000Y-47625000D03*
X311100000Y-47625000D03*
%TD*%
%TO.C,C25*%
X236220000Y-63500000D03*
X239345000Y-63500000D03*
%TD*%
%TO.C,C19*%
X247650000Y-63500000D03*
X250775000Y-63500000D03*
%TD*%
D12*
%TO.C,R22*%
X79119608Y-47810768D03*
X74930000Y-52000376D03*
%TD*%
D10*
%TO.C,C24*%
X259080000Y-63500000D03*
X262205000Y-63500000D03*
%TD*%
%TO.C,C26*%
X236220000Y-82550000D03*
X239345000Y-82550000D03*
%TD*%
D13*
%TO.C,R2*%
X295910000Y-53880000D03*
X295910000Y-55880000D03*
%TD*%
D10*
%TO.C,C20*%
X224790000Y-63500000D03*
X227915000Y-63500000D03*
%TD*%
%TO.C,C22*%
X270510000Y-82550000D03*
X273635000Y-82550000D03*
%TD*%
%TO.C,C21*%
X247650000Y-82550000D03*
X250775000Y-82550000D03*
%TD*%
%TO.C,C17*%
X281940000Y-82550000D03*
X285065000Y-82550000D03*
%TD*%
%TO.C,C23*%
X304507500Y-82550000D03*
X307632500Y-82550000D03*
%TD*%
D14*
%TO.C,R1*%
X311150000Y-44450000D03*
X309150000Y-44450000D03*
%TD*%
D13*
%TO.C,R3*%
X298450000Y-43815000D03*
X298450000Y-45815000D03*
%TD*%
D10*
%TO.C,C14*%
X316230000Y-82550000D03*
X319355000Y-82550000D03*
%TD*%
D15*
%TO.C,C5*%
X186690000Y-39370000D03*
X183565000Y-39370000D03*
%TD*%
D10*
%TO.C,C13*%
X327710000Y-82550000D03*
X330835000Y-82550000D03*
%TD*%
D15*
%TO.C,C7*%
X221272500Y-45720000D03*
X218147500Y-45720000D03*
%TD*%
D16*
%TO.C,R15*%
X297815000Y-55880000D03*
X297815000Y-53880000D03*
%TD*%
D10*
%TO.C,C16*%
X259080000Y-82550000D03*
X262205000Y-82550000D03*
%TD*%
D13*
%TO.C,R4*%
X296545000Y-43815000D03*
X296545000Y-45815000D03*
%TD*%
D10*
%TO.C,C18*%
X293370000Y-82550000D03*
X296495000Y-82550000D03*
%TD*%
M02*
