M48
METRIC,TZ
T1C0.300
T2C0.762
T3C0.800
T4C1.000
T5C1.200
T6C1.300
T7C1.500
%
G90
G05
T1
X74964Y-81280
X75565Y-41141
X76200Y-40640
X89535Y-44355
X96520Y-59182
X106680Y-59080
X116840Y-59360
X127000Y-59309
X137160Y-59360
X147320Y-59182
X157480Y-59182
X167640Y-59131
X177200Y-59385
X183565Y-39370
X187960Y-59258
X190070Y-38100
X198120Y-59131
X209769Y-59293
X210693Y-58445
X212471Y-58445
X218148Y-45720
X226060Y-46990
X226060Y-48260
X226060Y-49530
X226060Y-50800
X226060Y-52070
X226060Y-53340
X226060Y-54610
X226060Y-55880
X226060Y-57150
X246964Y-52934
X250673Y-38557
X250850Y-49276
X251562Y-38633
X252349Y-49606
X252456Y-39268
X253239Y-39930
X254183Y-39963
X255016Y-50914
X255057Y-39827
X255748Y-39040
X256438Y-38176
X258166Y-61468
X258220Y-52070
X258220Y-53340
X258220Y-54610
X260096Y-41808
X260198Y-37059
X261772Y-53567
X261772Y-55867
X268072Y-55956
X269494Y-41656
X271399Y-63144
X273507Y-55483
X276959Y-41655
X281940Y-38150
X284390Y-41655
X290195Y-59250
X291490Y-50140
X293740Y-44285
X294640Y-67505
X294740Y-58500
X296545Y-43815
X297280Y-58500
X298450Y-43815
X302260Y-38100
X303750Y-49000
X309150Y-44450
X311100Y-47625
X311150Y-44450
X311250Y-41500
X311250Y-58500
X311540Y-38100
T2
X26500Y-90000
X26500Y-95500
X31500Y-90000
X31500Y-95500
X91560Y-88540
X91560Y-94040
X96560Y-88540
X96560Y-94040
X101560Y-88540
X101560Y-94040
X106560Y-88540
X106560Y-94040
X112060Y-88540
X112060Y-94040
X117060Y-88540
X117060Y-94040
X122060Y-88540
X122060Y-94040
X127060Y-88540
X127060Y-94040
X132560Y-88540
X132560Y-94040
X137560Y-88540
X137560Y-94040
X142560Y-88540
X142560Y-94040
X147560Y-88540
X147560Y-94040
X153060Y-88540
X153060Y-94040
X158060Y-88540
X158060Y-94040
X163060Y-88540
X163060Y-94040
X168060Y-88540
X168060Y-94040
X173560Y-88540
X173560Y-94040
X178560Y-88540
X178560Y-94040
X183560Y-88540
X183560Y-94040
X188560Y-88540
X188560Y-94040
X194107Y-88556
X194107Y-94056
X199107Y-88556
X199107Y-94056
X204107Y-88556
X204107Y-94056
X209107Y-88556
X209107Y-94056
T3
X99695Y-46990
X99695Y-50490
X214630Y-60635
X214630Y-64135
X217170Y-80645
X220670Y-80645
X285750Y-47048
X285750Y-50548
T4
X91440Y-63378
X91440Y-70998
X91440Y-73538
X96520Y-63378
X96520Y-70998
X96520Y-73538
X101468Y-63378
X101468Y-70998
X101468Y-73538
X106548Y-63378
X106548Y-70998
X106548Y-73538
X111628Y-63255
X111628Y-70875
X111628Y-73415
X116708Y-63255
X116708Y-70875
X116708Y-73415
X121920Y-63378
X121920Y-70998
X121920Y-73538
X127000Y-63378
X127000Y-70998
X127000Y-73538
X131948Y-63255
X131948Y-70875
X131948Y-73415
X137028Y-63255
X137028Y-70875
X137028Y-73415
X142107Y-63255
X142107Y-70875
X142107Y-73415
X147188Y-63255
X147188Y-70875
X147188Y-73415
X152400Y-63378
X152400Y-70998
X152400Y-73538
X157480Y-63378
X157480Y-70998
X157480Y-73538
X162560Y-63378
X162560Y-70998
X162560Y-73538
X167640Y-63378
X167640Y-70998
X167640Y-73538
X172720Y-63500
X172720Y-71120
X172720Y-73660
X177800Y-63500
X177800Y-71120
X177800Y-73660
X182880Y-63500
X182880Y-71120
X182880Y-73660
X187960Y-63500
X187960Y-71120
X187960Y-73660
X193040Y-63500
X193040Y-71120
X193040Y-73660
X198120Y-63500
X198120Y-71120
X198120Y-73660
X203200Y-63500
X203200Y-71120
X203200Y-73660
X208280Y-63500
X208280Y-71120
X208280Y-73660
X291541Y-38252
X294081Y-38252
X296621Y-38252
X299161Y-38252
X302260Y-66040
X304800Y-66040
X307340Y-66040
X309880Y-66040
T5
X224790Y-67310
X224790Y-72390
X224790Y-86360
X224790Y-91440
X227330Y-67310
X227330Y-72390
X227330Y-86360
X227330Y-91440
X229870Y-67310
X229870Y-72390
X229870Y-86360
X229870Y-91440
X236220Y-67310
X236220Y-72390
X236220Y-86360
X236220Y-91440
X238760Y-67310
X238760Y-72390
X238760Y-86360
X238760Y-91440
X241300Y-67310
X241300Y-72390
X241300Y-86360
X241300Y-91440
X247650Y-67310
X247650Y-72390
X247650Y-86360
X247650Y-91440
X250190Y-67310
X250190Y-72390
X250190Y-86360
X250190Y-91440
X252730Y-67310
X252730Y-72390
X252730Y-86360
X252730Y-91440
X259080Y-67310
X259080Y-72390
X259080Y-86360
X259080Y-91440
X261620Y-67310
X261620Y-72390
X261620Y-86360
X261620Y-91440
X264160Y-67310
X264160Y-72390
X264160Y-86360
X264160Y-91440
X270510Y-86360
X270510Y-91440
X273050Y-86360
X273050Y-91440
X275590Y-86360
X275590Y-91440
X281940Y-86360
X281940Y-91440
X284480Y-86360
X284480Y-91440
X287020Y-86360
X287020Y-91440
X293370Y-86360
X293370Y-91440
X295910Y-86360
X295910Y-91440
X298450Y-86360
X298450Y-91440
X304800Y-86360
X304800Y-91440
X307340Y-86360
X307340Y-91440
X309880Y-86360
X309880Y-91440
X316230Y-86360
X316230Y-91440
X318770Y-86360
X318770Y-91440
X321310Y-86360
X321310Y-91440
X327660Y-86360
X327660Y-91440
X330200Y-86360
X330200Y-91440
X332740Y-86360
X332740Y-91440
T6
X29000Y-63500
X29000Y-86000
T7
X66859Y-37667
X69884Y-96075
X71939Y-37667
X74964Y-96075
T5
G00X27500Y-48750
M15
G01X26500Y-48750
M16
G05
G00X27500Y-52750
M15
G01X26500Y-52750
M16
G05
G00X27500Y-56750
M15
G01X26500Y-56750
M16
G05
G00X32500Y-48750
M15
G01X31500Y-48750
M16
G05
G00X32500Y-52750
M15
G01X31500Y-52750
M16
G05
G00X32500Y-56750
M15
G01X31500Y-56750
M16
G05
M30
