M48
; DRILL file {KiCad 8.0.9} date 2025-02-25T23:01:13+0100
; FORMAT={-:-/ absolute / metric / decimal}
; #@! TF.CreationDate,2025-02-25T23:01:13+01:00
; #@! TF.GenerationSoftware,Kicad,Pcbnew,8.0.9
; #@! TF.FileFunction,MixedPlating,1,2
FMAT,2
METRIC
; #@! TA.AperFunction,Plated,PTH,ViaDrill
T1C0.300
; #@! TA.AperFunction,Plated,PTH,ComponentDrill
T2C0.762
; #@! TA.AperFunction,Plated,PTH,ComponentDrill
T3C0.800
; #@! TA.AperFunction,Plated,PTH,ComponentDrill
T4C1.000
; #@! TA.AperFunction,Plated,PTH,ComponentDrill
T5C1.200
; #@! TA.AperFunction,Plated,PTH,ComponentDrill
T6C1.300
; #@! TA.AperFunction,Plated,PTH,ComponentDrill
T7C1.500
; #@! TA.AperFunction,NonPlated,NPTH,ComponentDrill
T8C2.700
; #@! TA.AperFunction,NonPlated,NPTH,ComponentDrill
T9C3.200
%
G90
G05
T1
X74.964Y-81.28
X75.565Y-41.141
X76.2Y-40.64
X89.535Y-44.355
X96.52Y-59.182
X106.68Y-59.08
X116.84Y-59.36
X127.0Y-59.309
X137.16Y-59.36
X147.32Y-59.182
X157.48Y-59.182
X167.64Y-59.131
X177.2Y-59.385
X183.565Y-39.37
X187.96Y-59.258
X190.07Y-38.1
X198.12Y-59.131
X209.769Y-59.293
X210.693Y-58.445
X212.471Y-58.445
X218.147Y-45.72
X226.06Y-46.99
X226.06Y-48.26
X226.06Y-49.53
X226.06Y-50.8
X226.06Y-52.07
X226.06Y-53.34
X226.06Y-54.61
X226.06Y-55.88
X226.06Y-57.15
X246.964Y-52.934
X250.673Y-38.557
X250.85Y-49.276
X251.562Y-38.633
X252.349Y-49.606
X252.456Y-39.268
X253.239Y-39.93
X254.183Y-39.963
X255.016Y-50.914
X255.057Y-39.827
X255.748Y-39.04
X256.438Y-38.176
X258.166Y-61.468
X258.22Y-52.07
X258.22Y-53.34
X258.22Y-54.61
X260.096Y-41.808
X260.198Y-37.059
X261.772Y-53.567
X261.772Y-55.867
X268.072Y-55.956
X269.494Y-41.656
X271.399Y-63.144
X273.507Y-55.483
X276.959Y-41.655
X281.94Y-38.15
X284.39Y-41.655
X290.195Y-59.25
X291.49Y-50.14
X293.74Y-44.285
X294.64Y-67.505
X294.74Y-58.5
X296.545Y-43.815
X297.28Y-58.5
X298.45Y-43.815
X302.26Y-38.1
X303.75Y-49.0
X309.15Y-44.45
X311.1Y-47.625
X311.15Y-44.45
X311.25Y-41.5
X311.25Y-58.5
X311.54Y-38.1
T2
X26.5Y-90.0
X26.5Y-95.5
X31.5Y-90.0
X31.5Y-95.5
X91.56Y-88.54
X91.56Y-94.04
X96.56Y-88.54
X96.56Y-94.04
X101.56Y-88.54
X101.56Y-94.04
X106.56Y-88.54
X106.56Y-94.04
X112.06Y-88.54
X112.06Y-94.04
X117.06Y-88.54
X117.06Y-94.04
X122.06Y-88.54
X122.06Y-94.04
X127.06Y-88.54
X127.06Y-94.04
X132.56Y-88.54
X132.56Y-94.04
X137.56Y-88.54
X137.56Y-94.04
X142.56Y-88.54
X142.56Y-94.04
X147.56Y-88.54
X147.56Y-94.04
X153.06Y-88.54
X153.06Y-94.04
X158.06Y-88.54
X158.06Y-94.04
X163.06Y-88.54
X163.06Y-94.04
X168.06Y-88.54
X168.06Y-94.04
X173.56Y-88.54
X173.56Y-94.04
X178.56Y-88.54
X178.56Y-94.04
X183.56Y-88.54
X183.56Y-94.04
X188.56Y-88.54
X188.56Y-94.04
X194.107Y-88.556
X194.107Y-94.056
X199.107Y-88.556
X199.107Y-94.056
X204.107Y-88.556
X204.107Y-94.056
X209.107Y-88.556
X209.107Y-94.056
T3
X99.695Y-46.99
X99.695Y-50.49
X214.63Y-60.635
X214.63Y-64.135
X217.17Y-80.645
X220.67Y-80.645
X285.75Y-47.048
X285.75Y-50.548
T4
X91.44Y-63.377
X91.44Y-70.998
X91.44Y-73.537
X96.52Y-63.377
X96.52Y-70.998
X96.52Y-73.537
X101.468Y-63.377
X101.468Y-70.998
X101.468Y-73.537
X106.547Y-63.377
X106.547Y-70.998
X106.547Y-73.537
X111.627Y-63.255
X111.627Y-70.875
X111.627Y-73.415
X116.707Y-63.255
X116.707Y-70.875
X116.707Y-73.415
X121.92Y-63.377
X121.92Y-70.998
X121.92Y-73.537
X127.0Y-63.377
X127.0Y-70.998
X127.0Y-73.537
X131.947Y-63.255
X131.947Y-70.875
X131.947Y-73.415
X137.028Y-63.255
X137.028Y-70.875
X137.028Y-73.415
X142.107Y-63.255
X142.107Y-70.875
X142.107Y-73.415
X147.188Y-63.255
X147.188Y-70.875
X147.188Y-73.415
X152.4Y-63.377
X152.4Y-70.998
X152.4Y-73.537
X157.48Y-63.377
X157.48Y-70.998
X157.48Y-73.537
X162.56Y-63.377
X162.56Y-70.998
X162.56Y-73.537
X167.64Y-63.377
X167.64Y-70.998
X167.64Y-73.537
X172.72Y-63.5
X172.72Y-71.12
X172.72Y-73.66
X177.8Y-63.5
X177.8Y-71.12
X177.8Y-73.66
X182.88Y-63.5
X182.88Y-71.12
X182.88Y-73.66
X187.96Y-63.5
X187.96Y-71.12
X187.96Y-73.66
X193.04Y-63.5
X193.04Y-71.12
X193.04Y-73.66
X198.12Y-63.5
X198.12Y-71.12
X198.12Y-73.66
X203.2Y-63.5
X203.2Y-71.12
X203.2Y-73.66
X208.28Y-63.5
X208.28Y-71.12
X208.28Y-73.66
X291.541Y-38.252
X294.081Y-38.252
X296.621Y-38.252
X299.161Y-38.252
X302.26Y-66.04
X304.8Y-66.04
X307.34Y-66.04
X309.88Y-66.04
T5
X224.79Y-67.31
X224.79Y-72.39
X224.79Y-86.36
X224.79Y-91.44
X227.33Y-67.31
X227.33Y-72.39
X227.33Y-86.36
X227.33Y-91.44
X229.87Y-67.31
X229.87Y-72.39
X229.87Y-86.36
X229.87Y-91.44
X236.22Y-67.31
X236.22Y-72.39
X236.22Y-86.36
X236.22Y-91.44
X238.76Y-67.31
X238.76Y-72.39
X238.76Y-86.36
X238.76Y-91.44
X241.3Y-67.31
X241.3Y-72.39
X241.3Y-86.36
X241.3Y-91.44
X247.65Y-67.31
X247.65Y-72.39
X247.65Y-86.36
X247.65Y-91.44
X250.19Y-67.31
X250.19Y-72.39
X250.19Y-86.36
X250.19Y-91.44
X252.73Y-67.31
X252.73Y-72.39
X252.73Y-86.36
X252.73Y-91.44
X259.08Y-67.31
X259.08Y-72.39
X259.08Y-86.36
X259.08Y-91.44
X261.62Y-67.31
X261.62Y-72.39
X261.62Y-86.36
X261.62Y-91.44
X264.16Y-67.31
X264.16Y-72.39
X264.16Y-86.36
X264.16Y-91.44
X270.51Y-86.36
X270.51Y-91.44
X273.05Y-86.36
X273.05Y-91.44
X275.59Y-86.36
X275.59Y-91.44
X281.94Y-86.36
X281.94Y-91.44
X284.48Y-86.36
X284.48Y-91.44
X287.02Y-86.36
X287.02Y-91.44
X293.37Y-86.36
X293.37Y-91.44
X295.91Y-86.36
X295.91Y-91.44
X298.45Y-86.36
X298.45Y-91.44
X304.8Y-86.36
X304.8Y-91.44
X307.34Y-86.36
X307.34Y-91.44
X309.88Y-86.36
X309.88Y-91.44
X316.23Y-86.36
X316.23Y-91.44
X318.77Y-86.36
X318.77Y-91.44
X321.31Y-86.36
X321.31Y-91.44
X327.66Y-86.36
X327.66Y-91.44
X330.2Y-86.36
X330.2Y-91.44
X332.74Y-86.36
X332.74Y-91.44
T6
X29.0Y-63.5
X29.0Y-86.0
T7
X66.859Y-37.667
X69.884Y-96.075
X71.939Y-37.667
X74.964Y-96.075
T8
X29.0Y-74.75
T9
X47.0Y-71.0
X162.25Y-81.75
X330.5Y-70.0
T5
G00X27.5Y-48.75
M15
G01X26.5Y-48.75
M16
G05
G00X27.5Y-52.75
M15
G01X26.5Y-52.75
M16
G05
G00X27.5Y-56.75
M15
G01X26.5Y-56.75
M16
G05
G00X32.5Y-48.75
M15
G01X31.5Y-48.75
M16
G05
G00X32.5Y-52.75
M15
G01X31.5Y-52.75
M16
G05
G00X32.5Y-56.75
M15
G01X31.5Y-56.75
M16
G05
M30
