%TF.GenerationSoftware,KiCad,Pcbnew,8.0.9*%
%TF.CreationDate,2025-02-25T23:01:13+01:00*%
%TF.ProjectId,Heizkreiscontroller,4865697a-6b72-4656-9973-636f6e74726f,rev?*%
%TF.SameCoordinates,Original*%
%TF.FileFunction,Copper,L1,Top*%
%TF.FilePolarity,Positive*%
%FSLAX46Y46*%
G04 Gerber Fmt 4.6, Leading zero omitted, Abs format (unit mm)*
G04 Created by KiCad (PCBNEW 8.0.9) date 2025-02-25 23:01:13*
%MOMM*%
%LPD*%
G01*
G04 APERTURE LIST*
G04 Aperture macros list*
%AMRoundRect*
0 Rectangle with rounded corners*
0 $1 Rounding radius*
0 $2 $3 $4 $5 $6 $7 $8 $9 X,Y pos of 4 corners*
0 Add a 4 corners polygon primitive as box body*
4,1,4,$2,$3,$4,$5,$6,$7,$8,$9,$2,$3,0*
0 Add four circle primitives for the rounded corners*
1,1,$1+$1,$2,$3*
1,1,$1+$1,$4,$5*
1,1,$1+$1,$6,$7*
1,1,$1+$1,$8,$9*
0 Add four rect primitives between the rounded corners*
20,1,$1+$1,$2,$3,$4,$5,0*
20,1,$1+$1,$4,$5,$6,$7,0*
20,1,$1+$1,$6,$7,$8,$9,0*
20,1,$1+$1,$8,$9,$2,$3,0*%
G04 Aperture macros list end*
%TA.AperFunction,ComponentPad*%
%ADD10R,1.800000X3.000000*%
%TD*%
%TA.AperFunction,ComponentPad*%
%ADD11O,1.800000X3.000000*%
%TD*%
%TA.AperFunction,SMDPad,CuDef*%
%ADD12RoundRect,0.375000X-0.625000X-0.375000X0.625000X-0.375000X0.625000X0.375000X-0.625000X0.375000X0*%
%TD*%
%TA.AperFunction,SMDPad,CuDef*%
%ADD13RoundRect,0.500000X-0.500000X-1.400000X0.500000X-1.400000X0.500000X1.400000X-0.500000X1.400000X0*%
%TD*%
%TA.AperFunction,ComponentPad*%
%ADD14R,1.600000X1.600000*%
%TD*%
%TA.AperFunction,ComponentPad*%
%ADD15C,1.600000*%
%TD*%
%TA.AperFunction,SMDPad,CuDef*%
%ADD16RoundRect,0.250000X1.100000X-0.412500X1.100000X0.412500X-1.100000X0.412500X-1.100000X-0.412500X0*%
%TD*%
%TA.AperFunction,ComponentPad*%
%ADD17C,1.524000*%
%TD*%
%TA.AperFunction,SMDPad,CuDef*%
%ADD18RoundRect,0.250000X-0.450000X0.350000X-0.450000X-0.350000X0.450000X-0.350000X0.450000X0.350000X0*%
%TD*%
%TA.AperFunction,ComponentPad*%
%ADD19R,2.000000X2.000000*%
%TD*%
%TA.AperFunction,ComponentPad*%
%ADD20C,2.000000*%
%TD*%
%TA.AperFunction,SMDPad,CuDef*%
%ADD21RoundRect,0.250000X0.450000X-0.325000X0.450000X0.325000X-0.450000X0.325000X-0.450000X-0.325000X0*%
%TD*%
%TA.AperFunction,SMDPad,CuDef*%
%ADD22RoundRect,0.250000X0.350000X0.450000X-0.350000X0.450000X-0.350000X-0.450000X0.350000X-0.450000X0*%
%TD*%
%TA.AperFunction,SMDPad,CuDef*%
%ADD23RoundRect,0.150000X0.875000X0.150000X-0.875000X0.150000X-0.875000X-0.150000X0.875000X-0.150000X0*%
%TD*%
%TA.AperFunction,ComponentPad*%
%ADD24C,4.000000*%
%TD*%
%TA.AperFunction,ComponentPad*%
%ADD25R,1.700000X1.700000*%
%TD*%
%TA.AperFunction,ComponentPad*%
%ADD26O,1.700000X1.700000*%
%TD*%
%TA.AperFunction,SMDPad,CuDef*%
%ADD27RoundRect,0.150000X-0.875000X-0.150000X0.875000X-0.150000X0.875000X0.150000X-0.875000X0.150000X0*%
%TD*%
%TA.AperFunction,SMDPad,CuDef*%
%ADD28RoundRect,0.200000X-0.800000X0.200000X-0.800000X-0.200000X0.800000X-0.200000X0.800000X0.200000X0*%
%TD*%
%TA.AperFunction,SMDPad,CuDef*%
%ADD29RoundRect,0.200000X0.200000X0.800000X-0.200000X0.800000X-0.200000X-0.800000X0.200000X-0.800000X0*%
%TD*%
%TA.AperFunction,SMDPad,CuDef*%
%ADD30RoundRect,0.090000X-0.660000X-0.360000X0.660000X-0.360000X0.660000X0.360000X-0.660000X0.360000X0*%
%TD*%
%TA.AperFunction,SMDPad,CuDef*%
%ADD31R,0.900000X2.000000*%
%TD*%
%TA.AperFunction,SMDPad,CuDef*%
%ADD32R,2.000000X0.900000*%
%TD*%
%TA.AperFunction,SMDPad,CuDef*%
%ADD33R,5.000000X5.000000*%
%TD*%
%TA.AperFunction,SMDPad,CuDef*%
%ADD34RoundRect,0.250000X-0.450000X0.325000X-0.450000X-0.325000X0.450000X-0.325000X0.450000X0.325000X0*%
%TD*%
%TA.AperFunction,ComponentPad*%
%ADD35C,3.000000*%
%TD*%
%TA.AperFunction,SMDPad,CuDef*%
%ADD36RoundRect,0.250000X0.450000X-0.350000X0.450000X0.350000X-0.450000X0.350000X-0.450000X-0.350000X0*%
%TD*%
%TA.AperFunction,ComponentPad*%
%ADD37RoundRect,0.250000X-1.250000X0.750000X-1.250000X-0.750000X1.250000X-0.750000X1.250000X0.750000X0*%
%TD*%
%TA.AperFunction,SMDPad,CuDef*%
%ADD38RoundRect,0.250000X-0.412500X-1.100000X0.412500X-1.100000X0.412500X1.100000X-0.412500X1.100000X0*%
%TD*%
%TA.AperFunction,ViaPad*%
%ADD39C,0.600000*%
%TD*%
%TA.AperFunction,Conductor*%
%ADD40C,0.381000*%
%TD*%
%TA.AperFunction,Conductor*%
%ADD41C,0.635000*%
%TD*%
%TA.AperFunction,Conductor*%
%ADD42C,2.540000*%
%TD*%
%TA.AperFunction,Conductor*%
%ADD43C,1.270000*%
%TD*%
%TA.AperFunction,Conductor*%
%ADD44C,3.810000*%
%TD*%
%ADD45C,0.300000*%
%ADD46C,0.350000*%
%ADD47O,2.200000X1.200000*%
G04 APERTURE END LIST*
D10*
%TO.P,J17,1,Pin_1*%
%TO.N,GND*%
X236220000Y-67310000D03*
X236220000Y-72390000D03*
D11*
%TO.P,J17,2,Pin_2*%
%TO.N,+3.3V*%
X238760000Y-67310000D03*
X238760000Y-72390000D03*
%TO.P,J17,3,Pin_3*%
%TO.N,ONEWIRE*%
X241300000Y-67310000D03*
X241300000Y-72390000D03*
%TD*%
D12*
%TO.P,U3,1,GND*%
%TO.N,GND*%
X261772000Y-53566700D03*
%TO.P,U3,2,VO*%
%TO.N,+3.3V*%
X261772000Y-55866700D03*
D13*
X268072000Y-55866700D03*
D12*
%TO.P,U3,3,VI*%
%TO.N,+5V*%
X261772000Y-58166700D03*
%TD*%
D10*
%TO.P,J14,1,Pin_1*%
%TO.N,GND*%
X281940000Y-86360000D03*
X281940000Y-91440000D03*
D11*
%TO.P,J14,2,Pin_2*%
%TO.N,+3.3V*%
X284480000Y-86360000D03*
X284480000Y-91440000D03*
%TO.P,J14,3,Pin_3*%
%TO.N,ONEWIRE*%
X287020000Y-86360000D03*
X287020000Y-91440000D03*
%TD*%
D14*
%TO.P,C12,1*%
%TO.N,+3.3V*%
X285750000Y-50547651D03*
D15*
%TO.P,C12,2*%
%TO.N,GND*%
X285750000Y-47047651D03*
%TD*%
D16*
%TO.P,C3,1*%
%TO.N,GND*%
X271399000Y-63144400D03*
%TO.P,C3,2*%
%TO.N,+3.3V*%
X271399000Y-60019400D03*
%TD*%
D17*
%TO.P,J3,1,Pin_1*%
%TO.N,VENT4*%
X132560000Y-88540000D03*
X132560000Y-94040000D03*
%TO.P,J3,2,Pin_2*%
%TO.N,NEUT*%
X137560000Y-88540000D03*
X137560000Y-94040000D03*
%TO.P,J3,3,Pin_3*%
%TO.N,VENT5*%
X142560000Y-88540000D03*
X142560000Y-94040000D03*
%TO.P,J3,4,Pin_4*%
%TO.N,NEUT*%
X147560000Y-88540000D03*
X147560000Y-94040000D03*
%TD*%
D18*
%TO.P,R8,1*%
%TO.N,Net-(D5-A)*%
X137160000Y-55880000D03*
%TO.P,R8,2*%
%TO.N,+5V*%
X137160000Y-57880000D03*
%TD*%
%TO.P,R9,1*%
%TO.N,Net-(D6-A)*%
X127000000Y-55880000D03*
%TO.P,R9,2*%
%TO.N,+5V*%
X127000000Y-57880000D03*
%TD*%
D16*
%TO.P,C8,1*%
%TO.N,GND*%
X258165600Y-61468000D03*
%TO.P,C8,2*%
%TO.N,+5V*%
X258165600Y-58343000D03*
%TD*%
D17*
%TO.P,J4,1,Pin_1*%
%TO.N,VENT6*%
X153060000Y-88540000D03*
X153060000Y-94040000D03*
%TO.P,J4,2,Pin_2*%
%TO.N,NEUT*%
X158060000Y-88540000D03*
X158060000Y-94040000D03*
%TO.P,J4,3,Pin_3*%
%TO.N,VENT7*%
X163060000Y-88540000D03*
X163060000Y-94040000D03*
%TO.P,J4,4,Pin_4*%
%TO.N,NEUT*%
X168060000Y-88540000D03*
X168060000Y-94040000D03*
%TD*%
D18*
%TO.P,R18,1*%
%TO.N,Net-(D14-A)*%
X49530000Y-86360000D03*
%TO.P,R18,2*%
%TO.N,Net-(R18-Pad2)*%
X49530000Y-88360000D03*
%TD*%
D19*
%TO.P,K5,1*%
%TO.N,unconnected-(K5-Pad1)*%
X187960000Y-73660000D03*
D20*
%TO.P,K5,2*%
%TO.N,+5V*%
X187960000Y-71120000D03*
%TO.P,K5,5*%
%TO.N,LINE*%
X187960000Y-63500000D03*
%TO.P,K5,6*%
X182880000Y-63500000D03*
%TO.P,K5,9*%
%TO.N,RELAIS9*%
X182880000Y-71120000D03*
%TO.P,K5,10*%
%TO.N,VENT8*%
X182880000Y-73660000D03*
%TD*%
D21*
%TO.P,D16,1,K*%
%TO.N,RELAIS11*%
X205740000Y-57955400D03*
%TO.P,D16,2,A*%
%TO.N,Net-(D16-A)*%
X205740000Y-55905400D03*
%TD*%
D18*
%TO.P,R19,1*%
%TO.N,Net-(R18-Pad2)*%
X49530000Y-90170000D03*
%TO.P,R19,2*%
%TO.N,LINE*%
X49530000Y-92170000D03*
%TD*%
D10*
%TO.P,J10,1,Pin_1*%
%TO.N,GND*%
X304800000Y-86360000D03*
X304800000Y-91440000D03*
D11*
%TO.P,J10,2,Pin_2*%
%TO.N,+3.3V*%
X307340000Y-86360000D03*
X307340000Y-91440000D03*
%TO.P,J10,3,Pin_3*%
%TO.N,ONEWIRE*%
X309880000Y-86360000D03*
X309880000Y-91440000D03*
%TD*%
D18*
%TO.P,R6,1*%
%TO.N,Net-(D3-A)*%
X157480000Y-55880000D03*
%TO.P,R6,2*%
%TO.N,+5V*%
X157480000Y-57880000D03*
%TD*%
D19*
%TO.P,K12,1*%
%TO.N,unconnected-(K12-Pad1)*%
X208280000Y-73660000D03*
D20*
%TO.P,K12,2*%
%TO.N,+5V*%
X208280000Y-71120000D03*
%TO.P,K12,5*%
%TO.N,LINE*%
X208280000Y-63500000D03*
%TO.P,K12,6*%
X203200000Y-63500000D03*
%TO.P,K12,9*%
%TO.N,RELAIS11*%
X203200000Y-71120000D03*
%TO.P,K12,10*%
%TO.N,VENT10*%
X203200000Y-73660000D03*
%TD*%
D18*
%TO.P,R17,1*%
%TO.N,Net-(D13-A)*%
X271246600Y-53499000D03*
%TO.P,R17,2*%
%TO.N,+3.3V*%
X271246600Y-55499000D03*
%TD*%
%TO.P,R7,1*%
%TO.N,Net-(D4-A)*%
X147320000Y-55880000D03*
%TO.P,R7,2*%
%TO.N,+5V*%
X147320000Y-57880000D03*
%TD*%
D19*
%TO.P,K2,1*%
%TO.N,unconnected-(K2-Pad1)*%
X137027500Y-73415000D03*
D20*
%TO.P,K2,2*%
%TO.N,+5V*%
X137027500Y-70875000D03*
%TO.P,K2,5*%
%TO.N,LINE*%
X137027500Y-63255000D03*
%TO.P,K2,6*%
X131947500Y-63255000D03*
%TO.P,K2,9*%
%TO.N,RELAIS3*%
X131947500Y-70875000D03*
%TO.P,K2,10*%
%TO.N,VENT4*%
X131947500Y-73415000D03*
%TD*%
D22*
%TO.P,R23,1*%
%TO.N,Net-(U1-IO15)*%
X291560000Y-53340000D03*
%TO.P,R23,2*%
%TO.N,+3.3V*%
X289560000Y-53340000D03*
%TD*%
D18*
%TO.P,R5,1*%
%TO.N,Net-(D2-A)*%
X167640000Y-55880000D03*
%TO.P,R5,2*%
%TO.N,+5V*%
X167640000Y-57880000D03*
%TD*%
%TO.P,R21,1*%
%TO.N,Net-(D16-A)*%
X208407000Y-55930800D03*
%TO.P,R21,2*%
%TO.N,+5V*%
X208407000Y-57930800D03*
%TD*%
D21*
%TO.P,D2,1,K*%
%TO.N,RELAIS0*%
X165100000Y-57930000D03*
%TO.P,D2,2,A*%
%TO.N,Net-(D2-A)*%
X165100000Y-55880000D03*
%TD*%
D17*
%TO.P,J21,1,Pin_1*%
%TO.N,VENT11*%
X194106800Y-88556200D03*
X194106800Y-94056200D03*
%TO.P,J21,2,Pin_2*%
%TO.N,NEUT*%
X199106800Y-88556200D03*
X199106800Y-94056200D03*
%TO.P,J21,3,Pin_3*%
%TO.N,VENT10*%
X204106800Y-88556200D03*
X204106800Y-94056200D03*
%TO.P,J21,4,Pin_4*%
%TO.N,NEUT*%
X209106800Y-88556200D03*
X209106800Y-94056200D03*
%TD*%
D10*
%TO.P,J9,1,Pin_1*%
%TO.N,GND*%
X236220000Y-86360000D03*
X236220000Y-91440000D03*
D11*
%TO.P,J9,2,Pin_2*%
%TO.N,+3.3V*%
X238760000Y-86360000D03*
X238760000Y-91440000D03*
%TO.P,J9,3,Pin_3*%
%TO.N,ONEWIRE*%
X241300000Y-86360000D03*
X241300000Y-91440000D03*
%TD*%
D23*
%TO.P,U10,1,I1*%
%TO.N,S15*%
X226060000Y-57150000D03*
%TO.P,U10,2,I2*%
%TO.N,S14*%
X226060000Y-55880000D03*
%TO.P,U10,3,I3*%
%TO.N,S13*%
X226060000Y-54610000D03*
%TO.P,U10,4,I4*%
%TO.N,S12*%
X226060000Y-53340000D03*
%TO.P,U10,5,I5*%
%TO.N,S11*%
X226060000Y-52070000D03*
%TO.P,U10,6,I6*%
%TO.N,S10*%
X226060000Y-50800000D03*
%TO.P,U10,7,I7*%
%TO.N,S9*%
X226060000Y-49530000D03*
%TO.P,U10,8,I8*%
%TO.N,S8*%
X226060000Y-48260000D03*
%TO.P,U10,9,GND*%
%TO.N,GND*%
X226060000Y-46990000D03*
%TO.P,U10,10,COM*%
%TO.N,+5V*%
X216760000Y-46990000D03*
%TO.P,U10,11,O8*%
%TO.N,RELAIS8*%
X216760000Y-48260000D03*
%TO.P,U10,12,O7*%
%TO.N,RELAIS9*%
X216760000Y-49530000D03*
%TO.P,U10,13,O6*%
%TO.N,RELAIS10*%
X216760000Y-50800000D03*
%TO.P,U10,14,O5*%
%TO.N,RELAIS11*%
X216760000Y-52070000D03*
%TO.P,U10,15,O4*%
%TO.N,RELAIS12*%
X216760000Y-53340000D03*
%TO.P,U10,16,O3*%
%TO.N,RELAIS13*%
X216760000Y-54610000D03*
%TO.P,U10,17,O2*%
%TO.N,unconnected-(U10-O2-Pad17)*%
X216760000Y-55880000D03*
%TO.P,U10,18,O1*%
%TO.N,unconnected-(U10-O1-Pad18)*%
X216760000Y-57150000D03*
%TD*%
%TO.P,U9,1,I1*%
%TO.N,S7*%
X190070000Y-48260000D03*
%TO.P,U9,2,I2*%
%TO.N,S6*%
X190070000Y-46990000D03*
%TO.P,U9,3,I3*%
%TO.N,S5*%
X190070000Y-45720000D03*
%TO.P,U9,4,I4*%
%TO.N,S4*%
X190070000Y-44450000D03*
%TO.P,U9,5,I5*%
%TO.N,S3*%
X190070000Y-43180000D03*
%TO.P,U9,6,I6*%
%TO.N,S2*%
X190070000Y-41910000D03*
%TO.P,U9,7,I7*%
%TO.N,S1*%
X190070000Y-40640000D03*
%TO.P,U9,8,I8*%
%TO.N,S0*%
X190070000Y-39370000D03*
%TO.P,U9,9,GND*%
%TO.N,GND*%
X190070000Y-38100000D03*
%TO.P,U9,10,COM*%
%TO.N,+5V*%
X180770000Y-38100000D03*
%TO.P,U9,11,O8*%
%TO.N,RELAIS7*%
X180770000Y-39370000D03*
%TO.P,U9,12,O7*%
%TO.N,RELAIS6*%
X180770000Y-40640000D03*
%TO.P,U9,13,O6*%
%TO.N,RELAIS5*%
X180770000Y-41910000D03*
%TO.P,U9,14,O5*%
%TO.N,RELAIS4*%
X180770000Y-43180000D03*
%TO.P,U9,15,O4*%
%TO.N,RELAIS3*%
X180770000Y-44450000D03*
%TO.P,U9,16,O3*%
%TO.N,RELAIS2*%
X180770000Y-45720000D03*
%TO.P,U9,17,O2*%
%TO.N,RELAIS1*%
X180770000Y-46990000D03*
%TO.P,U9,18,O1*%
%TO.N,RELAIS0*%
X180770000Y-48260000D03*
%TD*%
D10*
%TO.P,J20,1,Pin_1*%
%TO.N,GND*%
X259080000Y-67310000D03*
X259080000Y-72390000D03*
D11*
%TO.P,J20,2,Pin_2*%
%TO.N,+3.3V*%
X261620000Y-67310000D03*
X261620000Y-72390000D03*
%TO.P,J20,3,Pin_3*%
%TO.N,ONEWIRE*%
X264160000Y-67310000D03*
X264160000Y-72390000D03*
%TD*%
D10*
%TO.P,J19,1,Pin_1*%
%TO.N,GND*%
X247650000Y-67310000D03*
X247650000Y-72390000D03*
D11*
%TO.P,J19,2,Pin_2*%
%TO.N,+3.3V*%
X250190000Y-67310000D03*
X250190000Y-72390000D03*
%TO.P,J19,3,Pin_3*%
%TO.N,ONEWIRE*%
X252730000Y-67310000D03*
X252730000Y-72390000D03*
%TD*%
D24*
%TO.P,U2,1,L*%
%TO.N,LINE*%
X69884000Y-96075000D03*
%TO.P,U2,2,N*%
%TO.N,NEUT*%
X74964000Y-96075000D03*
%TO.P,U2,3,-*%
%TO.N,GND*%
X66859000Y-37667100D03*
%TO.P,U2,4,+*%
%TO.N,+5V*%
X71939000Y-37667100D03*
%TD*%
D14*
%TO.P,C11,1*%
%TO.N,+3.3V*%
X220670000Y-80645000D03*
D15*
%TO.P,C11,2*%
%TO.N,GND*%
X217170000Y-80645000D03*
%TD*%
D21*
%TO.P,D4,1,K*%
%TO.N,RELAIS2*%
X144780000Y-57930000D03*
%TO.P,D4,2,A*%
%TO.N,Net-(D4-A)*%
X144780000Y-55880000D03*
%TD*%
D18*
%TO.P,R12,1*%
%TO.N,Net-(D9-A)*%
X96520000Y-55880000D03*
%TO.P,R12,2*%
%TO.N,+5V*%
X96520000Y-57880000D03*
%TD*%
D17*
%TO.P,J1,1,Pin_1*%
%TO.N,VENT0*%
X91560000Y-88540000D03*
X91560000Y-94040000D03*
%TO.P,J1,2,Pin_2*%
%TO.N,NEUT*%
X96560000Y-88540000D03*
X96560000Y-94040000D03*
%TO.P,J1,3,Pin_3*%
%TO.N,VENT1*%
X101560000Y-88540000D03*
X101560000Y-94040000D03*
%TO.P,J1,4,Pin_4*%
%TO.N,NEUT*%
X106560000Y-88540000D03*
X106560000Y-94040000D03*
%TD*%
D14*
%TO.P,C10,1*%
%TO.N,+5V*%
X99695000Y-50490000D03*
D15*
%TO.P,C10,2*%
%TO.N,GND*%
X99695000Y-46990000D03*
%TD*%
D21*
%TO.P,D6,1,K*%
%TO.N,RELAIS4*%
X124460000Y-57930000D03*
%TO.P,D6,2,A*%
%TO.N,Net-(D6-A)*%
X124460000Y-55880000D03*
%TD*%
%TO.P,D9,1,K*%
%TO.N,RELAIS7*%
X93980000Y-57930000D03*
%TO.P,D9,2,A*%
%TO.N,Net-(D9-A)*%
X93980000Y-55880000D03*
%TD*%
D18*
%TO.P,R14,1*%
%TO.N,Net-(D11-A)*%
X187960000Y-56002500D03*
%TO.P,R14,2*%
%TO.N,+5V*%
X187960000Y-58002500D03*
%TD*%
D10*
%TO.P,J7,1,Pin_1*%
%TO.N,GND*%
X224790000Y-86360000D03*
X224790000Y-91440000D03*
D11*
%TO.P,J7,2,Pin_2*%
%TO.N,+3.3V*%
X227330000Y-86360000D03*
X227330000Y-91440000D03*
%TO.P,J7,3,Pin_3*%
%TO.N,ONEWIRE*%
X229870000Y-86360000D03*
X229870000Y-91440000D03*
%TD*%
D17*
%TO.P,J2,1,Pin_1*%
%TO.N,VENT2*%
X112060000Y-88540000D03*
X112060000Y-94040000D03*
%TO.P,J2,2,Pin_2*%
%TO.N,NEUT*%
X117060000Y-88540000D03*
X117060000Y-94040000D03*
%TO.P,J2,3,Pin_3*%
%TO.N,VENT3*%
X122060000Y-88540000D03*
X122060000Y-94040000D03*
%TO.P,J2,4,Pin_4*%
%TO.N,NEUT*%
X127060000Y-88540000D03*
X127060000Y-94040000D03*
%TD*%
D21*
%TO.P,D8,1,K*%
%TO.N,RELAIS6*%
X104140000Y-57930000D03*
%TO.P,D8,2,A*%
%TO.N,Net-(D8-A)*%
X104140000Y-55880000D03*
%TD*%
D25*
%TO.P,J22,1,Pin_1*%
%TO.N,GND*%
X309880000Y-66040000D03*
D26*
%TO.P,J22,2,Pin_2*%
%TO.N,TX*%
X307340000Y-66040000D03*
%TO.P,J22,3,Pin_3*%
%TO.N,RX*%
X304800000Y-66040000D03*
%TO.P,J22,4,Pin_4*%
%TO.N,+3.3V*%
X302260000Y-66040000D03*
%TD*%
D27*
%TO.P,U8,1,GPB0*%
%TO.N,S0*%
X248920000Y-38100000D03*
%TO.P,U8,2,GPB1*%
%TO.N,S1*%
X248920000Y-39370000D03*
%TO.P,U8,3,GPB2*%
%TO.N,S2*%
X248920000Y-40640000D03*
%TO.P,U8,4,GPB3*%
%TO.N,S3*%
X248920000Y-41910000D03*
%TO.P,U8,5,GPB4*%
%TO.N,S4*%
X248920000Y-43180000D03*
%TO.P,U8,6,GPB5*%
%TO.N,S5*%
X248920000Y-44450000D03*
%TO.P,U8,7,GPB6*%
%TO.N,S6*%
X248920000Y-45720000D03*
%TO.P,U8,8,GPB7*%
%TO.N,S7*%
X248920000Y-46990000D03*
%TO.P,U8,9,VDD*%
%TO.N,+3.3V*%
X248920000Y-48260000D03*
%TO.P,U8,10,VSS*%
%TO.N,GND*%
X248920000Y-49530000D03*
%TO.P,U8,11,NC*%
%TO.N,unconnected-(U8-NC-Pad11)*%
X248920000Y-50800000D03*
%TO.P,U8,12,SCK*%
%TO.N,SCL*%
X248920000Y-52070000D03*
%TO.P,U8,13,SDA*%
%TO.N,SDA*%
X248920000Y-53340000D03*
%TO.P,U8,14,NC*%
%TO.N,unconnected-(U8-NC-Pad14)*%
X248920000Y-54610000D03*
%TO.P,U8,15,A0*%
%TO.N,GND*%
X258220000Y-54610000D03*
%TO.P,U8,16,A1*%
X258220000Y-53340000D03*
%TO.P,U8,17,A2*%
X258220000Y-52070000D03*
%TO.P,U8,18,~{RESET}*%
%TO.N,+3.3V*%
X258220000Y-50800000D03*
%TO.P,U8,19,INTB*%
%TO.N,unconnected-(U8-INTB-Pad19)*%
X258220000Y-49530000D03*
%TO.P,U8,20,INTA*%
%TO.N,unconnected-(U8-INTA-Pad20)*%
X258220000Y-48260000D03*
%TO.P,U8,21,GPA0*%
%TO.N,S8*%
X258220000Y-46990000D03*
%TO.P,U8,22,GPA1*%
%TO.N,S9*%
X258220000Y-45720000D03*
%TO.P,U8,23,GPA2*%
%TO.N,S10*%
X258220000Y-44450000D03*
%TO.P,U8,24,GPA3*%
%TO.N,S11*%
X258220000Y-43180000D03*
%TO.P,U8,25,GPA4*%
%TO.N,S12*%
X258220000Y-41910000D03*
%TO.P,U8,26,GPA5*%
%TO.N,S13*%
X258220000Y-40640000D03*
%TO.P,U8,27,GPA6*%
%TO.N,S14*%
X258220000Y-39370000D03*
%TO.P,U8,28,GPA7*%
%TO.N,S15*%
X258220000Y-38100000D03*
%TD*%
D10*
%TO.P,J8,1,Pin_1*%
%TO.N,GND*%
X247650000Y-86360000D03*
X247650000Y-91440000D03*
D11*
%TO.P,J8,2,Pin_2*%
%TO.N,+3.3V*%
X250190000Y-86360000D03*
X250190000Y-91440000D03*
%TO.P,J8,3,Pin_3*%
%TO.N,ONEWIRE*%
X252730000Y-86360000D03*
X252730000Y-91440000D03*
%TD*%
D18*
%TO.P,R13,1*%
%TO.N,Net-(D10-A)*%
X177200000Y-56125000D03*
%TO.P,R13,2*%
%TO.N,+5V*%
X177200000Y-58125000D03*
%TD*%
D19*
%TO.P,K9,1*%
%TO.N,unconnected-(K9-Pad1)*%
X106547500Y-73537500D03*
D20*
%TO.P,K9,2*%
%TO.N,+5V*%
X106547500Y-70997500D03*
%TO.P,K9,5*%
%TO.N,LINE*%
X106547500Y-63377500D03*
%TO.P,K9,6*%
X101467500Y-63377500D03*
%TO.P,K9,9*%
%TO.N,RELAIS6*%
X101467500Y-70997500D03*
%TO.P,K9,10*%
%TO.N,VENT1*%
X101467500Y-73537500D03*
%TD*%
D19*
%TO.P,K6,1*%
%TO.N,unconnected-(K6-Pad1)*%
X167640000Y-73537500D03*
D20*
%TO.P,K6,2*%
%TO.N,+5V*%
X167640000Y-70997500D03*
%TO.P,K6,5*%
%TO.N,LINE*%
X167640000Y-63377500D03*
%TO.P,K6,6*%
X162560000Y-63377500D03*
%TO.P,K6,9*%
%TO.N,RELAIS0*%
X162560000Y-70997500D03*
%TO.P,K6,10*%
%TO.N,VENT7*%
X162560000Y-73537500D03*
%TD*%
D28*
%TO.P,SW4,1,1*%
%TO.N,Net-(U1-IO15)*%
X290195000Y-55050000D03*
%TO.P,SW4,2,2*%
%TO.N,GND*%
X290195000Y-59250000D03*
%TD*%
D29*
%TO.P,SW2,1,1*%
%TO.N,GND*%
X311540000Y-38100000D03*
%TO.P,SW2,2,2*%
%TO.N,Net-(U1-EN)*%
X307340000Y-38100000D03*
%TD*%
D18*
%TO.P,R11,1*%
%TO.N,Net-(D8-A)*%
X106680000Y-55880000D03*
%TO.P,R11,2*%
%TO.N,+5V*%
X106680000Y-57880000D03*
%TD*%
D10*
%TO.P,J16,1,Pin_1*%
%TO.N,GND*%
X327660000Y-86360000D03*
X327660000Y-91440000D03*
D11*
%TO.P,J16,2,Pin_2*%
%TO.N,+3.3V*%
X330200000Y-86360000D03*
X330200000Y-91440000D03*
%TO.P,J16,3,Pin_3*%
%TO.N,ONEWIRE*%
X332740000Y-86360000D03*
X332740000Y-91440000D03*
%TD*%
D21*
%TO.P,D15,1,K*%
%TO.N,RELAIS10*%
X195580000Y-57930000D03*
%TO.P,D15,2,A*%
%TO.N,Net-(D15-A)*%
X195580000Y-55880000D03*
%TD*%
D10*
%TO.P,J15,1,Pin_1*%
%TO.N,GND*%
X293370000Y-86360000D03*
X293370000Y-91440000D03*
D11*
%TO.P,J15,2,Pin_2*%
%TO.N,+3.3V*%
X295910000Y-86360000D03*
X295910000Y-91440000D03*
%TO.P,J15,3,Pin_3*%
%TO.N,ONEWIRE*%
X298450000Y-86360000D03*
X298450000Y-91440000D03*
%TD*%
D21*
%TO.P,D10,1,K*%
%TO.N,RELAIS8*%
X174660000Y-58175000D03*
%TO.P,D10,2,A*%
%TO.N,Net-(D10-A)*%
X174660000Y-56125000D03*
%TD*%
D19*
%TO.P,K10,1*%
%TO.N,unconnected-(K10-Pad1)*%
X177800000Y-73660000D03*
D20*
%TO.P,K10,2*%
%TO.N,+5V*%
X177800000Y-71120000D03*
%TO.P,K10,5*%
%TO.N,LINE*%
X177800000Y-63500000D03*
%TO.P,K10,6*%
X172720000Y-63500000D03*
%TO.P,K10,9*%
%TO.N,RELAIS8*%
X172720000Y-71120000D03*
%TO.P,K10,10*%
%TO.N,VENT9*%
X172720000Y-73660000D03*
%TD*%
D19*
%TO.P,K11,1*%
%TO.N,unconnected-(K11-Pad1)*%
X198120000Y-73660000D03*
D20*
%TO.P,K11,2*%
%TO.N,+5V*%
X198120000Y-71120000D03*
%TO.P,K11,5*%
%TO.N,LINE*%
X198120000Y-63500000D03*
%TO.P,K11,6*%
X193040000Y-63500000D03*
%TO.P,K11,9*%
%TO.N,RELAIS10*%
X193040000Y-71120000D03*
%TO.P,K11,10*%
%TO.N,VENT11*%
X193040000Y-73660000D03*
%TD*%
D10*
%TO.P,J12,1,Pin_1*%
%TO.N,GND*%
X270510000Y-86360000D03*
X270510000Y-91440000D03*
D11*
%TO.P,J12,2,Pin_2*%
%TO.N,+3.3V*%
X273050000Y-86360000D03*
X273050000Y-91440000D03*
%TO.P,J12,3,Pin_3*%
%TO.N,ONEWIRE*%
X275590000Y-86360000D03*
X275590000Y-91440000D03*
%TD*%
D30*
%TO.P,D1,1,VDD*%
%TO.N,+5V*%
X279490000Y-38355000D03*
%TO.P,D1,2,DOUT*%
%TO.N,Net-(D1-DOUT)*%
X279490000Y-41655000D03*
%TO.P,D1,3,VSS*%
%TO.N,GND*%
X284390000Y-41655000D03*
%TO.P,D1,4,DIN*%
%TO.N,NEOPIXEL*%
X284390000Y-38355000D03*
%TD*%
D31*
%TO.P,U1,1,GND*%
%TO.N,GND*%
X311250000Y-41500000D03*
%TO.P,U1,2,VDD*%
%TO.N,+3.3V*%
X309980000Y-41500000D03*
%TO.P,U1,3,EN*%
%TO.N,Net-(U1-EN)*%
X308710000Y-41500000D03*
%TO.P,U1,4,SENSOR_VP*%
%TO.N,unconnected-(U1-SENSOR_VP-Pad4)*%
X307440000Y-41500000D03*
%TO.P,U1,5,SENSOR_VN*%
%TO.N,unconnected-(U1-SENSOR_VN-Pad5)*%
X306170000Y-41500000D03*
%TO.P,U1,6,IO34*%
%TO.N,unconnected-(U1-IO34-Pad6)*%
X304900000Y-41500000D03*
%TO.P,U1,7,IO35*%
%TO.N,unconnected-(U1-IO35-Pad7)*%
X303630000Y-41500000D03*
%TO.P,U1,8,IO32*%
%TO.N,unconnected-(U1-IO32-Pad8)*%
X302360000Y-41500000D03*
%TO.P,U1,9,IO33*%
%TO.N,unconnected-(U1-IO33-Pad9)*%
X301090000Y-41500000D03*
%TO.P,U1,10,IO25*%
%TO.N,unconnected-(U1-IO25-Pad10)*%
X299820000Y-41500000D03*
%TO.P,U1,11,IO26*%
%TO.N,NEOPIXEL*%
X298550000Y-41500000D03*
%TO.P,U1,12,IO27*%
%TO.N,SCL*%
X297280000Y-41500000D03*
%TO.P,U1,13,IO14*%
%TO.N,SDA*%
X296010000Y-41500000D03*
%TO.P,U1,14,IO12*%
%TO.N,unconnected-(U1-IO12-Pad14)*%
X294740000Y-41500000D03*
D32*
%TO.P,U1,15,GND*%
%TO.N,GND*%
X293740000Y-44285000D03*
%TO.P,U1,16,IO13*%
%TO.N,unconnected-(U1-IO13-Pad16)*%
X293740000Y-45555000D03*
%TO.P,U1,23,IO15*%
%TO.N,Net-(U1-IO15)*%
X293740000Y-54445000D03*
%TO.P,U1,24,IO2*%
%TO.N,unconnected-(U1-IO2-Pad24)*%
X293740000Y-55715000D03*
D31*
%TO.P,U1,25,IO0*%
%TO.N,Net-(U1-IO0)*%
X294740000Y-58500000D03*
%TO.P,U1,26,IO4*%
%TO.N,unconnected-(U1-IO4-Pad26)*%
X296010000Y-58500000D03*
%TO.P,U1,27,IO16*%
%TO.N,ONEWIRE*%
X297280000Y-58500000D03*
%TO.P,U1,28,IO17*%
%TO.N,unconnected-(U1-IO17-Pad28)*%
X298550000Y-58500000D03*
%TO.P,U1,29,IO5*%
%TO.N,unconnected-(U1-IO5-Pad29)*%
X299820000Y-58500000D03*
%TO.P,U1,30,IO18*%
%TO.N,unconnected-(U1-IO18-Pad30)*%
X301090000Y-58500000D03*
%TO.P,U1,31,IO19*%
%TO.N,unconnected-(U1-IO19-Pad31)*%
X302360000Y-58500000D03*
%TO.P,U1,32,NC*%
%TO.N,unconnected-(U1-NC-Pad32)*%
X303630000Y-58500000D03*
%TO.P,U1,33,IO21*%
%TO.N,unconnected-(U1-IO21-Pad33)*%
X304900000Y-58500000D03*
%TO.P,U1,34,RXD0/IO3*%
%TO.N,RX*%
X306170000Y-58500000D03*
%TO.P,U1,35,TXD0/IO1*%
%TO.N,TX*%
X307440000Y-58500000D03*
%TO.P,U1,36,IO22*%
%TO.N,unconnected-(U1-IO22-Pad36)*%
X308710000Y-58500000D03*
%TO.P,U1,37,IO23*%
%TO.N,unconnected-(U1-IO23-Pad37)*%
X309980000Y-58500000D03*
%TO.P,U1,38,GND*%
%TO.N,GND*%
X311250000Y-58500000D03*
D33*
%TO.P,U1,39,GND*%
X303750000Y-49000000D03*
%TD*%
D21*
%TO.P,D7,1,K*%
%TO.N,RELAIS5*%
X114300000Y-57930000D03*
%TO.P,D7,2,A*%
%TO.N,Net-(D7-A)*%
X114300000Y-55880000D03*
%TD*%
%TO.P,D5,1,K*%
%TO.N,RELAIS3*%
X134620000Y-57930000D03*
%TO.P,D5,2,A*%
%TO.N,Net-(D5-A)*%
X134620000Y-55880000D03*
%TD*%
D10*
%TO.P,J13,1,Pin_1*%
%TO.N,GND*%
X316230000Y-86360000D03*
X316230000Y-91440000D03*
D11*
%TO.P,J13,2,Pin_2*%
%TO.N,+3.3V*%
X318770000Y-86360000D03*
X318770000Y-91440000D03*
%TO.P,J13,3,Pin_3*%
%TO.N,ONEWIRE*%
X321310000Y-86360000D03*
X321310000Y-91440000D03*
%TD*%
D17*
%TO.P,J6,1,Pin_1*%
%TO.N,Net-(J6-Pin_1)*%
X26500000Y-90000000D03*
X26500000Y-95500000D03*
%TO.P,J6,2,Pin_2*%
%TO.N,Net-(J6-Pin_2)*%
X31500000Y-90000000D03*
X31500000Y-95500000D03*
%TD*%
D10*
%TO.P,J18,1,Pin_1*%
%TO.N,GND*%
X224790000Y-67310000D03*
X224790000Y-72390000D03*
D11*
%TO.P,J18,2,Pin_2*%
%TO.N,+3.3V*%
X227330000Y-67310000D03*
X227330000Y-72390000D03*
%TO.P,J18,3,Pin_3*%
%TO.N,ONEWIRE*%
X229870000Y-67310000D03*
X229870000Y-72390000D03*
%TD*%
D25*
%TO.P,J23,1,Pin_1*%
%TO.N,GND*%
X291541200Y-38252400D03*
D26*
%TO.P,J23,2,Pin_2*%
%TO.N,SDA*%
X294081200Y-38252400D03*
%TO.P,J23,3,Pin_3*%
%TO.N,SCL*%
X296621200Y-38252400D03*
%TO.P,J23,4,Pin_4*%
%TO.N,+3.3V*%
X299161200Y-38252400D03*
%TD*%
D18*
%TO.P,R10,1*%
%TO.N,Net-(D7-A)*%
X116840000Y-55880000D03*
%TO.P,R10,2*%
%TO.N,+5V*%
X116840000Y-57880000D03*
%TD*%
D14*
%TO.P,C9,1*%
%TO.N,+5V*%
X214630000Y-60635000D03*
D15*
%TO.P,C9,2*%
%TO.N,GND*%
X214630000Y-64135000D03*
%TD*%
D19*
%TO.P,K1,1*%
%TO.N,unconnected-(K1-Pad1)*%
X157480000Y-73537500D03*
D20*
%TO.P,K1,2*%
%TO.N,+5V*%
X157480000Y-70997500D03*
%TO.P,K1,5*%
%TO.N,LINE*%
X157480000Y-63377500D03*
%TO.P,K1,6*%
X152400000Y-63377500D03*
%TO.P,K1,9*%
%TO.N,RELAIS1*%
X152400000Y-70997500D03*
%TO.P,K1,10*%
%TO.N,VENT6*%
X152400000Y-73537500D03*
%TD*%
D19*
%TO.P,K3,1*%
%TO.N,unconnected-(K3-Pad1)*%
X116707500Y-73415000D03*
D20*
%TO.P,K3,2*%
%TO.N,+5V*%
X116707500Y-70875000D03*
%TO.P,K3,5*%
%TO.N,LINE*%
X116707500Y-63255000D03*
%TO.P,K3,6*%
X111627500Y-63255000D03*
%TO.P,K3,9*%
%TO.N,RELAIS5*%
X111627500Y-70875000D03*
%TO.P,K3,10*%
%TO.N,VENT2*%
X111627500Y-73415000D03*
%TD*%
D10*
%TO.P,J11,1,Pin_1*%
%TO.N,GND*%
X259080000Y-86360000D03*
X259080000Y-91440000D03*
D11*
%TO.P,J11,2,Pin_2*%
%TO.N,+3.3V*%
X261620000Y-86360000D03*
X261620000Y-91440000D03*
%TO.P,J11,3,Pin_3*%
%TO.N,ONEWIRE*%
X264160000Y-86360000D03*
X264160000Y-91440000D03*
%TD*%
D21*
%TO.P,D3,1,K*%
%TO.N,RELAIS1*%
X154940000Y-57930000D03*
%TO.P,D3,2,A*%
%TO.N,Net-(D3-A)*%
X154940000Y-55880000D03*
%TD*%
D19*
%TO.P,K8,1*%
%TO.N,unconnected-(K8-Pad1)*%
X127000000Y-73537500D03*
D20*
%TO.P,K8,2*%
%TO.N,+5V*%
X127000000Y-70997500D03*
%TO.P,K8,5*%
%TO.N,LINE*%
X127000000Y-63377500D03*
%TO.P,K8,6*%
X121920000Y-63377500D03*
%TO.P,K8,9*%
%TO.N,RELAIS4*%
X121920000Y-70997500D03*
%TO.P,K8,10*%
%TO.N,VENT3*%
X121920000Y-73537500D03*
%TD*%
D17*
%TO.P,J5,1,Pin_1*%
%TO.N,VENT9*%
X173560000Y-88540000D03*
X173560000Y-94040000D03*
%TO.P,J5,2,Pin_2*%
%TO.N,NEUT*%
X178560000Y-88540000D03*
X178560000Y-94040000D03*
%TO.P,J5,3,Pin_3*%
%TO.N,VENT8*%
X183560000Y-88540000D03*
X183560000Y-94040000D03*
%TO.P,J5,4,Pin_4*%
%TO.N,NEUT*%
X188560000Y-88540000D03*
X188560000Y-94040000D03*
%TD*%
D30*
%TO.P,D17,1,VDD*%
%TO.N,+5V*%
X272059400Y-38355000D03*
%TO.P,D17,2,DOUT*%
%TO.N,Net-(D17-DOUT)*%
X272059400Y-41655000D03*
%TO.P,D17,3,VSS*%
%TO.N,GND*%
X276959400Y-41655000D03*
%TO.P,D17,4,DIN*%
%TO.N,Net-(D1-DOUT)*%
X276959400Y-38355000D03*
%TD*%
%TO.P,D18,1,VDD*%
%TO.N,+5V*%
X264594000Y-38356000D03*
%TO.P,D18,2,DOUT*%
%TO.N,unconnected-(D18-DOUT-Pad2)*%
X264594000Y-41656000D03*
%TO.P,D18,3,VSS*%
%TO.N,GND*%
X269494000Y-41656000D03*
%TO.P,D18,4,DIN*%
%TO.N,Net-(D17-DOUT)*%
X269494000Y-38356000D03*
%TD*%
D28*
%TO.P,SW3,1,1*%
%TO.N,Net-(U1-IO0)*%
X294640000Y-63305000D03*
%TO.P,SW3,2,2*%
%TO.N,GND*%
X294640000Y-67505000D03*
%TD*%
D34*
%TO.P,D14,1,K*%
%TO.N,NEUT*%
X49530000Y-82500000D03*
%TO.P,D14,2,A*%
%TO.N,Net-(D14-A)*%
X49530000Y-84550000D03*
%TD*%
D21*
%TO.P,D13,1,K*%
%TO.N,GND*%
X273507200Y-55482600D03*
%TO.P,D13,2,A*%
%TO.N,Net-(D13-A)*%
X273507200Y-53432600D03*
%TD*%
%TO.P,D11,1,K*%
%TO.N,RELAIS9*%
X185420000Y-58052500D03*
%TO.P,D11,2,A*%
%TO.N,Net-(D11-A)*%
X185420000Y-56002500D03*
%TD*%
D18*
%TO.P,R20,1*%
%TO.N,Net-(D15-A)*%
X198120000Y-55930800D03*
%TO.P,R20,2*%
%TO.N,+5V*%
X198120000Y-57930800D03*
%TD*%
D35*
%TO.P,F1,1*%
%TO.N,Net-(F1-Pad1)*%
X29000000Y-63500000D03*
%TO.P,F1,2*%
%TO.N,Net-(J6-Pin_1)*%
X29000000Y-86000000D03*
%TD*%
D19*
%TO.P,K4,1*%
%TO.N,unconnected-(K4-Pad1)*%
X96520000Y-73537500D03*
D20*
%TO.P,K4,2*%
%TO.N,+5V*%
X96520000Y-70997500D03*
%TO.P,K4,5*%
%TO.N,LINE*%
X96520000Y-63377500D03*
%TO.P,K4,6*%
X91440000Y-63377500D03*
%TO.P,K4,9*%
%TO.N,RELAIS7*%
X91440000Y-70997500D03*
%TO.P,K4,10*%
%TO.N,VENT0*%
X91440000Y-73537500D03*
%TD*%
D21*
%TO.P,D12,1,K*%
%TO.N,GND*%
X89535000Y-44355000D03*
%TO.P,D12,2,A*%
%TO.N,Net-(D12-A)*%
X89535000Y-42305000D03*
%TD*%
D36*
%TO.P,R16,1*%
%TO.N,Net-(D12-A)*%
X89535000Y-40005000D03*
%TO.P,R16,2*%
%TO.N,+5V*%
X89535000Y-38005000D03*
%TD*%
D37*
%TO.P,SW1,1,A*%
%TO.N,NEUT*%
X32000000Y-48750000D03*
%TO.P,SW1,2,B*%
%TO.N,Net-(J6-Pin_2)*%
X32000000Y-52750000D03*
%TO.P,SW1,3,C*%
%TO.N,unconnected-(SW1-C-Pad3)*%
X32000000Y-56750000D03*
%TO.P,SW1,4,A*%
%TO.N,LINE*%
X27000000Y-48750000D03*
%TO.P,SW1,5,B*%
%TO.N,Net-(F1-Pad1)*%
X27000000Y-52750000D03*
%TO.P,SW1,6,C*%
%TO.N,unconnected-(SW1-C-Pad6)*%
X27000000Y-56750000D03*
%TD*%
D19*
%TO.P,K7,1*%
%TO.N,unconnected-(K7-Pad1)*%
X147187500Y-73415000D03*
D20*
%TO.P,K7,2*%
%TO.N,+5V*%
X147187500Y-70875000D03*
%TO.P,K7,5*%
%TO.N,LINE*%
X147187500Y-63255000D03*
%TO.P,K7,6*%
X142107500Y-63255000D03*
%TO.P,K7,9*%
%TO.N,RELAIS2*%
X142107500Y-70875000D03*
%TO.P,K7,10*%
%TO.N,VENT5*%
X142107500Y-73415000D03*
%TD*%
D38*
%TO.P,C4,1*%
%TO.N,GND*%
X302260000Y-38100000D03*
%TO.P,C4,2*%
%TO.N,+3.3V*%
X305385000Y-38100000D03*
%TD*%
D39*
%TO.N,Net-(U1-EN)*%
X309150000Y-44450000D03*
%TO.N,Net-(U1-IO0)*%
X294740000Y-58500000D03*
%TO.N,GND*%
X293740000Y-44285000D03*
X269494000Y-41656000D03*
X258220000Y-53340000D03*
X302260000Y-38100000D03*
X303750000Y-49000000D03*
X75565000Y-41140863D03*
X89535000Y-44355000D03*
X261772000Y-53566700D03*
X76200000Y-40640000D03*
X190070000Y-38100000D03*
X258220000Y-52070000D03*
X311250000Y-58500000D03*
X311250000Y-41500000D03*
X276959400Y-41655000D03*
X246964200Y-52933600D03*
X284390000Y-41655000D03*
X294640000Y-67505000D03*
X290195000Y-59250000D03*
X273507200Y-55482600D03*
X258220000Y-54610000D03*
X271399000Y-63144400D03*
X311540000Y-38100000D03*
X258165600Y-61468000D03*
X226060000Y-46990000D03*
%TO.N,NEUT*%
X74964000Y-81280000D03*
%TO.N,+3.3V*%
X311150000Y-44450000D03*
X311100000Y-47625000D03*
X268072000Y-55956200D03*
X255016000Y-50913900D03*
X291490400Y-50139600D03*
X261772000Y-55866700D03*
%TO.N,+5V*%
X167640000Y-59131200D03*
X127000000Y-59309000D03*
X183565000Y-39370000D03*
X147320000Y-59182000D03*
X187960000Y-59258200D03*
X210693000Y-58445400D03*
X198120000Y-59131200D03*
X209769200Y-59293000D03*
X212471000Y-58445400D03*
X137160000Y-59359800D03*
X177200000Y-59385200D03*
X281940000Y-38150000D03*
X96520000Y-59182000D03*
X157480000Y-59182000D03*
X116840000Y-59359800D03*
X106680000Y-59080400D03*
X218147500Y-45720000D03*
%TO.N,SCL*%
X298450000Y-43815000D03*
X250850400Y-49276000D03*
X260197600Y-37058600D03*
%TO.N,SDA*%
X260096000Y-41808400D03*
X252349000Y-49606200D03*
X296545000Y-43815000D03*
%TO.N,ONEWIRE*%
X297280000Y-58500000D03*
%TO.N,S9*%
X251561600Y-38633400D03*
X226060000Y-49530000D03*
%TO.N,S11*%
X253239384Y-39930184D03*
X226060000Y-52070000D03*
%TO.N,S13*%
X255057400Y-39827200D03*
X226060000Y-54610000D03*
%TO.N,S15*%
X256438400Y-38176200D03*
X226060000Y-57150000D03*
%TO.N,S12*%
X254182695Y-39963389D03*
X226060000Y-53340000D03*
%TO.N,S8*%
X250672600Y-38557200D03*
X226060000Y-48260000D03*
%TO.N,S14*%
X255747900Y-39039800D03*
X226060000Y-55880000D03*
%TO.N,S10*%
X252456148Y-39268165D03*
X226060000Y-50800000D03*
%TD*%
D40*
%TO.N,Net-(U1-EN)*%
X308710000Y-43698873D02*
X308710000Y-41500000D01*
X308930000Y-44230000D02*
X309150000Y-44450000D01*
X308025000Y-38785000D02*
X307340000Y-38100000D01*
X308710000Y-40438736D02*
X308710000Y-41500000D01*
X308710000Y-43698873D02*
G75*
G03*
X308929992Y-44230008I751100J-27D01*
G01*
X308025000Y-38785000D02*
G75*
G02*
X308709985Y-40438736I-1653700J-1653700D01*
G01*
D41*
%TO.N,Net-(U1-IO0)*%
X294835000Y-58662175D02*
X294835000Y-63500000D01*
X294787500Y-58547500D02*
X294740000Y-58500000D01*
X294787500Y-58547500D02*
G75*
G02*
X294835010Y-58662175I-114700J-114700D01*
G01*
%TO.N,TX*%
X307440000Y-65869289D02*
X307440000Y-58500000D01*
X307390000Y-65990000D02*
X307340000Y-66040000D01*
X307440000Y-65869289D02*
G75*
G02*
X307390003Y-65990003I-170700J-11D01*
G01*
%TO.N,RX*%
X305485000Y-65355000D02*
X304800000Y-66040000D01*
X306170000Y-63701263D02*
X306170000Y-58500000D01*
X306170000Y-63701263D02*
G75*
G02*
X305485011Y-65355011I-2338700J-37D01*
G01*
%TO.N,GND*%
X246964200Y-51118976D02*
X246964200Y-52933600D01*
D42*
X70332763Y-41140863D02*
X75565000Y-41140863D01*
X75565000Y-41140863D02*
X75699137Y-41140863D01*
D41*
X247532608Y-49892391D02*
X247429600Y-49995400D01*
X248407500Y-49530000D02*
X248920000Y-49530000D01*
D42*
X66859000Y-37667100D02*
X70332763Y-41140863D01*
X75699137Y-41140863D02*
X76200000Y-40640000D01*
D41*
X247429600Y-49995400D02*
G75*
G03*
X246964190Y-51118976I1123600J-1123600D01*
G01*
X248407500Y-49530000D02*
G75*
G03*
X247532605Y-49892388I0J-1237300D01*
G01*
D42*
%TO.N,LINE*%
X64770000Y-48260000D02*
X62910000Y-46400000D01*
D43*
X163830000Y-63377500D02*
X166370000Y-63377500D01*
D42*
X177259998Y-85090000D02*
X173260001Y-85090000D01*
D43*
X143576250Y-63255000D02*
X142107500Y-63255000D01*
D42*
X106139998Y-85090000D02*
X102140001Y-85090000D01*
X163100001Y-85090000D02*
X156939998Y-85090000D01*
X173260001Y-85090000D02*
X167099998Y-85090000D01*
D43*
X194310000Y-63500000D02*
X196850000Y-63500000D01*
X195580000Y-83090001D02*
X195580000Y-64770000D01*
X144780000Y-83090001D02*
X144780000Y-64458750D01*
X115503750Y-63255000D02*
X116707500Y-63255000D01*
X176530000Y-63500000D02*
X177800000Y-63500000D01*
D42*
X95979998Y-85090000D02*
X91980001Y-85090000D01*
X197579998Y-85090000D02*
X203740001Y-85090000D01*
X197579998Y-85090000D02*
X193580001Y-85090000D01*
X193580001Y-85090000D02*
X187419998Y-85090000D01*
X78740000Y-60719897D02*
X66280103Y-48260000D01*
D43*
X184150000Y-63500000D02*
X182880000Y-63500000D01*
D42*
X146779998Y-85090000D02*
X142780001Y-85090000D01*
X48088942Y-38100000D02*
X45838153Y-38100000D01*
X126459998Y-85090000D02*
X132620001Y-85090000D01*
X56388942Y-46400000D02*
X48088942Y-38100000D01*
D43*
X123190000Y-63377500D02*
X125730000Y-63377500D01*
D42*
X116299998Y-85090000D02*
X112300001Y-85090000D01*
D43*
X133416250Y-63255000D02*
X135823750Y-63255000D01*
D42*
X78740000Y-83090001D02*
X78740000Y-60719897D01*
D43*
X204470000Y-63500000D02*
X203200000Y-63500000D01*
X114300000Y-83090001D02*
X114300000Y-64458750D01*
X163830000Y-63377500D02*
X162560000Y-63377500D01*
D42*
X102140001Y-85090000D02*
X95979998Y-85090000D01*
D43*
X123190000Y-63377500D02*
X121920000Y-63377500D01*
X102936250Y-63377500D02*
X105343750Y-63377500D01*
X186690000Y-63500000D02*
X187960000Y-63500000D01*
D42*
X142780001Y-85090000D02*
X136619998Y-85090000D01*
D43*
X113096250Y-63255000D02*
X111627500Y-63255000D01*
X156210000Y-63377500D02*
X157480000Y-63377500D01*
X165100000Y-64647500D02*
X165100000Y-83090001D01*
D42*
X29619903Y-46130097D02*
X27000000Y-48750000D01*
D43*
X153670000Y-63377500D02*
X152400000Y-63377500D01*
D42*
X167099998Y-85090000D02*
X163100001Y-85090000D01*
D43*
X105343750Y-63377500D02*
X106547500Y-63377500D01*
D42*
X136619998Y-85090000D02*
X132620001Y-85090000D01*
D43*
X102936250Y-63377500D02*
X101467500Y-63377500D01*
X194310000Y-63500000D02*
X193040000Y-63500000D01*
D42*
X37808056Y-46130097D02*
X29619903Y-46130097D01*
D43*
X134620000Y-64458750D02*
X134620000Y-83090001D01*
D42*
X106139998Y-85090000D02*
X112300001Y-85090000D01*
D43*
X173990000Y-63500000D02*
X172720000Y-63500000D01*
D42*
X126459998Y-85090000D02*
X122460001Y-85090000D01*
X66280103Y-48260000D02*
X64770000Y-48260000D01*
D43*
X133416250Y-63255000D02*
X131947500Y-63255000D01*
X205740000Y-64770000D02*
X205740000Y-83090001D01*
X184150000Y-63500000D02*
X186690000Y-63500000D01*
X154940000Y-83090001D02*
X154940000Y-64647500D01*
X207010000Y-63500000D02*
X208280000Y-63500000D01*
D42*
X156939998Y-85090000D02*
X152940001Y-85090000D01*
D43*
X104140000Y-83090001D02*
X104140000Y-64581250D01*
X92710000Y-63377500D02*
X91440000Y-63377500D01*
D42*
X122460001Y-85090000D02*
X116299998Y-85090000D01*
D43*
X92710000Y-63377500D02*
X95250000Y-63377500D01*
X153670000Y-63377500D02*
X156210000Y-63377500D01*
D42*
X177259998Y-85090000D02*
X183420001Y-85090000D01*
D43*
X204470000Y-63500000D02*
X207010000Y-63500000D01*
X175260000Y-83090001D02*
X175260000Y-64770000D01*
D42*
X45838153Y-38100000D02*
X37808056Y-46130097D01*
D43*
X124460000Y-83090001D02*
X124460000Y-64647500D01*
D42*
X69884000Y-96075000D02*
X69884000Y-94038041D01*
D41*
X67572792Y-93763792D02*
X69884000Y-96075000D01*
D43*
X95250000Y-63377500D02*
X96520000Y-63377500D01*
D41*
X63725036Y-92170000D02*
X49530000Y-92170000D01*
D43*
X173990000Y-63500000D02*
X176530000Y-63500000D01*
X113096250Y-63255000D02*
X115503750Y-63255000D01*
X145983750Y-63255000D02*
X147187500Y-63255000D01*
D42*
X187419998Y-85090000D02*
X183420001Y-85090000D01*
X62910000Y-46400000D02*
X56388942Y-46400000D01*
X77325787Y-86504212D02*
X69867000Y-93963000D01*
D43*
X135823750Y-63255000D02*
X137027500Y-63255000D01*
X93980000Y-64647500D02*
X93980000Y-83090001D01*
D42*
X146779998Y-85090000D02*
X152940001Y-85090000D01*
D43*
X185420000Y-64770000D02*
X185420000Y-83090001D01*
X143576250Y-63255000D02*
X145983750Y-63255000D01*
X166370000Y-63377500D02*
X167640000Y-63377500D01*
X196850000Y-63500000D02*
X198120000Y-63500000D01*
D42*
X80739998Y-85090000D02*
X91980001Y-85090000D01*
D43*
X125730000Y-63377500D02*
X127000000Y-63377500D01*
D42*
X91980001Y-85090000D02*
G75*
G03*
X93980000Y-83090001I-1J2000000D01*
G01*
D43*
X196850000Y-63500000D02*
G75*
G03*
X195580000Y-64770000I0J-1270000D01*
G01*
D42*
X122460001Y-85090000D02*
G75*
G03*
X124460000Y-83090001I-1J2000000D01*
G01*
X142780001Y-85090000D02*
G75*
G03*
X144780000Y-83090001I-1J2000000D01*
G01*
D43*
X165100000Y-83090001D02*
G75*
G03*
X167099998Y-85090000I2000000J1D01*
G01*
D42*
X69867000Y-93963000D02*
G75*
G03*
X69867000Y-93997000I17000J-17000D01*
G01*
D43*
X134620000Y-83090001D02*
G75*
G03*
X136619998Y-85090000I2000000J1D01*
G01*
X105343750Y-63377500D02*
G75*
G03*
X104140000Y-64581250I-50J-1203700D01*
G01*
X95250000Y-63377500D02*
G75*
G03*
X93980000Y-64647500I0J-1270000D01*
G01*
D42*
X69867000Y-93997000D02*
G75*
G02*
X69883983Y-94038041I-41000J-41000D01*
G01*
D43*
X175260000Y-83090001D02*
G75*
G03*
X177259998Y-85090000I2000000J1D01*
G01*
X125730000Y-63377500D02*
G75*
G03*
X124460000Y-64647500I0J-1270000D01*
G01*
D41*
X67572792Y-93763792D02*
G75*
G03*
X63725036Y-92169989I-3847792J-3847808D01*
G01*
D43*
X195580000Y-64770000D02*
G75*
G03*
X194310000Y-63500000I-1270000J0D01*
G01*
X165100000Y-64647500D02*
G75*
G03*
X163830000Y-63377500I-1270000J0D01*
G01*
X93980000Y-83090001D02*
G75*
G03*
X95979998Y-85090000I2000000J1D01*
G01*
X144780000Y-64458750D02*
G75*
G03*
X143576250Y-63255000I-1203800J-50D01*
G01*
X104140000Y-64581250D02*
G75*
G03*
X102936250Y-63377500I-1203800J-50D01*
G01*
X207010000Y-63500000D02*
G75*
G03*
X205740000Y-64770000I0J-1270000D01*
G01*
X124460000Y-64647500D02*
G75*
G03*
X123190000Y-63377500I-1270000J0D01*
G01*
X154940000Y-64647500D02*
G75*
G03*
X153670000Y-63377500I-1270000J0D01*
G01*
X104140000Y-83090001D02*
G75*
G03*
X106139998Y-85090000I2000000J1D01*
G01*
X166370000Y-63377500D02*
G75*
G03*
X165100000Y-64647500I0J-1270000D01*
G01*
X205740000Y-83090001D02*
G75*
G02*
X203740001Y-85090000I-2000000J1D01*
G01*
D42*
X183420001Y-85090000D02*
G75*
G03*
X185420000Y-83090001I-1J2000000D01*
G01*
D43*
X124460000Y-83090001D02*
G75*
G03*
X126459998Y-85090000I2000000J1D01*
G01*
D42*
X112300001Y-85090000D02*
G75*
G03*
X114300000Y-83090001I-1J2000000D01*
G01*
X77325787Y-86504212D02*
G75*
G03*
X78740007Y-83090001I-3414187J3414212D01*
G01*
D43*
X205740000Y-64770000D02*
G75*
G03*
X204470000Y-63500000I-1270000J0D01*
G01*
D42*
X193580001Y-85090000D02*
G75*
G03*
X195580000Y-83090001I-1J2000000D01*
G01*
X163100001Y-85090000D02*
G75*
G03*
X165100000Y-83090001I-1J2000000D01*
G01*
D43*
X144780000Y-83090001D02*
G75*
G03*
X146779998Y-85090000I2000000J1D01*
G01*
X176530000Y-63500000D02*
G75*
G03*
X175260000Y-64770000I0J-1270000D01*
G01*
X135823750Y-63255000D02*
G75*
G03*
X134620000Y-64458750I-50J-1203700D01*
G01*
X154940000Y-83090001D02*
G75*
G03*
X156939998Y-85090000I2000000J1D01*
G01*
X156210000Y-63377500D02*
G75*
G03*
X154940000Y-64647500I0J-1270000D01*
G01*
X186690000Y-63500000D02*
G75*
G03*
X185420000Y-64770000I0J-1270000D01*
G01*
D42*
X132620001Y-85090000D02*
G75*
G03*
X134620000Y-83090001I-1J2000000D01*
G01*
D43*
X175260000Y-64770000D02*
G75*
G03*
X173990000Y-63500000I-1270000J0D01*
G01*
X185420000Y-64770000D02*
G75*
G03*
X184150000Y-63500000I-1270000J0D01*
G01*
D42*
X152940001Y-85090000D02*
G75*
G03*
X154940000Y-83090001I-1J2000000D01*
G01*
D43*
X185420000Y-83090001D02*
G75*
G03*
X187419998Y-85090000I2000000J1D01*
G01*
D42*
X173260001Y-85090000D02*
G75*
G03*
X175260000Y-83090001I-1J2000000D01*
G01*
D43*
X145983750Y-63255000D02*
G75*
G03*
X144780000Y-64458750I-50J-1203700D01*
G01*
D42*
X102140001Y-85090000D02*
G75*
G03*
X104140000Y-83090001I-1J2000000D01*
G01*
D43*
X195580000Y-83090001D02*
G75*
G03*
X197579998Y-85090000I2000000J1D01*
G01*
X114300000Y-83090001D02*
G75*
G03*
X116299998Y-85090000I2000000J1D01*
G01*
X93980000Y-64647500D02*
G75*
G03*
X92710000Y-63377500I-1270000J0D01*
G01*
D42*
X78740000Y-83090001D02*
G75*
G03*
X80739998Y-85090000I2000000J1D01*
G01*
X80739998Y-85090000D02*
G75*
G03*
X77325793Y-86504218I2J-4828400D01*
G01*
D43*
X134620000Y-64458750D02*
G75*
G03*
X133416250Y-63255000I-1203800J-50D01*
G01*
X114300000Y-64458750D02*
G75*
G03*
X113096250Y-63255000I-1203800J-50D01*
G01*
X115503750Y-63255000D02*
G75*
G03*
X114300000Y-64458750I-50J-1203700D01*
G01*
D42*
%TO.N,Net-(F1-Pad1)*%
X25860000Y-52750000D02*
X27000000Y-52750000D01*
X22860000Y-57436036D02*
X22860000Y-55925218D01*
X27835000Y-63500000D02*
X29000000Y-63500000D01*
X23913898Y-53556101D02*
X23790000Y-53680000D01*
X24453792Y-61283792D02*
X25846220Y-62676220D01*
X25846220Y-62676220D02*
G75*
G03*
X27835000Y-63499988I1988780J1988820D01*
G01*
X22860000Y-57436036D02*
G75*
G03*
X24453790Y-61283794I5441550J-4D01*
G01*
X23790000Y-53680000D02*
G75*
G03*
X22860008Y-55925218I2245200J-2245200D01*
G01*
X25860000Y-52750000D02*
G75*
G03*
X23913899Y-53556102I0J-2752200D01*
G01*
D41*
%TO.N,NEUT*%
X72881329Y-82500000D02*
X49530000Y-82500000D01*
X74354000Y-81890000D02*
X74964000Y-81280000D01*
X74354000Y-81890000D02*
G75*
G02*
X72881329Y-82500012I-1472700J1472700D01*
G01*
D40*
%TO.N,+3.3V*%
X311150000Y-44450000D02*
X310565000Y-43865000D01*
D43*
X238760000Y-72390000D02*
X238760000Y-67310000D01*
D40*
X309060536Y-37979900D02*
X307914617Y-36833981D01*
X268255849Y-55682849D02*
X268103643Y-55835056D01*
X258541270Y-50800000D02*
X258732499Y-50800000D01*
D43*
X318770000Y-86360000D02*
X318770000Y-91440000D01*
D40*
X309980000Y-40610000D02*
X309980000Y-42390000D01*
D43*
X307615476Y-51804523D02*
X310854280Y-48565719D01*
X330200000Y-86360000D02*
X330200000Y-91440000D01*
D40*
X289560000Y-53340000D02*
X288925000Y-52705000D01*
D43*
X250190000Y-86360000D02*
X250190000Y-72390000D01*
D40*
X309980000Y-42390000D02*
X309980000Y-42452685D01*
X302349300Y-36359500D02*
X301732182Y-36359500D01*
D43*
X288925000Y-52705000D02*
X283204392Y-58425607D01*
X292588100Y-51237300D02*
X291490400Y-50139600D01*
D41*
X311150000Y-44450000D02*
X311150000Y-47539644D01*
D43*
X227330000Y-72390000D02*
X227330000Y-67310000D01*
D40*
X302413780Y-36359500D02*
X302741560Y-36359497D01*
D43*
X227330000Y-80645000D02*
X227330000Y-86360000D01*
X286767651Y-50547651D02*
X288925000Y-52705000D01*
X268072000Y-56324300D02*
X268072000Y-55956200D01*
D40*
X300574621Y-36838977D02*
X299161200Y-38252400D01*
X307033260Y-36709496D02*
X307614109Y-36709505D01*
X260146800Y-52339470D02*
X260146800Y-54717850D01*
D43*
X268332286Y-56952686D02*
X271399000Y-60019400D01*
X307340000Y-86360000D02*
X307340000Y-91440000D01*
D40*
X258541270Y-50800000D02*
X257898730Y-50800000D01*
D43*
X291490400Y-50139600D02*
X288925000Y-52705000D01*
X284480000Y-86360000D02*
X284480000Y-91440000D01*
D40*
X259695899Y-51250900D02*
X259607390Y-51162391D01*
D41*
X311125000Y-47600000D02*
X311100000Y-47625000D01*
D43*
X261620000Y-72390000D02*
X261620000Y-86360000D01*
X306334791Y-52335000D02*
X295238182Y-52335000D01*
D40*
X302413780Y-36359500D02*
X302349300Y-36359500D01*
X260623970Y-55194200D02*
X260623150Y-55194200D01*
D43*
X250190000Y-72390000D02*
X250190000Y-67310000D01*
X268072000Y-55911450D02*
X268072000Y-55956200D01*
D40*
X257898730Y-50800000D02*
X255210439Y-50800000D01*
X268699703Y-55499000D02*
X271246600Y-55499000D01*
D43*
X271399000Y-60019400D02*
X279356636Y-60019400D01*
X238760000Y-86360000D02*
X238760000Y-72390000D01*
X261620000Y-86360000D02*
X261620000Y-91440000D01*
D40*
X261435750Y-55530450D02*
X261772000Y-55866700D01*
X305385000Y-38100000D02*
X304282958Y-36997958D01*
D43*
X238760000Y-86360000D02*
X238760000Y-91440000D01*
X227330000Y-86360000D02*
X227330000Y-91440000D01*
D40*
X305385000Y-38100000D02*
X306593246Y-36891752D01*
D43*
X261620000Y-72390000D02*
X261620000Y-67310000D01*
D40*
X257898730Y-50800000D02*
X258541270Y-50800000D01*
X255072950Y-50856950D02*
X255016000Y-50913900D01*
D43*
X250190000Y-86360000D02*
X250190000Y-91440000D01*
X220670000Y-80645000D02*
X227330000Y-80645000D01*
D40*
X253241408Y-48260000D02*
X248920000Y-48260000D01*
D43*
X295910000Y-86360000D02*
X295910000Y-91440000D01*
X311100000Y-47972500D02*
X311100000Y-47625000D01*
X273050000Y-86360000D02*
X273050000Y-91440000D01*
D40*
X256307460Y-49530000D02*
X257350287Y-50572827D01*
X309980000Y-40199682D02*
X309980000Y-40610000D01*
D43*
X285750000Y-50547651D02*
X286767651Y-50547651D01*
X227330000Y-72390000D02*
X227330000Y-80645000D01*
X283204392Y-58425607D02*
G75*
G02*
X279356636Y-60019410I-3847792J3847807D01*
G01*
D40*
X256307460Y-49530000D02*
G75*
G03*
X253241408Y-48260008I-3066060J-3066100D01*
G01*
X257898730Y-50800000D02*
X257898730Y-50800000D01*
X259607390Y-51162391D02*
G75*
G03*
X258732499Y-50800005I-874890J-874909D01*
G01*
X268103643Y-55835056D02*
G75*
G03*
X268072024Y-55911450I76357J-76344D01*
G01*
X268699703Y-55499000D02*
G75*
G03*
X268255849Y-55682849I-3J-627700D01*
G01*
D43*
X268072000Y-56324300D02*
G75*
G03*
X268332280Y-56952692I888700J0D01*
G01*
X292588100Y-51237300D02*
G75*
G03*
X295238182Y-52335007I2650100J2650100D01*
G01*
X307615476Y-51804523D02*
G75*
G02*
X306334791Y-52334983I-1280676J1280723D01*
G01*
D40*
X307914617Y-36833981D02*
G75*
G03*
X307614109Y-36709503I-300517J-300519D01*
G01*
X261435750Y-55530450D02*
G75*
G03*
X260623970Y-55194212I-811750J-811750D01*
G01*
X309060536Y-37979900D02*
G75*
G02*
X309980026Y-40199682I-2219736J-2219800D01*
G01*
X307033260Y-36709496D02*
G75*
G03*
X306593262Y-36891768I40J-622304D01*
G01*
X260146800Y-54717850D02*
G75*
G03*
X260623150Y-55194200I476300J-50D01*
G01*
X259695899Y-51250900D02*
G75*
G02*
X260146812Y-52339470I-1088599J-1088600D01*
G01*
D41*
X311150000Y-47539644D02*
G75*
G02*
X311124987Y-47599987I-85400J44D01*
G01*
D40*
X301732182Y-36359500D02*
G75*
G03*
X300574638Y-36838994I18J-1637000D01*
G01*
X304282958Y-36997958D02*
G75*
G03*
X302741560Y-36359502I-1541358J-1541342D01*
G01*
X255210439Y-50800000D02*
G75*
G03*
X255072938Y-50856938I-39J-194400D01*
G01*
X309980000Y-42452685D02*
G75*
G03*
X310564996Y-43865004I1997300J-15D01*
G01*
D43*
X311100000Y-47972500D02*
G75*
G02*
X310854272Y-48565711I-838900J0D01*
G01*
D40*
X257350287Y-50572827D02*
G75*
G03*
X257898730Y-50799983I548413J548427D01*
G01*
%TO.N,+5V*%
X73890904Y-36523701D02*
X87006264Y-36523701D01*
D41*
X157480000Y-60005900D02*
X157480000Y-59182000D01*
D40*
X272059400Y-38355000D02*
X271219900Y-37515500D01*
D41*
X137882750Y-70019750D02*
X137027500Y-70875000D01*
X96564901Y-59353901D02*
X97421700Y-60210700D01*
X137160000Y-59359800D02*
X137160000Y-59866200D01*
X189665000Y-68209382D02*
X189665000Y-63737217D01*
X96520000Y-59182000D02*
X96520000Y-57880000D01*
D40*
X72510699Y-37095400D02*
X71939000Y-37667100D01*
D41*
X177200000Y-59818600D02*
X177200000Y-59385200D01*
D40*
X279490000Y-38355000D02*
X278649500Y-37514500D01*
D41*
X209769200Y-59293000D02*
X208407000Y-57930800D01*
X167640000Y-59942400D02*
X167640000Y-59131200D01*
D40*
X218592400Y-57293001D02*
X218592400Y-48368319D01*
D41*
X116840000Y-59929700D02*
X116840000Y-59359800D01*
X148974200Y-63348896D02*
X148974200Y-67824912D01*
X117689750Y-69892750D02*
X116707500Y-70875000D01*
D40*
X183565000Y-39370000D02*
X182834168Y-38639168D01*
D41*
X177200000Y-59385200D02*
X177200000Y-58125000D01*
X199010600Y-61288600D02*
X198567881Y-60845881D01*
D42*
X212471000Y-58476000D02*
X214630000Y-60635000D01*
D41*
X168505200Y-61618800D02*
X168213605Y-61327205D01*
X127789000Y-61110800D02*
X127358078Y-60679878D01*
X167640000Y-59131200D02*
X167640000Y-57880000D01*
D40*
X265434500Y-37515500D02*
X264594000Y-38356000D01*
D41*
X127000000Y-59309000D02*
X127000000Y-57880000D01*
D42*
X258077450Y-58431150D02*
X257690600Y-58818000D01*
D40*
X218147390Y-47352391D02*
X218188699Y-47393700D01*
D41*
X179632000Y-67992580D02*
X179632000Y-64403683D01*
X187960000Y-59258200D02*
X187960000Y-60042400D01*
D42*
X212471000Y-58445400D02*
X210693000Y-58445400D01*
D41*
X98323400Y-67918903D02*
X98323400Y-62387596D01*
D40*
X278649500Y-37514500D02*
X272899900Y-37514500D01*
D41*
X107402750Y-70142250D02*
X106547500Y-70997500D01*
X188514513Y-61381113D02*
X188812500Y-61679100D01*
X147320000Y-59182000D02*
X147320000Y-59853500D01*
D40*
X272899900Y-37514500D02*
X272059400Y-38355000D01*
D41*
X106680000Y-59080400D02*
X106680000Y-57880000D01*
X157480000Y-59182000D02*
X157480000Y-57880000D01*
X208280000Y-68124914D02*
X208280000Y-71120000D01*
D43*
X262272000Y-58166700D02*
X261272000Y-58166700D01*
D41*
X147320000Y-59182000D02*
X147320000Y-57880000D01*
X128578000Y-68303685D02*
X128578000Y-63015614D01*
X187960000Y-59258200D02*
X187960000Y-58002500D01*
X177506460Y-60558460D02*
X178416000Y-61468000D01*
X158383300Y-70094200D02*
X157480000Y-70997500D01*
X127789000Y-70208500D02*
X127000000Y-70997500D01*
X137160000Y-59359800D02*
X137160000Y-57880000D01*
D42*
X216592401Y-59293000D02*
X213917943Y-59293000D01*
D41*
X168505200Y-70132300D02*
X167640000Y-70997500D01*
X158062585Y-61412385D02*
X158383300Y-61733100D01*
X137518078Y-60730678D02*
X137949000Y-61161600D01*
X198120000Y-59131200D02*
X198120000Y-57930800D01*
D40*
X262305800Y-50436249D02*
X265455400Y-53585849D01*
X271219900Y-37515500D02*
X265434500Y-37515500D01*
D41*
X198120000Y-59131200D02*
X198120000Y-59764600D01*
D42*
X220592398Y-59293000D02*
X216592401Y-59293000D01*
D41*
X199901200Y-63438698D02*
X199901200Y-68079301D01*
X148080850Y-69981650D02*
X147187500Y-70875000D01*
D43*
X264113699Y-56824999D02*
X263125553Y-57813146D01*
D40*
X281735000Y-38355000D02*
X281940000Y-38150000D01*
D41*
X148147100Y-61352100D02*
X147794822Y-60999822D01*
X178716000Y-70204000D02*
X177800000Y-71120000D01*
X169370400Y-63707577D02*
X169370400Y-68043522D01*
D40*
X216919042Y-46948457D02*
X218147500Y-45720000D01*
X88794350Y-37264350D02*
X89535000Y-38005000D01*
D41*
X97421700Y-70095800D02*
X96520000Y-70997500D01*
X188812500Y-70267500D02*
X187960000Y-71120000D01*
D42*
X212471000Y-58445400D02*
X212894800Y-58869200D01*
D41*
X108258000Y-62990214D02*
X108258000Y-68077493D01*
X210007200Y-63955085D02*
X210007200Y-59699291D01*
X106680000Y-59688400D02*
X106680000Y-59080400D01*
X117242980Y-60902580D02*
X117756000Y-61415600D01*
X107109920Y-60726320D02*
X107469000Y-61085400D01*
D43*
X281940000Y-38150000D02*
X281837500Y-38252500D01*
D41*
X118672000Y-67521388D02*
X118672000Y-63627019D01*
X127000000Y-59309000D02*
X127000000Y-59815400D01*
X96520000Y-59245500D02*
X96520000Y-59182000D01*
D43*
X258253750Y-58254850D02*
X258077450Y-58431150D01*
D40*
X217272499Y-46990000D02*
X216818750Y-46990000D01*
X279490000Y-38355000D02*
X281735000Y-38355000D01*
D42*
X216592401Y-59293000D02*
X218321436Y-59292999D01*
D41*
X209769200Y-59293000D02*
X209888200Y-59412000D01*
D43*
X261272000Y-58166700D02*
X258466562Y-58166700D01*
D41*
X138738000Y-67954993D02*
X138738000Y-63066414D01*
D40*
X262305800Y-40644200D02*
X262305800Y-50436249D01*
D41*
X199010600Y-70229400D02*
X198120000Y-71120000D01*
X159286600Y-67913440D02*
X159286600Y-63913859D01*
X116840000Y-59359800D02*
X116840000Y-57880000D01*
D42*
X220592398Y-59293000D02*
X256543848Y-59293000D01*
X212471000Y-58445400D02*
X212471000Y-58476000D01*
D40*
X181532500Y-38100000D02*
X180770000Y-38100000D01*
X264594000Y-38356000D02*
X262305800Y-40644200D01*
D41*
X179632000Y-67992580D02*
G75*
G02*
X178716006Y-70204006I-3127400J-20D01*
G01*
D40*
X218188699Y-47393700D02*
G75*
G02*
X218592392Y-48368319I-974599J-974600D01*
G01*
D41*
X187960000Y-60042400D02*
G75*
G03*
X188514518Y-61381108I1893200J0D01*
G01*
X169370400Y-68043522D02*
G75*
G02*
X168505193Y-70132293I-2954000J22D01*
G01*
D43*
X281837500Y-38252500D02*
G75*
G02*
X281590043Y-38355018I-247500J247500D01*
G01*
D41*
X188812500Y-61679100D02*
G75*
G02*
X189664993Y-63737217I-2058100J-2058100D01*
G01*
X108258000Y-68077493D02*
G75*
G02*
X107402752Y-70142252I-2920000J-7D01*
G01*
X159286600Y-67913440D02*
G75*
G02*
X158383288Y-70094188I-3084100J40D01*
G01*
X128578000Y-68303685D02*
G75*
G02*
X127789004Y-70208504I-2693800J-15D01*
G01*
X127000000Y-59815400D02*
G75*
G03*
X127358069Y-60679887I1222600J0D01*
G01*
D43*
X258466562Y-58166700D02*
G75*
G03*
X258253761Y-58254861I38J-301000D01*
G01*
D40*
X218147390Y-47352391D02*
G75*
G03*
X217272499Y-46990005I-874890J-874909D01*
G01*
D41*
X118672000Y-67521388D02*
G75*
G02*
X117689753Y-69892753I-3353600J-12D01*
G01*
X209888200Y-59412000D02*
G75*
G02*
X210007204Y-59699291I-287300J-287300D01*
G01*
X137160000Y-59866200D02*
G75*
G03*
X137518069Y-60730687I1222600J0D01*
G01*
X210007200Y-63955085D02*
G75*
G02*
X209143604Y-66040004I-2948500J-15D01*
G01*
X177200000Y-59818600D02*
G75*
G03*
X177506464Y-60558456I1046300J0D01*
G01*
X97421700Y-60210700D02*
G75*
G02*
X98323402Y-62387596I-2176900J-2176900D01*
G01*
X117756000Y-61415600D02*
G75*
G02*
X118671992Y-63627019I-2211400J-2211400D01*
G01*
D40*
X216919042Y-46948457D02*
G75*
G02*
X216818750Y-46990045I-100342J100257D01*
G01*
D42*
X257690600Y-58818000D02*
G75*
G02*
X256543848Y-59293020I-1146800J1146800D01*
G01*
X212894800Y-58869200D02*
G75*
G03*
X213917943Y-59292953I1023100J1023200D01*
G01*
D40*
X216818750Y-46990000D02*
X216818750Y-46990000D01*
D41*
X106680000Y-59688400D02*
G75*
G03*
X107109929Y-60726311I1467800J0D01*
G01*
X147320000Y-59853500D02*
G75*
G03*
X147794831Y-60999813I1621100J0D01*
G01*
D43*
X263125553Y-57813146D02*
G75*
G02*
X262272000Y-58166701I-853553J853546D01*
G01*
D40*
X218592400Y-57293001D02*
G75*
G03*
X220592398Y-59293000I2000000J1D01*
G01*
D41*
X98323400Y-67918903D02*
G75*
G02*
X97421699Y-70095799I-3078600J3D01*
G01*
D40*
X88794350Y-37264350D02*
G75*
G03*
X87006264Y-36523715I-1788050J-1788050D01*
G01*
D41*
X157480000Y-60005900D02*
G75*
G03*
X158062579Y-61412391I1989100J0D01*
G01*
X199901200Y-68079301D02*
G75*
G02*
X199010600Y-70229400I-3040700J1D01*
G01*
X96520000Y-59245500D02*
G75*
G03*
X96564902Y-59353900I153300J0D01*
G01*
D42*
X218321436Y-59292999D02*
G75*
G03*
X218592399Y-59022036I-36J270999D01*
G01*
D41*
X107469000Y-61085400D02*
G75*
G02*
X108257994Y-62990214I-1904800J-1904800D01*
G01*
X137949000Y-61161600D02*
G75*
G02*
X138737994Y-63066414I-1904800J-1904800D01*
G01*
X158383300Y-61733100D02*
G75*
G02*
X159286617Y-63913859I-2180800J-2180800D01*
G01*
X148147100Y-61352100D02*
G75*
G02*
X148974202Y-63348896I-1996800J-1996800D01*
G01*
D40*
X73890904Y-36523701D02*
G75*
G03*
X72510698Y-37095399I-4J-1951899D01*
G01*
X182834168Y-38639168D02*
G75*
G03*
X181532500Y-38099989I-1301668J-1301632D01*
G01*
D41*
X168505200Y-61618800D02*
G75*
G02*
X169370409Y-63707577I-2088800J-2088800D01*
G01*
X167640000Y-59942400D02*
G75*
G03*
X168213607Y-61327203I1958400J0D01*
G01*
D43*
X265455400Y-53585849D02*
G75*
G02*
X264113685Y-56824985I-4580900J49D01*
G01*
D41*
X189665000Y-68209382D02*
G75*
G02*
X188812505Y-70267505I-2910600J-18D01*
G01*
X127789000Y-61110800D02*
G75*
G02*
X128577994Y-63015614I-1904800J-1904800D01*
G01*
X116840000Y-59929700D02*
G75*
G03*
X117242972Y-60902588I1375900J0D01*
G01*
X198120000Y-59764600D02*
G75*
G03*
X198567873Y-60845889I1529200J0D01*
G01*
X199010600Y-61288600D02*
G75*
G02*
X199901201Y-63438698I-2150100J-2150100D01*
G01*
X148974200Y-67824912D02*
G75*
G02*
X148080846Y-69981646I-3050100J12D01*
G01*
X138738000Y-67954993D02*
G75*
G02*
X137882752Y-70019752I-2920000J-7D01*
G01*
X209143600Y-66040000D02*
G75*
G03*
X208280006Y-68124914I2084900J-2084900D01*
G01*
X178416000Y-61468000D02*
G75*
G02*
X179632007Y-64403683I-2935700J-2935700D01*
G01*
D44*
%TO.N,Net-(J6-Pin_1)*%
X26500000Y-90000000D02*
X26500000Y-95500000D01*
X26500000Y-89250000D02*
X26500000Y-90000000D01*
X27030330Y-87969669D02*
X29000000Y-86000000D01*
X27030330Y-87969669D02*
G75*
G03*
X26500011Y-89250000I1280370J-1280331D01*
G01*
D40*
%TO.N,NEOPIXEL*%
X298963798Y-43084198D02*
X299467276Y-43587676D01*
X293036406Y-47001406D02*
X284390000Y-38355000D01*
X298550000Y-42085200D02*
X298550000Y-41500000D01*
X296660593Y-47001406D02*
X299467276Y-44194723D01*
X299467276Y-43587676D02*
G75*
G02*
X299592985Y-43891200I-303576J-303524D01*
G01*
X296660593Y-47001406D02*
G75*
G02*
X294848500Y-47751996I-1812093J1812106D01*
G01*
X298550000Y-42085200D02*
G75*
G03*
X298963798Y-43084198I1412800J0D01*
G01*
X293036406Y-47001406D02*
G75*
G03*
X294848500Y-47751996I1812094J1812106D01*
G01*
X299593000Y-43891200D02*
G75*
G02*
X299467287Y-44194734I-429300J0D01*
G01*
%TO.N,SCL*%
X297280000Y-38520617D02*
X297280000Y-41500000D01*
X297280000Y-42072500D02*
X297280000Y-41500000D01*
X296790657Y-38082942D02*
X296621200Y-38252400D01*
X250850400Y-49276000D02*
X250850400Y-50524383D01*
X250307390Y-51707607D02*
X250397699Y-51617299D01*
X296790657Y-37736057D02*
X296017950Y-36963350D01*
X296790657Y-37736057D02*
X296934342Y-37879742D01*
X296934342Y-37879742D02*
X297071250Y-38016650D01*
X298450000Y-43815000D02*
X297684818Y-43049818D01*
X261801938Y-36118800D02*
X293979025Y-36118800D01*
X260197600Y-37058600D02*
X260667500Y-36588700D01*
X249432499Y-52070000D02*
X248920000Y-52070000D01*
X297280000Y-42072500D02*
G75*
G03*
X297684826Y-43049810I1382100J0D01*
G01*
X261801938Y-36118800D02*
G75*
G03*
X260667489Y-36588689I-38J-1604300D01*
G01*
X297071250Y-38016650D02*
G75*
G02*
X297279993Y-38520617I-503950J-503950D01*
G01*
X250850400Y-50524383D02*
G75*
G02*
X250397704Y-51617304I-1545600J-17D01*
G01*
X296017950Y-36963350D02*
G75*
G03*
X293979025Y-36118789I-2038950J-2038950D01*
G01*
X296934342Y-37879742D02*
G75*
G03*
X296862527Y-37909500I-29742J-29758D01*
G01*
X250307390Y-51707607D02*
G75*
G02*
X249432499Y-52069993I-874890J874907D01*
G01*
X296862500Y-37909500D02*
G75*
G02*
X296790661Y-38082946I-245300J0D01*
G01*
X296862500Y-37909500D02*
G75*
G03*
X296790660Y-37736054I-245300J0D01*
G01*
%TO.N,SDA*%
X252349000Y-50271099D02*
X252349000Y-49606200D01*
X261518400Y-37209723D02*
X261518400Y-39380211D01*
X249432499Y-53340000D02*
X248920000Y-53340000D01*
X251878844Y-51406153D02*
X250307390Y-52977608D01*
X296545000Y-43815000D02*
X296277500Y-43547500D01*
X294017203Y-38244441D02*
X292749031Y-36976269D01*
X294140388Y-38252400D02*
X294081200Y-38252400D01*
X296010000Y-42901697D02*
X296010000Y-40809500D01*
X260807200Y-41097200D02*
X260096000Y-41808400D01*
X295612888Y-39724900D02*
X294140388Y-38252400D01*
X292352217Y-36906200D02*
X261821923Y-36906200D01*
X296277500Y-43547500D02*
G75*
G02*
X296010001Y-42901697I645800J645800D01*
G01*
X250307390Y-52977608D02*
G75*
G02*
X249432499Y-53339994I-874890J874908D01*
G01*
X261518400Y-39380211D02*
G75*
G02*
X260807197Y-41097197I-2428200J11D01*
G01*
X261821923Y-36906200D02*
G75*
G03*
X261607293Y-36995093I-23J-303500D01*
G01*
X296010000Y-40809500D02*
G75*
G03*
X295612904Y-39724887I-1691800J-4400D01*
G01*
X292749031Y-36976269D02*
G75*
G03*
X292352217Y-36906187I-426831J-1258331D01*
G01*
X261607300Y-36995100D02*
G75*
G03*
X261518410Y-37209723I214600J-214600D01*
G01*
X252349000Y-50271099D02*
G75*
G02*
X251878843Y-51406152I-1605200J-1D01*
G01*
D41*
%TO.N,RELAIS1*%
X154486500Y-57930000D02*
X154940000Y-57930000D01*
X151104600Y-69702100D02*
X152400000Y-70997500D01*
D40*
X154743206Y-48583792D02*
X154400192Y-48926807D01*
D41*
X152193100Y-59769900D02*
X151307800Y-60655200D01*
X153419699Y-58543299D02*
X152193100Y-59769900D01*
D40*
X158590963Y-46990000D02*
X180770000Y-46990000D01*
X152806400Y-58289262D02*
X152806400Y-52774563D01*
D41*
X153419699Y-58543299D02*
X153712327Y-58250672D01*
X149809200Y-64273140D02*
X149809200Y-66574727D01*
D40*
X158590963Y-46990000D02*
G75*
G03*
X154743215Y-48583801I37J-5441600D01*
G01*
X152806400Y-58289262D02*
G75*
G03*
X153419763Y-58543363I359300J-38D01*
G01*
X154400192Y-48926807D02*
G75*
G03*
X152806359Y-52774563I3847708J-3847793D01*
G01*
D41*
X152193100Y-59769900D02*
G75*
G03*
X152806385Y-58289262I-1480600J1480600D01*
G01*
X154486500Y-57930000D02*
G75*
G03*
X153712337Y-58250682I0J-1094800D01*
G01*
X151307800Y-60655200D02*
G75*
G03*
X149809217Y-64273140I3617900J-3617900D01*
G01*
X149809200Y-66574727D02*
G75*
G03*
X151104608Y-69702092I4422800J27D01*
G01*
%TO.N,RELAIS3*%
X130680250Y-69607750D02*
X131947500Y-70875000D01*
D40*
X140607763Y-44450000D02*
X180770000Y-44450000D01*
D41*
X129413000Y-66548337D02*
X129413000Y-64255363D01*
D40*
X133826192Y-48977607D02*
X136760007Y-46043792D01*
D41*
X131006792Y-60407606D02*
X133082904Y-58331495D01*
D40*
X132858400Y-57304000D02*
X133082904Y-57528504D01*
D41*
X134052200Y-57930000D02*
X134620000Y-57930000D01*
D40*
X132232400Y-52825363D02*
X132232400Y-55792702D01*
X133826192Y-48977607D02*
G75*
G03*
X132232359Y-52825363I3847708J-3847793D01*
G01*
D41*
X134052200Y-57930000D02*
G75*
G03*
X133082903Y-58331494I0J-1370800D01*
G01*
X129413000Y-66548337D02*
G75*
G03*
X130680261Y-69607739I4326700J37D01*
G01*
D40*
X132232400Y-55792702D02*
G75*
G03*
X132858401Y-57303999I2137300J2D01*
G01*
D41*
X131006792Y-60407606D02*
G75*
G03*
X129412988Y-64255363I3847808J-3847794D01*
G01*
D40*
X133082904Y-57528504D02*
G75*
G03*
X134052200Y-57929997I969296J969304D01*
G01*
X140607763Y-44450000D02*
G75*
G03*
X136760036Y-46043821I37J-5441500D01*
G01*
D41*
X133082904Y-58331495D02*
G75*
G03*
X133082904Y-57528504I-401504J401495D01*
G01*
D40*
%TO.N,RELAIS5*%
X113963392Y-48926807D02*
X119386407Y-43503792D01*
D41*
X109093000Y-66548337D02*
X109093000Y-63679960D01*
X110585250Y-60077350D02*
X111931450Y-58731150D01*
D40*
X123234163Y-41910000D02*
X180770000Y-41910000D01*
X112369600Y-58222100D02*
X112405050Y-58257550D01*
D41*
X113195825Y-57930000D02*
X114300000Y-57930000D01*
X111931450Y-58731150D02*
X112223550Y-58439050D01*
X110360250Y-69607750D02*
X111627500Y-70875000D01*
D40*
X112369600Y-52774563D02*
X112369600Y-58222100D01*
D41*
X112405050Y-58257550D02*
X112223550Y-58439050D01*
X113195825Y-57930000D02*
G75*
G03*
X112405042Y-58257542I-25J-1118300D01*
G01*
D40*
X119386407Y-43503792D02*
G75*
G02*
X123234163Y-41909959I3847793J-3847708D01*
G01*
X112369600Y-52774563D02*
G75*
G02*
X113963421Y-48926836I5441500J-37D01*
G01*
D41*
X110585250Y-60077350D02*
G75*
G03*
X109092984Y-63679960I3602650J-3602650D01*
G01*
X109093000Y-66548337D02*
G75*
G03*
X110360261Y-69607739I4326700J37D01*
G01*
%TO.N,RELAIS7*%
X88696800Y-66314564D02*
X88696800Y-64331563D01*
X90068400Y-69625900D02*
X91440000Y-70997500D01*
X92442904Y-58331495D02*
X90290592Y-60483807D01*
X93412200Y-57930000D02*
X93980000Y-57930000D01*
D40*
X91490800Y-52571363D02*
X91490800Y-55619260D01*
X93084592Y-48723607D02*
X100844407Y-40963792D01*
X92442904Y-57528504D02*
X92167600Y-57253200D01*
X104692163Y-39370000D02*
X180770000Y-39370000D01*
X92442904Y-57528504D02*
G75*
G03*
X93412200Y-57929997I969296J969304D01*
G01*
D41*
X90290592Y-60483807D02*
G75*
G03*
X88696759Y-64331563I3847708J-3847793D01*
G01*
X93412200Y-57930000D02*
G75*
G03*
X92442903Y-58331494I0J-1370800D01*
G01*
D40*
X93084592Y-48723607D02*
G75*
G03*
X91490759Y-52571363I3847708J-3847793D01*
G01*
X91490800Y-55619260D02*
G75*
G03*
X92167588Y-57253212I2310700J-40D01*
G01*
D41*
X92442904Y-58331495D02*
G75*
G03*
X92442904Y-57528504I-401504J401495D01*
G01*
D40*
X104692163Y-39370000D02*
G75*
G03*
X100844436Y-40963821I37J-5441500D01*
G01*
D41*
X88696800Y-66314564D02*
G75*
G03*
X90068390Y-69625910I4682900J-36D01*
G01*
%TO.N,RELAIS9*%
X181673500Y-69913500D02*
X182880000Y-71120000D01*
X180467000Y-67000751D02*
X180467000Y-62360081D01*
X184828161Y-58052500D02*
X185420000Y-58052500D01*
D40*
X183972200Y-58191400D02*
X184017050Y-58236250D01*
X185743598Y-50571400D02*
X193065618Y-50571400D01*
X195579781Y-49530000D02*
X216760000Y-49530000D01*
D41*
X184384550Y-58236250D02*
X184017050Y-58603750D01*
X184017050Y-58603750D02*
X180428900Y-62191900D01*
D40*
X183743600Y-57639510D02*
X183743600Y-52571398D01*
D41*
X180467000Y-67000751D02*
G75*
G03*
X181673486Y-69913514I4119200J-49D01*
G01*
D40*
X183743600Y-57639510D02*
G75*
G03*
X183972203Y-58191397I780500J10D01*
G01*
D41*
X184828161Y-58052500D02*
G75*
G03*
X184384561Y-58236261I39J-627400D01*
G01*
D40*
X184017050Y-58236250D02*
G75*
G03*
X184384550Y-58236250I183750J183753D01*
G01*
D41*
X180428900Y-62191900D02*
G75*
G03*
X180428900Y-62268100I38100J-38100D01*
G01*
D40*
X195579781Y-49530000D02*
G75*
G03*
X194322706Y-50050706I19J-1777800D01*
G01*
X185743598Y-50571400D02*
G75*
G03*
X183743600Y-52571398I2J-2000000D01*
G01*
X194322700Y-50050700D02*
G75*
G02*
X193065618Y-50571408I-1257100J1257100D01*
G01*
D41*
X180428900Y-62268100D02*
G75*
G02*
X180467008Y-62360081I-92000J-92000D01*
G01*
X184017050Y-58603750D02*
G75*
G03*
X184017050Y-58236250I-183750J183750D01*
G01*
D40*
%TO.N,RELAIS0*%
X163769186Y-57582386D02*
X163389200Y-57202400D01*
D41*
X164608400Y-57930000D02*
X165100000Y-57930000D01*
X160121600Y-66834890D02*
X160121600Y-62406523D01*
X163769186Y-58277613D02*
X160032700Y-62014100D01*
D40*
X166433964Y-48260000D02*
X180770000Y-48260000D01*
D41*
X161340800Y-69778300D02*
X162560000Y-70997500D01*
D40*
X162661600Y-55445818D02*
X162661600Y-52032364D01*
X163766500Y-49364900D02*
G75*
G03*
X162661585Y-52032364I2667500J-2667500D01*
G01*
D41*
X160032700Y-62191900D02*
G75*
G02*
X160121590Y-62406523I-214600J-214600D01*
G01*
D40*
X162661600Y-55445818D02*
G75*
G03*
X163389205Y-57202395I2484200J18D01*
G01*
D41*
X160121600Y-66834890D02*
G75*
G03*
X161340797Y-69778303I4162600J-10D01*
G01*
X164608400Y-57930000D02*
G75*
G03*
X163769192Y-58277619I0J-1186800D01*
G01*
D40*
X163769186Y-57582386D02*
G75*
G03*
X164608400Y-57930008I839214J839186D01*
G01*
D41*
X160032700Y-62014100D02*
G75*
G03*
X160032700Y-62191900I88900J-88900D01*
G01*
D40*
X166433964Y-48260000D02*
G75*
G03*
X163766510Y-49364910I36J-3772400D01*
G01*
D41*
X163769186Y-58277613D02*
G75*
G03*
X163769186Y-57582387I-347586J347613D01*
G01*
%TO.N,RELAIS2*%
X139573000Y-64128363D02*
X139573000Y-66548337D01*
D40*
X142849600Y-56789994D02*
X142849600Y-52774563D01*
D41*
X141166792Y-60280607D02*
X143183500Y-58263900D01*
D40*
X146056406Y-47313792D02*
X144443392Y-48926807D01*
X149904163Y-45720000D02*
X180770000Y-45720000D01*
D41*
X143989605Y-57930000D02*
X144780000Y-57930000D01*
X140840250Y-69607750D02*
X142107500Y-70875000D01*
X143183500Y-58263900D02*
G75*
G03*
X143183500Y-57596100I-333900J333900D01*
G01*
D40*
X144443392Y-48926807D02*
G75*
G03*
X142849559Y-52774563I3847708J-3847793D01*
G01*
D41*
X141166792Y-60280607D02*
G75*
G03*
X139572959Y-64128363I3847708J-3847793D01*
G01*
D40*
X149904163Y-45720000D02*
G75*
G03*
X146056415Y-47313801I37J-5441600D01*
G01*
X143183500Y-57596100D02*
G75*
G03*
X143989605Y-57929998I806100J806100D01*
G01*
X142849600Y-56789994D02*
G75*
G03*
X143183498Y-57596102I1140000J-6D01*
G01*
D41*
X143989605Y-57930000D02*
G75*
G03*
X143183498Y-58263898I-5J-1140000D01*
G01*
X139573000Y-66548337D02*
G75*
G03*
X140840261Y-69607739I4326700J37D01*
G01*
D40*
%TO.N,RELAIS4*%
X132098763Y-43180000D02*
X180770000Y-43180000D01*
D41*
X119430800Y-61671200D02*
X122774600Y-58327400D01*
D40*
X128251007Y-44773792D02*
X123970992Y-49053807D01*
D41*
X120713500Y-69791000D02*
X121920000Y-70997500D01*
X123734008Y-57930000D02*
X124460000Y-57930000D01*
D40*
X122377200Y-56573191D02*
X122377200Y-52901563D01*
D41*
X119507000Y-62007563D02*
X119507000Y-66878251D01*
X119430800Y-61671200D02*
G75*
G03*
X119430800Y-61823600I76200J-76200D01*
G01*
X119430800Y-61823600D02*
G75*
G02*
X119507015Y-62007563I-184000J-184000D01*
G01*
D40*
X123970992Y-49053807D02*
G75*
G03*
X122377159Y-52901563I3847708J-3847793D01*
G01*
X132098763Y-43180000D02*
G75*
G03*
X128251036Y-44773821I37J-5441500D01*
G01*
X122377200Y-56573191D02*
G75*
G03*
X122774598Y-57532602I1356800J-9D01*
G01*
D41*
X122774600Y-58327400D02*
G75*
G03*
X122774600Y-57532600I-397400J397400D01*
G01*
X123734008Y-57930000D02*
G75*
G03*
X122774598Y-58327398I-8J-1356800D01*
G01*
X119507000Y-66878251D02*
G75*
G03*
X120713486Y-69791014I4119200J-49D01*
G01*
D40*
X122774600Y-57532600D02*
G75*
G03*
X123734008Y-57929996I959400J959400D01*
G01*
%TO.N,RELAIS6*%
X101701600Y-56052865D02*
X101701600Y-52672963D01*
X102251400Y-57380200D02*
X102327862Y-57456662D01*
X103295392Y-48825207D02*
X109886807Y-42233792D01*
D41*
X103470600Y-57930000D02*
X104140000Y-57930000D01*
D40*
X113734563Y-40640000D02*
X180770000Y-40640000D01*
D41*
X101110992Y-59620206D02*
X102327862Y-58403337D01*
X99517200Y-63467963D02*
X99517200Y-67668129D01*
X100492350Y-70022350D02*
X101467500Y-70997500D01*
D40*
X113734563Y-40640000D02*
G75*
G03*
X109886836Y-42233821I37J-5441500D01*
G01*
D41*
X101110992Y-59620206D02*
G75*
G03*
X99517188Y-63467963I3847808J-3847794D01*
G01*
X103470600Y-57930000D02*
G75*
G03*
X102327857Y-58403332I0J-1616100D01*
G01*
D40*
X101701600Y-56052865D02*
G75*
G03*
X102251390Y-57380210I1877100J-35D01*
G01*
X103295392Y-48825207D02*
G75*
G03*
X101701559Y-52672963I3847708J-3847793D01*
G01*
D41*
X99517200Y-67668129D02*
G75*
G03*
X100492359Y-70022341I3329400J29D01*
G01*
D40*
X102327862Y-57456662D02*
G75*
G03*
X103470600Y-57929993I1142738J1142762D01*
G01*
D41*
X102327862Y-58403337D02*
G75*
G03*
X102327862Y-57456662I-473362J473337D01*
G01*
D40*
%TO.N,RELAIS8*%
X173145450Y-58235850D02*
X173403950Y-58494350D01*
X173738333Y-49682400D02*
X192466011Y-49682400D01*
X172567600Y-56840796D02*
X172567600Y-50853133D01*
D41*
X173403949Y-59133049D02*
X171799192Y-60737807D01*
X174042649Y-58494349D02*
X173403949Y-59133049D01*
X174042649Y-58494349D02*
X174256641Y-58280358D01*
X174511000Y-58175000D02*
X174660000Y-58175000D01*
X170205400Y-66827309D02*
X170205400Y-64585563D01*
D40*
X195899988Y-48260000D02*
X216760000Y-48260000D01*
D41*
X171462700Y-69862700D02*
X172720000Y-71120000D01*
X173403949Y-59133049D02*
G75*
G03*
X173403949Y-58494351I-319349J319349D01*
G01*
D40*
X194183000Y-48971200D02*
G75*
G02*
X192466011Y-49682405I-1717000J1717000D01*
G01*
X172567600Y-56840796D02*
G75*
G03*
X173145449Y-58235851I1972900J-4D01*
G01*
D41*
X170205400Y-66827309D02*
G75*
G03*
X171462703Y-69862697I4292700J9D01*
G01*
D40*
X173403950Y-58494350D02*
G75*
G03*
X174042650Y-58494350I319350J319350D01*
G01*
D41*
X171799192Y-60737807D02*
G75*
G03*
X170205359Y-64585563I3847708J-3847793D01*
G01*
D40*
X172910500Y-50025300D02*
G75*
G03*
X172567614Y-50853133I827800J-827800D01*
G01*
D41*
X174511000Y-58175000D02*
G75*
G03*
X174256645Y-58280362I0J-359700D01*
G01*
D40*
X173738333Y-49682400D02*
G75*
G03*
X172910490Y-50025290I-33J-1170700D01*
G01*
X195899988Y-48260000D02*
G75*
G03*
X194183003Y-48971203I12J-2428200D01*
G01*
D41*
%TO.N,Net-(D2-A)*%
X167640000Y-55880000D02*
X165100000Y-55880000D01*
%TO.N,Net-(D3-A)*%
X157480000Y-55880000D02*
X154940000Y-55880000D01*
%TO.N,Net-(D4-A)*%
X147320000Y-55880000D02*
X144780000Y-55880000D01*
%TO.N,Net-(D5-A)*%
X137160000Y-55880000D02*
X134620000Y-55880000D01*
%TO.N,Net-(D6-A)*%
X127000000Y-55880000D02*
X124460000Y-55880000D01*
%TO.N,Net-(D7-A)*%
X116840000Y-55880000D02*
X114300000Y-55880000D01*
%TO.N,Net-(D8-A)*%
X106680000Y-55880000D02*
X104140000Y-55880000D01*
%TO.N,Net-(D9-A)*%
X96520000Y-55880000D02*
X93980000Y-55880000D01*
%TO.N,Net-(D10-A)*%
X177200000Y-56125000D02*
X174660000Y-56125000D01*
%TO.N,Net-(D11-A)*%
X187960000Y-56002500D02*
X185420000Y-56002500D01*
D40*
%TO.N,ONEWIRE*%
X252730000Y-72390000D02*
X252730000Y-67310000D01*
X252730000Y-72390000D02*
X252730000Y-86360000D01*
X264160000Y-91440000D02*
X262712810Y-92887190D01*
X267387285Y-93330500D02*
X273113024Y-93330500D01*
X251298447Y-92871553D02*
X252730000Y-91440000D01*
X278817285Y-93330500D02*
X284498887Y-93330500D01*
X307546326Y-93330500D02*
X301677285Y-93330500D01*
D41*
X297280000Y-58500000D02*
X297280000Y-84362685D01*
D40*
X250190451Y-93330500D02*
X244527285Y-93330500D01*
X275590000Y-91440000D02*
X276535250Y-92385250D01*
X298450000Y-91440000D02*
X298450000Y-87187314D01*
X321310000Y-91440000D02*
X321310000Y-86360000D01*
X309880000Y-91440000D02*
X310825250Y-92385250D01*
X313107285Y-93330500D02*
X318870274Y-93330500D01*
X319807861Y-92942139D02*
X321310000Y-91440000D01*
X264160000Y-86360000D02*
X264160000Y-72390000D01*
X285575410Y-92884590D02*
X287020000Y-91440000D01*
X264160000Y-72390000D02*
X264160000Y-67310000D01*
X255957285Y-93330500D02*
X261642565Y-93330500D01*
X275590000Y-91440000D02*
X275590000Y-86360000D01*
X252730000Y-91440000D02*
X252730000Y-86360000D01*
X298450000Y-91440000D02*
X299395250Y-92385250D01*
X241300000Y-72390000D02*
X241300000Y-67310000D01*
X275590000Y-91440000D02*
X274114201Y-92915799D01*
X252730000Y-91440000D02*
X253675250Y-92385250D01*
X233097285Y-93330500D02*
X238776512Y-93330500D01*
X309880000Y-91440000D02*
X309880000Y-86360000D01*
X264160000Y-91440000D02*
X264160000Y-86360000D01*
X295899929Y-93330500D02*
X290247285Y-93330500D01*
X230815250Y-92385250D02*
X229870000Y-91440000D01*
X264160000Y-91440000D02*
X265105250Y-92385250D01*
X297025887Y-92864113D02*
X298450000Y-91440000D01*
X229870000Y-86360000D02*
X229870000Y-72390000D01*
X308302871Y-93017129D02*
X309880000Y-91440000D01*
X324537285Y-93330500D02*
X330199589Y-93330500D01*
X287020000Y-91440000D02*
X287020000Y-86360000D01*
X287020000Y-91440000D02*
X287965250Y-92385250D01*
X229870000Y-72390000D02*
X229870000Y-67310000D01*
X331309056Y-92870944D02*
X332740000Y-91440000D01*
X332740000Y-91440000D02*
X332740000Y-86360000D01*
X239857090Y-92882910D02*
X241300000Y-91440000D01*
X322255250Y-92385250D02*
X321310000Y-91440000D01*
X241300000Y-91440000D02*
X241300000Y-86360000D01*
X241300000Y-91440000D02*
X242245250Y-92385250D01*
X229870000Y-86360000D02*
X229870000Y-91440000D01*
X241300000Y-72390000D02*
X241300000Y-86360000D01*
X276535250Y-92385250D02*
G75*
G03*
X278817285Y-93330506I2282050J2282050D01*
G01*
X331309056Y-92870944D02*
G75*
G02*
X330199589Y-93330499I-1109456J1109444D01*
G01*
X262712810Y-92887190D02*
G75*
G02*
X261642565Y-93330462I-1070210J1070290D01*
G01*
X297025887Y-92864113D02*
G75*
G02*
X295899929Y-93330534I-1125987J1125913D01*
G01*
X251298447Y-92871553D02*
G75*
G02*
X250190451Y-93330478I-1107947J1107953D01*
G01*
X230815250Y-92385250D02*
G75*
G03*
X233097285Y-93330506I2282050J2282050D01*
G01*
X285575410Y-92884590D02*
G75*
G02*
X284498887Y-93330501I-1076510J1076490D01*
G01*
X253675250Y-92385250D02*
G75*
G03*
X255957285Y-93330506I2282050J2282050D01*
G01*
X322255250Y-92385250D02*
G75*
G03*
X324537285Y-93330506I2282050J2282050D01*
G01*
D41*
X297280000Y-84362685D02*
G75*
G03*
X297864996Y-85775004I1997300J-15D01*
G01*
D40*
X299395250Y-92385250D02*
G75*
G03*
X301677285Y-93330506I2282050J2282050D01*
G01*
X242245250Y-92385250D02*
G75*
G03*
X244527285Y-93330506I2282050J2282050D01*
G01*
X308302871Y-93017129D02*
G75*
G02*
X307546326Y-93330523I-756571J756529D01*
G01*
X239857090Y-92882910D02*
G75*
G02*
X238776512Y-93330499I-1080590J1080610D01*
G01*
X319807861Y-92942139D02*
G75*
G02*
X318870274Y-93330467I-937561J937639D01*
G01*
X265105250Y-92385250D02*
G75*
G03*
X267387285Y-93330506I2282050J2282050D01*
G01*
X287965250Y-92385250D02*
G75*
G03*
X290247285Y-93330506I2282050J2282050D01*
G01*
D41*
X297865000Y-85775000D02*
G75*
G02*
X298449994Y-87187314I-1412300J-1412300D01*
G01*
D40*
X310825250Y-92385250D02*
G75*
G03*
X313107285Y-93330506I2282050J2282050D01*
G01*
X274114201Y-92915799D02*
G75*
G02*
X273113024Y-93330511I-1001201J1001199D01*
G01*
%TO.N,S3*%
X194088157Y-39947441D02*
X191133351Y-42902248D01*
X239985836Y-38655600D02*
X197206935Y-38655600D01*
X190462800Y-43180000D02*
X190070000Y-43180000D01*
X247207100Y-41910000D02*
X248920000Y-41910000D01*
X243833592Y-40249392D02*
X244282996Y-40698796D01*
X243833592Y-40249392D02*
G75*
G03*
X239985836Y-38655589I-3847792J-3847808D01*
G01*
X191133351Y-42902248D02*
G75*
G02*
X190462800Y-43180000I-670551J670548D01*
G01*
X197206935Y-38655600D02*
G75*
G03*
X194088143Y-39947427I-35J-4410600D01*
G01*
X244282996Y-40698796D02*
G75*
G03*
X247207100Y-41910002I2924104J2924096D01*
G01*
%TO.N,S2*%
X247535700Y-40640000D02*
X248920000Y-40640000D01*
X190602500Y-41910000D02*
X190070000Y-41910000D01*
X241771988Y-38074600D02*
X197224363Y-38074600D01*
X245172552Y-39661152D02*
X244868700Y-39357300D01*
X193376606Y-39668392D02*
X191511534Y-41533465D01*
X244868700Y-39357300D02*
G75*
G03*
X241771988Y-38074605I-3096700J-3096700D01*
G01*
X197224363Y-38074600D02*
G75*
G03*
X193376615Y-39668401I37J-5441600D01*
G01*
X191511534Y-41533465D02*
G75*
G02*
X190602500Y-41909990I-909034J909065D01*
G01*
X245172552Y-39661152D02*
G75*
G03*
X247535700Y-40639999I2363148J2363152D01*
G01*
%TO.N,S7*%
X196914098Y-41491099D02*
X196881404Y-41523793D01*
X197803734Y-41122600D02*
X238207836Y-41122600D01*
X190582499Y-48260000D02*
X190070000Y-48260000D01*
X245413213Y-46074013D02*
X242055592Y-42716392D01*
X196209793Y-43145205D02*
X191457390Y-47897608D01*
X247624600Y-46990000D02*
X248920000Y-46990000D01*
X245413213Y-46074013D02*
G75*
G03*
X247624600Y-46989992I2211387J2211413D01*
G01*
X197803734Y-41122600D02*
G75*
G03*
X196914088Y-41491089I-34J-1258100D01*
G01*
X196545599Y-42334499D02*
G75*
G02*
X196209791Y-43145203I-1146499J-1D01*
G01*
X242055592Y-42716392D02*
G75*
G03*
X238207836Y-41122589I-3847792J-3847808D01*
G01*
X191457390Y-47897608D02*
G75*
G02*
X190582499Y-48259994I-874890J874908D01*
G01*
X196881404Y-41523793D02*
G75*
G03*
X196545595Y-42334499I810696J-810707D01*
G01*
%TO.N,S6*%
X248920000Y-45720000D02*
X247440500Y-45720000D01*
X238385636Y-40398600D02*
X238347436Y-40436800D01*
X244914835Y-44673835D02*
X242233392Y-41992392D01*
X238347436Y-40436800D02*
X197146739Y-40436800D01*
X190331770Y-46990000D02*
X190070000Y-46990000D01*
X197146739Y-40436800D02*
X190778639Y-46804900D01*
X190778639Y-46804900D02*
G75*
G02*
X190331770Y-46989969I-446839J446900D01*
G01*
X242233392Y-41992392D02*
G75*
G03*
X238385636Y-40398589I-3847792J-3847808D01*
G01*
X247440500Y-45720000D02*
G75*
G02*
X244914841Y-44673829I0J3571800D01*
G01*
%TO.N,S1*%
X196716363Y-37363400D02*
X242497319Y-37363400D01*
X190627900Y-40640000D02*
X190070000Y-40640000D01*
X247341680Y-39370000D02*
X248920000Y-39370000D01*
X192868606Y-38957192D02*
X191580294Y-40245505D01*
X191580294Y-40245505D02*
G75*
G02*
X190627900Y-40639996I-952394J952405D01*
G01*
X244919500Y-38366700D02*
G75*
G03*
X242497319Y-37363392I-2422200J-2422200D01*
G01*
X196716363Y-37363400D02*
G75*
G03*
X192868615Y-38957201I37J-5441600D01*
G01*
X244919500Y-38366700D02*
G75*
G03*
X247341680Y-39370008I2422200J2422200D01*
G01*
%TO.N,S5*%
X190331770Y-45720000D02*
X190070000Y-45720000D01*
X237185200Y-39855800D02*
X212347200Y-39855800D01*
X238817436Y-39817600D02*
X237223400Y-39817600D01*
X244566701Y-43312901D02*
X242665192Y-41411392D01*
X237223400Y-39817600D02*
X237185200Y-39855800D01*
X196529266Y-39893934D02*
X196562177Y-39886423D01*
X212344000Y-39852600D02*
X196881033Y-39852600D01*
X248920000Y-44450000D02*
X247311900Y-44450000D01*
X196562177Y-39886423D02*
X190728600Y-45720000D01*
X196519800Y-39903400D02*
X196529266Y-39893934D01*
X212347200Y-39855800D02*
X212344000Y-39852600D01*
X190728600Y-45720000D02*
X190070000Y-45720000D01*
X196881033Y-39852600D02*
X196830233Y-39903400D01*
X196830233Y-39903400D02*
X196519800Y-39903400D01*
X190778639Y-45534900D02*
G75*
G02*
X190331770Y-45719969I-446839J446900D01*
G01*
X247311900Y-44450000D02*
G75*
G02*
X244566700Y-43312902I0J3882300D01*
G01*
X242665192Y-41411392D02*
G75*
G03*
X238817436Y-39817589I-3847792J-3847808D01*
G01*
%TO.N,S0*%
X195994736Y-36499800D02*
X243064087Y-36499800D01*
X190582499Y-39370000D02*
X190070000Y-39370000D01*
X246927312Y-38100000D02*
X248920000Y-38100000D01*
X192530098Y-37934899D02*
X191457390Y-39007608D01*
X195994736Y-36499800D02*
G75*
G03*
X192530088Y-37934889I-36J-4899700D01*
G01*
X191457390Y-39007608D02*
G75*
G02*
X190582499Y-39369994I-874890J874908D01*
G01*
X244995700Y-37299900D02*
G75*
G03*
X246927312Y-38099995I1931600J1931600D01*
G01*
X244995700Y-37299900D02*
G75*
G03*
X243064087Y-36499805I-1931600J-1931600D01*
G01*
%TO.N,S4*%
X247094400Y-43180000D02*
X248920000Y-43180000D01*
X242919192Y-40830392D02*
X243977905Y-41889105D01*
X190412000Y-44450000D02*
X190070000Y-44450000D01*
X190995830Y-44208169D02*
X195190261Y-40013738D01*
X239071436Y-39236600D02*
X197066438Y-39236600D01*
X243977905Y-41889105D02*
G75*
G03*
X247094400Y-43179997I3116495J3116505D01*
G01*
X190995830Y-44208169D02*
G75*
G02*
X190412000Y-44449988I-583830J583869D01*
G01*
X242919192Y-40830392D02*
G75*
G03*
X239071436Y-39236589I-3847792J-3847808D01*
G01*
X197066438Y-39236600D02*
G75*
G03*
X195190245Y-40013722I-38J-2653300D01*
G01*
%TO.N,Net-(D12-A)*%
X89535000Y-40005000D02*
X89535000Y-42305000D01*
%TO.N,Net-(D13-A)*%
X273440800Y-53499000D02*
X273507200Y-53432600D01*
X271208500Y-53460900D02*
X271246600Y-53499000D01*
X271246600Y-53499000D02*
X273440800Y-53499000D01*
X271170400Y-53368918D02*
G75*
G03*
X271208505Y-53460895I130100J18D01*
G01*
D41*
%TO.N,Net-(D14-A)*%
X49530000Y-84550000D02*
X49530000Y-86360000D01*
%TO.N,Net-(R18-Pad2)*%
X49530000Y-88360000D02*
X49530000Y-90170000D01*
D40*
%TO.N,S9*%
X251561600Y-38633400D02*
X251561600Y-39341986D01*
X257725513Y-45720000D02*
X258220000Y-45720000D01*
X256881372Y-45370345D02*
X252062646Y-40551619D01*
X256881372Y-45370345D02*
G75*
G03*
X257725513Y-45719989I844128J844145D01*
G01*
X251561600Y-39341986D02*
G75*
G03*
X252062635Y-40551630I1710700J-14D01*
G01*
%TO.N,S11*%
X255787381Y-42544590D02*
X253262863Y-40020072D01*
X257321395Y-43180000D02*
X258220000Y-43180000D01*
X253239384Y-39930184D02*
X253239384Y-39963388D01*
X253239384Y-39963388D02*
G75*
G03*
X253262867Y-40020068I80116J-12D01*
G01*
X255787381Y-42544590D02*
G75*
G03*
X257321395Y-43180010I1534019J1533990D01*
G01*
%TO.N,S13*%
X256444936Y-40640000D02*
X258220000Y-40640000D01*
X255463800Y-40233600D02*
X255057400Y-39827200D01*
X255463800Y-40233600D02*
G75*
G03*
X256444936Y-40639985I981100J981100D01*
G01*
%TO.N,S15*%
X256476500Y-38138100D02*
X256438400Y-38176200D01*
X256568481Y-38100000D02*
X258220000Y-38100000D01*
X256568481Y-38100000D02*
G75*
G03*
X256476505Y-38138105I19J-130100D01*
G01*
%TO.N,S12*%
X257174653Y-41910000D02*
X258220000Y-41910000D01*
X254182695Y-39963389D02*
X255390134Y-41170828D01*
X255390134Y-41170828D02*
G75*
G03*
X257174653Y-41910031I1784566J1784528D01*
G01*
%TO.N,S8*%
X257707500Y-46990000D02*
X258220000Y-46990000D01*
X251348028Y-41143027D02*
X256832609Y-46627608D01*
X250672600Y-39512399D02*
X250672600Y-38557200D01*
X250672600Y-39512399D02*
G75*
G03*
X251348019Y-41143036I2306100J-1D01*
G01*
X256832609Y-46627608D02*
G75*
G03*
X257707500Y-46989995I874891J874908D01*
G01*
%TO.N,S14*%
X256311586Y-39370000D02*
X258220000Y-39370000D01*
X255747900Y-39039800D02*
X255913000Y-39204900D01*
X255913000Y-39204900D02*
G75*
G03*
X256311586Y-39370006I398600J398600D01*
G01*
%TO.N,S10*%
X256274517Y-43941832D02*
X252758541Y-40425856D01*
X252456148Y-39268165D02*
X252456148Y-39695814D01*
X257501342Y-44450000D02*
X258220000Y-44450000D01*
X252456148Y-39695814D02*
G75*
G03*
X252758545Y-40425852I1032452J14D01*
G01*
X256274517Y-43941832D02*
G75*
G03*
X257501342Y-44449968I1226783J1226832D01*
G01*
%TO.N,RELAIS10*%
X195288054Y-50800000D02*
X216760000Y-50800000D01*
D41*
X194525899Y-58305699D02*
X194195699Y-58635899D01*
X195240800Y-57930000D02*
X195580000Y-57930000D01*
X190500000Y-66783948D02*
X190500000Y-64585563D01*
X191770000Y-69850000D02*
X193040000Y-71120000D01*
X194525899Y-58305699D02*
X194661749Y-58169850D01*
D40*
X194030600Y-57907113D02*
X194030600Y-52057454D01*
D41*
X194195699Y-58635899D02*
X192093792Y-60737807D01*
D40*
X194195700Y-58305700D02*
G75*
G03*
X194525900Y-58305700I165100J165100D01*
G01*
X194398900Y-51168300D02*
G75*
G03*
X194030581Y-52057454I889200J-889200D01*
G01*
D41*
X190500000Y-66783948D02*
G75*
G03*
X191770014Y-69849986I4336100J48D01*
G01*
D40*
X194030600Y-57907113D02*
G75*
G03*
X194195704Y-58305696I563700J13D01*
G01*
D41*
X194195699Y-58635899D02*
G75*
G03*
X194195699Y-58305701I-165099J165099D01*
G01*
X192093792Y-60737807D02*
G75*
G03*
X190499959Y-64585563I3847708J-3847793D01*
G01*
X195240800Y-57930000D02*
G75*
G03*
X194661750Y-58169851I0J-818900D01*
G01*
D40*
X195288054Y-50800000D02*
G75*
G03*
X194398913Y-51168313I46J-1257500D01*
G01*
D41*
%TO.N,Net-(D15-A)*%
X195605400Y-55905400D02*
X195580000Y-55880000D01*
X195666721Y-55930800D02*
X198120000Y-55930800D01*
X195605400Y-55905400D02*
G75*
G03*
X195666721Y-55930791I61300J61300D01*
G01*
%TO.N,RELAIS11*%
X202329992Y-60585407D02*
X204516300Y-58399100D01*
D40*
X205246131Y-52070000D02*
X216760000Y-52070000D01*
D41*
X201968100Y-69888100D02*
X203200000Y-71120000D01*
D40*
X204292200Y-57409874D02*
X204292200Y-53023931D01*
D41*
X200736200Y-64433163D02*
X200736200Y-66914030D01*
X205057325Y-58175000D02*
X205740000Y-58175000D01*
X205057325Y-58175000D02*
G75*
G03*
X204516293Y-58399093I-25J-765100D01*
G01*
X202329992Y-60585407D02*
G75*
G03*
X200736159Y-64433163I3847708J-3847793D01*
G01*
D40*
X204516300Y-57950900D02*
G75*
G03*
X205057325Y-58174990I541000J541000D01*
G01*
X205246131Y-52070000D02*
G75*
G03*
X204571591Y-52349391I-31J-953900D01*
G01*
X204292200Y-57409874D02*
G75*
G03*
X204516293Y-57950907I765100J-26D01*
G01*
D41*
X200736200Y-66914030D02*
G75*
G03*
X201968109Y-69888091I4206000J30D01*
G01*
D40*
X204571600Y-52349400D02*
G75*
G03*
X204292213Y-53023931I674500J-674500D01*
G01*
D41*
X204516300Y-58399100D02*
G75*
G03*
X204516300Y-57950900I-224100J224100D01*
G01*
%TO.N,Net-(D16-A)*%
X208394300Y-55918100D02*
X208407000Y-55930800D01*
X208363639Y-55905400D02*
X205740000Y-55905400D01*
X208394300Y-55918100D02*
G75*
G03*
X208363639Y-55905384I-30700J-30700D01*
G01*
D40*
%TO.N,Net-(U1-IO15)*%
X291560000Y-53340000D02*
X291560000Y-53685000D01*
X293740000Y-54445000D02*
X292665000Y-54445000D01*
X291560000Y-53685000D02*
X290195000Y-55050000D01*
X292665000Y-54445000D02*
X291560000Y-53340000D01*
D41*
%TO.N,Net-(D1-DOUT)*%
X279490000Y-41655000D02*
X279490000Y-40885600D01*
X279490000Y-40885600D02*
X276959400Y-38355000D01*
%TO.N,Net-(D17-DOUT)*%
X272059400Y-41655000D02*
X272059400Y-40921400D01*
X272059400Y-40921400D02*
X269494000Y-38356000D01*
%TD*%
%TA.AperFunction,Conductor*%
%TO.N,LINE*%
G36*
X68004709Y-93742022D02*
G01*
X69376038Y-94157194D01*
X69382963Y-94162871D01*
X69383966Y-94165425D01*
X69879610Y-96056264D01*
X69878393Y-96065136D01*
X69871259Y-96070549D01*
X69865283Y-96070537D01*
X67963971Y-95564535D01*
X67956857Y-95559096D01*
X67955768Y-95556571D01*
X67550980Y-94195686D01*
X67551906Y-94186779D01*
X67553918Y-94184080D01*
X67993051Y-93744947D01*
X68001323Y-93741521D01*
X68004709Y-93742022D01*
G37*
%TD.AperFunction*%
%TD*%
%TA.AperFunction,Conductor*%
%TO.N,+5V*%
G36*
X73122619Y-36071240D02*
G01*
X74578432Y-36331477D01*
X74585972Y-36336306D01*
X74588072Y-36342994D01*
X74588072Y-36711088D01*
X74586524Y-36716903D01*
X73908255Y-37901046D01*
X73901170Y-37906522D01*
X73896682Y-37906844D01*
X71957882Y-37669533D01*
X71950086Y-37665127D01*
X71947690Y-37656499D01*
X71949886Y-37650977D01*
X73111150Y-36075813D01*
X73118816Y-36071190D01*
X73122619Y-36071240D01*
G37*
%TD.AperFunction*%
%TD*%
D45*
X309150000Y-44450000D03*
X294740000Y-58500000D03*
X293740000Y-44285000D03*
X269494000Y-41656000D03*
X258220000Y-53340000D03*
X302260000Y-38100000D03*
X303750000Y-49000000D03*
X75565000Y-41140863D03*
X89535000Y-44355000D03*
X261772000Y-53566700D03*
X76200000Y-40640000D03*
X190070000Y-38100000D03*
X258220000Y-52070000D03*
X311250000Y-58500000D03*
X311250000Y-41500000D03*
X276959400Y-41655000D03*
X246964200Y-52933600D03*
X284390000Y-41655000D03*
X294640000Y-67505000D03*
X290195000Y-59250000D03*
X273507200Y-55482600D03*
X258220000Y-54610000D03*
X271399000Y-63144400D03*
X311540000Y-38100000D03*
X258165600Y-61468000D03*
X226060000Y-46990000D03*
X74964000Y-81280000D03*
X311150000Y-44450000D03*
X311100000Y-47625000D03*
X268072000Y-55956200D03*
X255016000Y-50913900D03*
X291490400Y-50139600D03*
X261772000Y-55866700D03*
X167640000Y-59131200D03*
X127000000Y-59309000D03*
X183565000Y-39370000D03*
X147320000Y-59182000D03*
X187960000Y-59258200D03*
X210693000Y-58445400D03*
X198120000Y-59131200D03*
X209769200Y-59293000D03*
X212471000Y-58445400D03*
X137160000Y-59359800D03*
X177200000Y-59385200D03*
X281940000Y-38150000D03*
X96520000Y-59182000D03*
X157480000Y-59182000D03*
X116840000Y-59359800D03*
X106680000Y-59080400D03*
X218147500Y-45720000D03*
X298450000Y-43815000D03*
X250850400Y-49276000D03*
X260197600Y-37058600D03*
X260096000Y-41808400D03*
X252349000Y-49606200D03*
X296545000Y-43815000D03*
X297280000Y-58500000D03*
X251561600Y-38633400D03*
X226060000Y-49530000D03*
X253239384Y-39930184D03*
X226060000Y-52070000D03*
X255057400Y-39827200D03*
X226060000Y-54610000D03*
X256438400Y-38176200D03*
X226060000Y-57150000D03*
X254182695Y-39963389D03*
X226060000Y-53340000D03*
X250672600Y-38557200D03*
X226060000Y-48260000D03*
X255747900Y-39039800D03*
X226060000Y-55880000D03*
X252456148Y-39268165D03*
X226060000Y-50800000D03*
D46*
X236220000Y-67310000D03*
X236220000Y-72390000D03*
X238760000Y-67310000D03*
X238760000Y-72390000D03*
X241300000Y-67310000D03*
X241300000Y-72390000D03*
X281940000Y-86360000D03*
X281940000Y-91440000D03*
X284480000Y-86360000D03*
X284480000Y-91440000D03*
X287020000Y-86360000D03*
X287020000Y-91440000D03*
X285750000Y-50547651D03*
X285750000Y-47047651D03*
X132560000Y-88540000D03*
X132560000Y-94040000D03*
X137560000Y-88540000D03*
X137560000Y-94040000D03*
X142560000Y-88540000D03*
X142560000Y-94040000D03*
X147560000Y-88540000D03*
X147560000Y-94040000D03*
X153060000Y-88540000D03*
X153060000Y-94040000D03*
X158060000Y-88540000D03*
X158060000Y-94040000D03*
X163060000Y-88540000D03*
X163060000Y-94040000D03*
X168060000Y-88540000D03*
X168060000Y-94040000D03*
X187960000Y-73660000D03*
X187960000Y-71120000D03*
X187960000Y-63500000D03*
X182880000Y-63500000D03*
X182880000Y-71120000D03*
X182880000Y-73660000D03*
X304800000Y-86360000D03*
X304800000Y-91440000D03*
X307340000Y-86360000D03*
X307340000Y-91440000D03*
X309880000Y-86360000D03*
X309880000Y-91440000D03*
X208280000Y-73660000D03*
X208280000Y-71120000D03*
X208280000Y-63500000D03*
X203200000Y-63500000D03*
X203200000Y-71120000D03*
X203200000Y-73660000D03*
X137027500Y-73415000D03*
X137027500Y-70875000D03*
X137027500Y-63255000D03*
X131947500Y-63255000D03*
X131947500Y-70875000D03*
X131947500Y-73415000D03*
X194106800Y-88556200D03*
X194106800Y-94056200D03*
X199106800Y-88556200D03*
X199106800Y-94056200D03*
X204106800Y-88556200D03*
X204106800Y-94056200D03*
X209106800Y-88556200D03*
X209106800Y-94056200D03*
X236220000Y-86360000D03*
X236220000Y-91440000D03*
X238760000Y-86360000D03*
X238760000Y-91440000D03*
X241300000Y-86360000D03*
X241300000Y-91440000D03*
X259080000Y-67310000D03*
X259080000Y-72390000D03*
X261620000Y-67310000D03*
X261620000Y-72390000D03*
X264160000Y-67310000D03*
X264160000Y-72390000D03*
X162250000Y-81750000D03*
X247650000Y-67310000D03*
X247650000Y-72390000D03*
X250190000Y-67310000D03*
X250190000Y-72390000D03*
X252730000Y-67310000D03*
X252730000Y-72390000D03*
X69884000Y-96075000D03*
X74964000Y-96075000D03*
X66859000Y-37667100D03*
X71939000Y-37667100D03*
X220670000Y-80645000D03*
X217170000Y-80645000D03*
X91560000Y-88540000D03*
X91560000Y-94040000D03*
X96560000Y-88540000D03*
X96560000Y-94040000D03*
X101560000Y-88540000D03*
X101560000Y-94040000D03*
X106560000Y-88540000D03*
X106560000Y-94040000D03*
X99695000Y-50490000D03*
X99695000Y-46990000D03*
X330500000Y-70000000D03*
X224790000Y-86360000D03*
X224790000Y-91440000D03*
X227330000Y-86360000D03*
X227330000Y-91440000D03*
X229870000Y-86360000D03*
X229870000Y-91440000D03*
X112060000Y-88540000D03*
X112060000Y-94040000D03*
X117060000Y-88540000D03*
X117060000Y-94040000D03*
X122060000Y-88540000D03*
X122060000Y-94040000D03*
X127060000Y-88540000D03*
X127060000Y-94040000D03*
X309880000Y-66040000D03*
X307340000Y-66040000D03*
X304800000Y-66040000D03*
X302260000Y-66040000D03*
X247650000Y-86360000D03*
X247650000Y-91440000D03*
X250190000Y-86360000D03*
X250190000Y-91440000D03*
X252730000Y-86360000D03*
X252730000Y-91440000D03*
X106547500Y-73537500D03*
X106547500Y-70997500D03*
X106547500Y-63377500D03*
X101467500Y-63377500D03*
X101467500Y-70997500D03*
X101467500Y-73537500D03*
X167640000Y-73537500D03*
X167640000Y-70997500D03*
X167640000Y-63377500D03*
X162560000Y-63377500D03*
X162560000Y-70997500D03*
X162560000Y-73537500D03*
X327660000Y-86360000D03*
X327660000Y-91440000D03*
X330200000Y-86360000D03*
X330200000Y-91440000D03*
X332740000Y-86360000D03*
X332740000Y-91440000D03*
X293370000Y-86360000D03*
X293370000Y-91440000D03*
X295910000Y-86360000D03*
X295910000Y-91440000D03*
X298450000Y-86360000D03*
X298450000Y-91440000D03*
X177800000Y-73660000D03*
X177800000Y-71120000D03*
X177800000Y-63500000D03*
X172720000Y-63500000D03*
X172720000Y-71120000D03*
X172720000Y-73660000D03*
X47000000Y-71000000D03*
X198120000Y-73660000D03*
X198120000Y-71120000D03*
X198120000Y-63500000D03*
X193040000Y-63500000D03*
X193040000Y-71120000D03*
X193040000Y-73660000D03*
X270510000Y-86360000D03*
X270510000Y-91440000D03*
X273050000Y-86360000D03*
X273050000Y-91440000D03*
X275590000Y-86360000D03*
X275590000Y-91440000D03*
X316230000Y-86360000D03*
X316230000Y-91440000D03*
X318770000Y-86360000D03*
X318770000Y-91440000D03*
X321310000Y-86360000D03*
X321310000Y-91440000D03*
X26500000Y-90000000D03*
X26500000Y-95500000D03*
X31500000Y-90000000D03*
X31500000Y-95500000D03*
X224790000Y-67310000D03*
X224790000Y-72390000D03*
X227330000Y-67310000D03*
X227330000Y-72390000D03*
X229870000Y-67310000D03*
X229870000Y-72390000D03*
X291541200Y-38252400D03*
X294081200Y-38252400D03*
X296621200Y-38252400D03*
X299161200Y-38252400D03*
X214630000Y-60635000D03*
X214630000Y-64135000D03*
X157480000Y-73537500D03*
X157480000Y-70997500D03*
X157480000Y-63377500D03*
X152400000Y-63377500D03*
X152400000Y-70997500D03*
X152400000Y-73537500D03*
X116707500Y-73415000D03*
X116707500Y-70875000D03*
X116707500Y-63255000D03*
X111627500Y-63255000D03*
X111627500Y-70875000D03*
X111627500Y-73415000D03*
X259080000Y-86360000D03*
X259080000Y-91440000D03*
X261620000Y-86360000D03*
X261620000Y-91440000D03*
X264160000Y-86360000D03*
X264160000Y-91440000D03*
X127000000Y-73537500D03*
X127000000Y-70997500D03*
X127000000Y-63377500D03*
X121920000Y-63377500D03*
X121920000Y-70997500D03*
X121920000Y-73537500D03*
X173560000Y-88540000D03*
X173560000Y-94040000D03*
X178560000Y-88540000D03*
X178560000Y-94040000D03*
X183560000Y-88540000D03*
X183560000Y-94040000D03*
X188560000Y-88540000D03*
X188560000Y-94040000D03*
X29000000Y-74750000D03*
X29000000Y-63500000D03*
X29000000Y-86000000D03*
X96520000Y-73537500D03*
X96520000Y-70997500D03*
X96520000Y-63377500D03*
X91440000Y-63377500D03*
X91440000Y-70997500D03*
X91440000Y-73537500D03*
D47*
X32000000Y-48750000D03*
X32000000Y-52750000D03*
X32000000Y-56750000D03*
X27000000Y-48750000D03*
X27000000Y-52750000D03*
X27000000Y-56750000D03*
D46*
X147187500Y-73415000D03*
X147187500Y-70875000D03*
X147187500Y-63255000D03*
X142107500Y-63255000D03*
X142107500Y-70875000D03*
X142107500Y-73415000D03*
M02*
