%TF.GenerationSoftware,KiCad,Pcbnew,8.0.9*%
%TF.CreationDate,2025-02-25T23:01:13+01:00*%
%TF.ProjectId,Heizkreiscontroller,4865697a-6b72-4656-9973-636f6e74726f,rev?*%
%TF.SameCoordinates,Original*%
%TF.FileFunction,Soldermask,Bot*%
%TF.FilePolarity,Negative*%
%FSLAX46Y46*%
G04 Gerber Fmt 4.6, Leading zero omitted, Abs format (unit mm)*
G04 Created by KiCad (PCBNEW 8.0.9) date 2025-02-25 23:01:13*
%MOMM*%
%LPD*%
G01*
G04 APERTURE LIST*
G04 Aperture macros list*
%AMRoundRect*
0 Rectangle with rounded corners*
0 $1 Rounding radius*
0 $2 $3 $4 $5 $6 $7 $8 $9 X,Y pos of 4 corners*
0 Add a 4 corners polygon primitive as box body*
4,1,4,$2,$3,$4,$5,$6,$7,$8,$9,$2,$3,0*
0 Add four circle primitives for the rounded corners*
1,1,$1+$1,$2,$3*
1,1,$1+$1,$4,$5*
1,1,$1+$1,$6,$7*
1,1,$1+$1,$8,$9*
0 Add four rect primitives between the rounded corners*
20,1,$1+$1,$2,$3,$4,$5,0*
20,1,$1+$1,$4,$5,$6,$7,0*
20,1,$1+$1,$6,$7,$8,$9,0*
20,1,$1+$1,$8,$9,$2,$3,0*%
G04 Aperture macros list end*
%ADD10R,1.800000X3.000000*%
%ADD11O,1.800000X3.000000*%
%ADD12R,1.600000X1.600000*%
%ADD13C,1.600000*%
%ADD14C,1.524000*%
%ADD15R,2.000000X2.000000*%
%ADD16C,2.000000*%
%ADD17C,3.200000*%
%ADD18C,4.000000*%
%ADD19R,1.700000X1.700000*%
%ADD20O,1.700000X1.700000*%
%ADD21C,2.700000*%
%ADD22C,3.000000*%
%ADD23RoundRect,0.250000X-1.250000X0.750000X-1.250000X-0.750000X1.250000X-0.750000X1.250000X0.750000X0*%
%ADD24RoundRect,0.250000X-0.412500X-1.100000X0.412500X-1.100000X0.412500X1.100000X-0.412500X1.100000X0*%
%ADD25RoundRect,0.250000X1.100000X-0.412500X1.100000X0.412500X-1.100000X0.412500X-1.100000X-0.412500X0*%
%ADD26RoundRect,0.250000X-0.751301X1.263953X-1.263953X0.751301X0.751301X-1.263953X1.263953X-0.751301X0*%
%ADD27RoundRect,0.250000X-0.450000X0.350000X-0.450000X-0.350000X0.450000X-0.350000X0.450000X0.350000X0*%
%ADD28RoundRect,0.250000X0.350000X0.450000X-0.350000X0.450000X-0.350000X-0.450000X0.350000X-0.450000X0*%
%ADD29RoundRect,0.250000X0.412500X1.100000X-0.412500X1.100000X-0.412500X-1.100000X0.412500X-1.100000X0*%
%ADD30RoundRect,0.250000X0.450000X-0.350000X0.450000X0.350000X-0.450000X0.350000X-0.450000X-0.350000X0*%
G04 APERTURE END LIST*
D10*
%TO.C,J17*%
X236220000Y-67310000D03*
X236220000Y-72390000D03*
D11*
X238760000Y-67310000D03*
X238760000Y-72390000D03*
X241300000Y-67310000D03*
X241300000Y-72390000D03*
%TD*%
D10*
%TO.C,J14*%
X281940000Y-86360000D03*
X281940000Y-91440000D03*
D11*
X284480000Y-86360000D03*
X284480000Y-91440000D03*
X287020000Y-86360000D03*
X287020000Y-91440000D03*
%TD*%
D12*
%TO.C,C12*%
X285750000Y-50547651D03*
D13*
X285750000Y-47047651D03*
%TD*%
D14*
%TO.C,J3*%
X132560000Y-88540000D03*
X132560000Y-94040000D03*
X137560000Y-88540000D03*
X137560000Y-94040000D03*
X142560000Y-88540000D03*
X142560000Y-94040000D03*
X147560000Y-88540000D03*
X147560000Y-94040000D03*
%TD*%
%TO.C,J4*%
X153060000Y-88540000D03*
X153060000Y-94040000D03*
X158060000Y-88540000D03*
X158060000Y-94040000D03*
X163060000Y-88540000D03*
X163060000Y-94040000D03*
X168060000Y-88540000D03*
X168060000Y-94040000D03*
%TD*%
D15*
%TO.C,K5*%
X187960000Y-73660000D03*
D16*
X187960000Y-71120000D03*
X187960000Y-63500000D03*
X182880000Y-63500000D03*
X182880000Y-71120000D03*
X182880000Y-73660000D03*
%TD*%
D10*
%TO.C,J10*%
X304800000Y-86360000D03*
X304800000Y-91440000D03*
D11*
X307340000Y-86360000D03*
X307340000Y-91440000D03*
X309880000Y-86360000D03*
X309880000Y-91440000D03*
%TD*%
D15*
%TO.C,K12*%
X208280000Y-73660000D03*
D16*
X208280000Y-71120000D03*
X208280000Y-63500000D03*
X203200000Y-63500000D03*
X203200000Y-71120000D03*
X203200000Y-73660000D03*
%TD*%
D15*
%TO.C,K2*%
X137027500Y-73415000D03*
D16*
X137027500Y-70875000D03*
X137027500Y-63255000D03*
X131947500Y-63255000D03*
X131947500Y-70875000D03*
X131947500Y-73415000D03*
%TD*%
D14*
%TO.C,J21*%
X194106800Y-88556200D03*
X194106800Y-94056200D03*
X199106800Y-88556200D03*
X199106800Y-94056200D03*
X204106800Y-88556200D03*
X204106800Y-94056200D03*
X209106800Y-88556200D03*
X209106800Y-94056200D03*
%TD*%
D10*
%TO.C,J9*%
X236220000Y-86360000D03*
X236220000Y-91440000D03*
D11*
X238760000Y-86360000D03*
X238760000Y-91440000D03*
X241300000Y-86360000D03*
X241300000Y-91440000D03*
%TD*%
D10*
%TO.C,J20*%
X259080000Y-67310000D03*
X259080000Y-72390000D03*
D11*
X261620000Y-67310000D03*
X261620000Y-72390000D03*
X264160000Y-67310000D03*
X264160000Y-72390000D03*
%TD*%
D17*
%TO.C,H1*%
X162250000Y-81750000D03*
%TD*%
D10*
%TO.C,J19*%
X247650000Y-67310000D03*
X247650000Y-72390000D03*
D11*
X250190000Y-67310000D03*
X250190000Y-72390000D03*
X252730000Y-67310000D03*
X252730000Y-72390000D03*
%TD*%
D18*
%TO.C,U2*%
X69884000Y-96075000D03*
X74964000Y-96075000D03*
X66859000Y-37667100D03*
X71939000Y-37667100D03*
%TD*%
D12*
%TO.C,C11*%
X220670000Y-80645000D03*
D13*
X217170000Y-80645000D03*
%TD*%
D14*
%TO.C,J1*%
X91560000Y-88540000D03*
X91560000Y-94040000D03*
X96560000Y-88540000D03*
X96560000Y-94040000D03*
X101560000Y-88540000D03*
X101560000Y-94040000D03*
X106560000Y-88540000D03*
X106560000Y-94040000D03*
%TD*%
D12*
%TO.C,C10*%
X99695000Y-50490000D03*
D13*
X99695000Y-46990000D03*
%TD*%
D17*
%TO.C,H2*%
X330500000Y-70000000D03*
%TD*%
D10*
%TO.C,J7*%
X224790000Y-86360000D03*
X224790000Y-91440000D03*
D11*
X227330000Y-86360000D03*
X227330000Y-91440000D03*
X229870000Y-86360000D03*
X229870000Y-91440000D03*
%TD*%
D14*
%TO.C,J2*%
X112060000Y-88540000D03*
X112060000Y-94040000D03*
X117060000Y-88540000D03*
X117060000Y-94040000D03*
X122060000Y-88540000D03*
X122060000Y-94040000D03*
X127060000Y-88540000D03*
X127060000Y-94040000D03*
%TD*%
D19*
%TO.C,J22*%
X309880000Y-66040000D03*
D20*
X307340000Y-66040000D03*
X304800000Y-66040000D03*
X302260000Y-66040000D03*
%TD*%
D10*
%TO.C,J8*%
X247650000Y-86360000D03*
X247650000Y-91440000D03*
D11*
X250190000Y-86360000D03*
X250190000Y-91440000D03*
X252730000Y-86360000D03*
X252730000Y-91440000D03*
%TD*%
D15*
%TO.C,K9*%
X106547500Y-73537500D03*
D16*
X106547500Y-70997500D03*
X106547500Y-63377500D03*
X101467500Y-63377500D03*
X101467500Y-70997500D03*
X101467500Y-73537500D03*
%TD*%
D15*
%TO.C,K6*%
X167640000Y-73537500D03*
D16*
X167640000Y-70997500D03*
X167640000Y-63377500D03*
X162560000Y-63377500D03*
X162560000Y-70997500D03*
X162560000Y-73537500D03*
%TD*%
D10*
%TO.C,J16*%
X327660000Y-86360000D03*
X327660000Y-91440000D03*
D11*
X330200000Y-86360000D03*
X330200000Y-91440000D03*
X332740000Y-86360000D03*
X332740000Y-91440000D03*
%TD*%
D10*
%TO.C,J15*%
X293370000Y-86360000D03*
X293370000Y-91440000D03*
D11*
X295910000Y-86360000D03*
X295910000Y-91440000D03*
X298450000Y-86360000D03*
X298450000Y-91440000D03*
%TD*%
D15*
%TO.C,K10*%
X177800000Y-73660000D03*
D16*
X177800000Y-71120000D03*
X177800000Y-63500000D03*
X172720000Y-63500000D03*
X172720000Y-71120000D03*
X172720000Y-73660000D03*
%TD*%
D17*
%TO.C,H3*%
X47000000Y-71000000D03*
%TD*%
D15*
%TO.C,K11*%
X198120000Y-73660000D03*
D16*
X198120000Y-71120000D03*
X198120000Y-63500000D03*
X193040000Y-63500000D03*
X193040000Y-71120000D03*
X193040000Y-73660000D03*
%TD*%
D10*
%TO.C,J12*%
X270510000Y-86360000D03*
X270510000Y-91440000D03*
D11*
X273050000Y-86360000D03*
X273050000Y-91440000D03*
X275590000Y-86360000D03*
X275590000Y-91440000D03*
%TD*%
D10*
%TO.C,J13*%
X316230000Y-86360000D03*
X316230000Y-91440000D03*
D11*
X318770000Y-86360000D03*
X318770000Y-91440000D03*
X321310000Y-86360000D03*
X321310000Y-91440000D03*
%TD*%
D14*
%TO.C,J6*%
X26500000Y-90000000D03*
X26500000Y-95500000D03*
X31500000Y-90000000D03*
X31500000Y-95500000D03*
%TD*%
D10*
%TO.C,J18*%
X224790000Y-67310000D03*
X224790000Y-72390000D03*
D11*
X227330000Y-67310000D03*
X227330000Y-72390000D03*
X229870000Y-67310000D03*
X229870000Y-72390000D03*
%TD*%
D19*
%TO.C,J23*%
X291541200Y-38252400D03*
D20*
X294081200Y-38252400D03*
X296621200Y-38252400D03*
X299161200Y-38252400D03*
%TD*%
D12*
%TO.C,C9*%
X214630000Y-60635000D03*
D13*
X214630000Y-64135000D03*
%TD*%
D15*
%TO.C,K1*%
X157480000Y-73537500D03*
D16*
X157480000Y-70997500D03*
X157480000Y-63377500D03*
X152400000Y-63377500D03*
X152400000Y-70997500D03*
X152400000Y-73537500D03*
%TD*%
D15*
%TO.C,K3*%
X116707500Y-73415000D03*
D16*
X116707500Y-70875000D03*
X116707500Y-63255000D03*
X111627500Y-63255000D03*
X111627500Y-70875000D03*
X111627500Y-73415000D03*
%TD*%
D10*
%TO.C,J11*%
X259080000Y-86360000D03*
X259080000Y-91440000D03*
D11*
X261620000Y-86360000D03*
X261620000Y-91440000D03*
X264160000Y-86360000D03*
X264160000Y-91440000D03*
%TD*%
D15*
%TO.C,K8*%
X127000000Y-73537500D03*
D16*
X127000000Y-70997500D03*
X127000000Y-63377500D03*
X121920000Y-63377500D03*
X121920000Y-70997500D03*
X121920000Y-73537500D03*
%TD*%
D14*
%TO.C,J5*%
X173560000Y-88540000D03*
X173560000Y-94040000D03*
X178560000Y-88540000D03*
X178560000Y-94040000D03*
X183560000Y-88540000D03*
X183560000Y-94040000D03*
X188560000Y-88540000D03*
X188560000Y-94040000D03*
%TD*%
D21*
%TO.C,F1*%
X29000000Y-74750000D03*
D22*
X29000000Y-63500000D03*
X29000000Y-86000000D03*
%TD*%
D15*
%TO.C,K4*%
X96520000Y-73537500D03*
D16*
X96520000Y-70997500D03*
X96520000Y-63377500D03*
X91440000Y-63377500D03*
X91440000Y-70997500D03*
X91440000Y-73537500D03*
%TD*%
D23*
%TO.C,SW1*%
X32000000Y-48750000D03*
X32000000Y-52750000D03*
X32000000Y-56750000D03*
X27000000Y-48750000D03*
X27000000Y-52750000D03*
X27000000Y-56750000D03*
%TD*%
D15*
%TO.C,K7*%
X147187500Y-73415000D03*
D16*
X147187500Y-70875000D03*
X147187500Y-63255000D03*
X142107500Y-63255000D03*
X142107500Y-70875000D03*
X142107500Y-73415000D03*
%TD*%
D24*
%TO.C,C15*%
X224790000Y-82550000D03*
X227915000Y-82550000D03*
%TD*%
D25*
%TO.C,C2*%
X255016000Y-54038900D03*
X255016000Y-50913900D03*
%TD*%
%TO.C,C6*%
X281940000Y-41275000D03*
X281940000Y-38150000D03*
%TD*%
D24*
%TO.C,C1*%
X307975000Y-47625000D03*
X311100000Y-47625000D03*
%TD*%
%TO.C,C25*%
X236220000Y-63500000D03*
X239345000Y-63500000D03*
%TD*%
%TO.C,C19*%
X247650000Y-63500000D03*
X250775000Y-63500000D03*
%TD*%
D26*
%TO.C,R22*%
X79119608Y-47810768D03*
X74930000Y-52000376D03*
%TD*%
D24*
%TO.C,C24*%
X259080000Y-63500000D03*
X262205000Y-63500000D03*
%TD*%
%TO.C,C26*%
X236220000Y-82550000D03*
X239345000Y-82550000D03*
%TD*%
D27*
%TO.C,R2*%
X295910000Y-53880000D03*
X295910000Y-55880000D03*
%TD*%
D24*
%TO.C,C20*%
X224790000Y-63500000D03*
X227915000Y-63500000D03*
%TD*%
%TO.C,C22*%
X270510000Y-82550000D03*
X273635000Y-82550000D03*
%TD*%
%TO.C,C21*%
X247650000Y-82550000D03*
X250775000Y-82550000D03*
%TD*%
%TO.C,C17*%
X281940000Y-82550000D03*
X285065000Y-82550000D03*
%TD*%
%TO.C,C23*%
X304507500Y-82550000D03*
X307632500Y-82550000D03*
%TD*%
D28*
%TO.C,R1*%
X311150000Y-44450000D03*
X309150000Y-44450000D03*
%TD*%
D27*
%TO.C,R3*%
X298450000Y-43815000D03*
X298450000Y-45815000D03*
%TD*%
D24*
%TO.C,C14*%
X316230000Y-82550000D03*
X319355000Y-82550000D03*
%TD*%
D29*
%TO.C,C5*%
X186690000Y-39370000D03*
X183565000Y-39370000D03*
%TD*%
D24*
%TO.C,C13*%
X327710000Y-82550000D03*
X330835000Y-82550000D03*
%TD*%
D29*
%TO.C,C7*%
X221272500Y-45720000D03*
X218147500Y-45720000D03*
%TD*%
D30*
%TO.C,R15*%
X297815000Y-55880000D03*
X297815000Y-53880000D03*
%TD*%
D24*
%TO.C,C16*%
X259080000Y-82550000D03*
X262205000Y-82550000D03*
%TD*%
D27*
%TO.C,R4*%
X296545000Y-43815000D03*
X296545000Y-45815000D03*
%TD*%
D24*
%TO.C,C18*%
X293370000Y-82550000D03*
X296495000Y-82550000D03*
%TD*%
M02*
