%TF.GenerationSoftware,KiCad,Pcbnew,8.0.9*%
%TF.CreationDate,2025-02-25T23:01:13+01:00*%
%TF.ProjectId,Heizkreiscontroller,4865697a-6b72-4656-9973-636f6e74726f,rev?*%
%TF.SameCoordinates,Original*%
%TF.FileFunction,Profile,NP*%
%FSLAX46Y46*%
G04 Gerber Fmt 4.6, Leading zero omitted, Abs format (unit mm)*
G04 Created by KiCad (PCBNEW 8.0.9) date 2025-02-25 23:01:13*
%MOMM*%
%LPD*%
G01*
G04 APERTURE LIST*
%TA.AperFunction,Profile*%
%ADD10C,0.050000*%
%TD*%
%ADD11C,0.350000*%
%ADD12O,2.200000X1.200000*%
G04 APERTURE END LIST*
D10*
X20000000Y-100000000D02*
X20000000Y-44000000D01*
X48750000Y-42000000D02*
X48750000Y-67000000D01*
X45250000Y-67000000D02*
X45250000Y-42000000D01*
X339000000Y-100000000D02*
X339000000Y-54000000D01*
X33250000Y-44000000D02*
X20000000Y-44000000D01*
X48750000Y-67000000D02*
G75*
G02*
X45250000Y-67000000I-1750000J0D01*
G01*
X34000000Y-35000000D02*
X34000000Y-43250000D01*
X325000000Y-35000000D02*
X34000000Y-35000000D01*
X325750000Y-54000000D02*
X339000000Y-54000000D01*
X34000000Y-43250000D02*
G75*
G02*
X33250000Y-44000000I-750000J0D01*
G01*
X325000000Y-35000000D02*
X325000000Y-53250000D01*
X325750000Y-54000000D02*
G75*
G02*
X325000000Y-53250000I0J750000D01*
G01*
X45250000Y-42000000D02*
G75*
G02*
X48750000Y-42000000I1750000J0D01*
G01*
X20000000Y-100000000D02*
X339000000Y-100000000D01*
%TO.C,U2*%
X59260000Y-38635000D02*
G75*
G02*
X56260000Y-38635000I-1500000J0D01*
G01*
X56260000Y-38635000D02*
G75*
G02*
X59260000Y-38635000I1500000J0D01*
G01*
X59260000Y-96075000D02*
G75*
G02*
X56260000Y-96075000I-1500000J0D01*
G01*
X56260000Y-96075000D02*
G75*
G02*
X59260000Y-96075000I1500000J0D01*
G01*
X83886000Y-38725000D02*
G75*
G02*
X80886000Y-38725000I-1500000J0D01*
G01*
X80886000Y-38725000D02*
G75*
G02*
X83886000Y-38725000I1500000J0D01*
G01*
X83886000Y-96075000D02*
G75*
G02*
X80886000Y-96075000I-1500000J0D01*
G01*
X80886000Y-96075000D02*
G75*
G02*
X83886000Y-96075000I1500000J0D01*
G01*
%TD*%
D11*
X236220000Y-67310000D03*
X236220000Y-72390000D03*
X238760000Y-67310000D03*
X238760000Y-72390000D03*
X241300000Y-67310000D03*
X241300000Y-72390000D03*
X281940000Y-86360000D03*
X281940000Y-91440000D03*
X284480000Y-86360000D03*
X284480000Y-91440000D03*
X287020000Y-86360000D03*
X287020000Y-91440000D03*
X285750000Y-50547651D03*
X285750000Y-47047651D03*
X132560000Y-88540000D03*
X132560000Y-94040000D03*
X137560000Y-88540000D03*
X137560000Y-94040000D03*
X142560000Y-88540000D03*
X142560000Y-94040000D03*
X147560000Y-88540000D03*
X147560000Y-94040000D03*
X153060000Y-88540000D03*
X153060000Y-94040000D03*
X158060000Y-88540000D03*
X158060000Y-94040000D03*
X163060000Y-88540000D03*
X163060000Y-94040000D03*
X168060000Y-88540000D03*
X168060000Y-94040000D03*
X187960000Y-73660000D03*
X187960000Y-71120000D03*
X187960000Y-63500000D03*
X182880000Y-63500000D03*
X182880000Y-71120000D03*
X182880000Y-73660000D03*
X304800000Y-86360000D03*
X304800000Y-91440000D03*
X307340000Y-86360000D03*
X307340000Y-91440000D03*
X309880000Y-86360000D03*
X309880000Y-91440000D03*
X208280000Y-73660000D03*
X208280000Y-71120000D03*
X208280000Y-63500000D03*
X203200000Y-63500000D03*
X203200000Y-71120000D03*
X203200000Y-73660000D03*
X137027500Y-73415000D03*
X137027500Y-70875000D03*
X137027500Y-63255000D03*
X131947500Y-63255000D03*
X131947500Y-70875000D03*
X131947500Y-73415000D03*
X194106800Y-88556200D03*
X194106800Y-94056200D03*
X199106800Y-88556200D03*
X199106800Y-94056200D03*
X204106800Y-88556200D03*
X204106800Y-94056200D03*
X209106800Y-88556200D03*
X209106800Y-94056200D03*
X236220000Y-86360000D03*
X236220000Y-91440000D03*
X238760000Y-86360000D03*
X238760000Y-91440000D03*
X241300000Y-86360000D03*
X241300000Y-91440000D03*
X259080000Y-67310000D03*
X259080000Y-72390000D03*
X261620000Y-67310000D03*
X261620000Y-72390000D03*
X264160000Y-67310000D03*
X264160000Y-72390000D03*
X162250000Y-81750000D03*
X247650000Y-67310000D03*
X247650000Y-72390000D03*
X250190000Y-67310000D03*
X250190000Y-72390000D03*
X252730000Y-67310000D03*
X252730000Y-72390000D03*
X69884000Y-96075000D03*
X74964000Y-96075000D03*
X66859000Y-37667100D03*
X71939000Y-37667100D03*
X220670000Y-80645000D03*
X217170000Y-80645000D03*
X91560000Y-88540000D03*
X91560000Y-94040000D03*
X96560000Y-88540000D03*
X96560000Y-94040000D03*
X101560000Y-88540000D03*
X101560000Y-94040000D03*
X106560000Y-88540000D03*
X106560000Y-94040000D03*
X99695000Y-50490000D03*
X99695000Y-46990000D03*
X330500000Y-70000000D03*
X224790000Y-86360000D03*
X224790000Y-91440000D03*
X227330000Y-86360000D03*
X227330000Y-91440000D03*
X229870000Y-86360000D03*
X229870000Y-91440000D03*
X112060000Y-88540000D03*
X112060000Y-94040000D03*
X117060000Y-88540000D03*
X117060000Y-94040000D03*
X122060000Y-88540000D03*
X122060000Y-94040000D03*
X127060000Y-88540000D03*
X127060000Y-94040000D03*
X309880000Y-66040000D03*
X307340000Y-66040000D03*
X304800000Y-66040000D03*
X302260000Y-66040000D03*
X247650000Y-86360000D03*
X247650000Y-91440000D03*
X250190000Y-86360000D03*
X250190000Y-91440000D03*
X252730000Y-86360000D03*
X252730000Y-91440000D03*
X106547500Y-73537500D03*
X106547500Y-70997500D03*
X106547500Y-63377500D03*
X101467500Y-63377500D03*
X101467500Y-70997500D03*
X101467500Y-73537500D03*
X167640000Y-73537500D03*
X167640000Y-70997500D03*
X167640000Y-63377500D03*
X162560000Y-63377500D03*
X162560000Y-70997500D03*
X162560000Y-73537500D03*
X327660000Y-86360000D03*
X327660000Y-91440000D03*
X330200000Y-86360000D03*
X330200000Y-91440000D03*
X332740000Y-86360000D03*
X332740000Y-91440000D03*
X293370000Y-86360000D03*
X293370000Y-91440000D03*
X295910000Y-86360000D03*
X295910000Y-91440000D03*
X298450000Y-86360000D03*
X298450000Y-91440000D03*
X177800000Y-73660000D03*
X177800000Y-71120000D03*
X177800000Y-63500000D03*
X172720000Y-63500000D03*
X172720000Y-71120000D03*
X172720000Y-73660000D03*
X47000000Y-71000000D03*
X198120000Y-73660000D03*
X198120000Y-71120000D03*
X198120000Y-63500000D03*
X193040000Y-63500000D03*
X193040000Y-71120000D03*
X193040000Y-73660000D03*
X270510000Y-86360000D03*
X270510000Y-91440000D03*
X273050000Y-86360000D03*
X273050000Y-91440000D03*
X275590000Y-86360000D03*
X275590000Y-91440000D03*
X316230000Y-86360000D03*
X316230000Y-91440000D03*
X318770000Y-86360000D03*
X318770000Y-91440000D03*
X321310000Y-86360000D03*
X321310000Y-91440000D03*
X26500000Y-90000000D03*
X26500000Y-95500000D03*
X31500000Y-90000000D03*
X31500000Y-95500000D03*
X224790000Y-67310000D03*
X224790000Y-72390000D03*
X227330000Y-67310000D03*
X227330000Y-72390000D03*
X229870000Y-67310000D03*
X229870000Y-72390000D03*
X291541200Y-38252400D03*
X294081200Y-38252400D03*
X296621200Y-38252400D03*
X299161200Y-38252400D03*
X214630000Y-60635000D03*
X214630000Y-64135000D03*
X157480000Y-73537500D03*
X157480000Y-70997500D03*
X157480000Y-63377500D03*
X152400000Y-63377500D03*
X152400000Y-70997500D03*
X152400000Y-73537500D03*
X116707500Y-73415000D03*
X116707500Y-70875000D03*
X116707500Y-63255000D03*
X111627500Y-63255000D03*
X111627500Y-70875000D03*
X111627500Y-73415000D03*
X259080000Y-86360000D03*
X259080000Y-91440000D03*
X261620000Y-86360000D03*
X261620000Y-91440000D03*
X264160000Y-86360000D03*
X264160000Y-91440000D03*
X127000000Y-73537500D03*
X127000000Y-70997500D03*
X127000000Y-63377500D03*
X121920000Y-63377500D03*
X121920000Y-70997500D03*
X121920000Y-73537500D03*
X173560000Y-88540000D03*
X173560000Y-94040000D03*
X178560000Y-88540000D03*
X178560000Y-94040000D03*
X183560000Y-88540000D03*
X183560000Y-94040000D03*
X188560000Y-88540000D03*
X188560000Y-94040000D03*
X29000000Y-74750000D03*
X29000000Y-63500000D03*
X29000000Y-86000000D03*
X96520000Y-73537500D03*
X96520000Y-70997500D03*
X96520000Y-63377500D03*
X91440000Y-63377500D03*
X91440000Y-70997500D03*
X91440000Y-73537500D03*
D12*
X32000000Y-48750000D03*
X32000000Y-52750000D03*
X32000000Y-56750000D03*
X27000000Y-48750000D03*
X27000000Y-52750000D03*
X27000000Y-56750000D03*
D11*
X147187500Y-73415000D03*
X147187500Y-70875000D03*
X147187500Y-63255000D03*
X142107500Y-63255000D03*
X142107500Y-70875000D03*
X142107500Y-73415000D03*
M02*
