%TF.GenerationSoftware,KiCad,Pcbnew,8.0.9*%
%TF.CreationDate,2025-02-25T23:01:13+01:00*%
%TF.ProjectId,Heizkreiscontroller,4865697a-6b72-4656-9973-636f6e74726f,rev?*%
%TF.SameCoordinates,Original*%
%TF.FileFunction,Soldermask,Top*%
%TF.FilePolarity,Negative*%
%FSLAX46Y46*%
G04 Gerber Fmt 4.6, Leading zero omitted, Abs format (unit mm)*
G04 Created by KiCad (PCBNEW 8.0.9) date 2025-02-25 23:01:13*
%MOMM*%
%LPD*%
G01*
G04 APERTURE LIST*
G04 Aperture macros list*
%AMRoundRect*
0 Rectangle with rounded corners*
0 $1 Rounding radius*
0 $2 $3 $4 $5 $6 $7 $8 $9 X,Y pos of 4 corners*
0 Add a 4 corners polygon primitive as box body*
4,1,4,$2,$3,$4,$5,$6,$7,$8,$9,$2,$3,0*
0 Add four circle primitives for the rounded corners*
1,1,$1+$1,$2,$3*
1,1,$1+$1,$4,$5*
1,1,$1+$1,$6,$7*
1,1,$1+$1,$8,$9*
0 Add four rect primitives between the rounded corners*
20,1,$1+$1,$2,$3,$4,$5,0*
20,1,$1+$1,$4,$5,$6,$7,0*
20,1,$1+$1,$6,$7,$8,$9,0*
20,1,$1+$1,$8,$9,$2,$3,0*%
G04 Aperture macros list end*
%ADD10R,1.800000X3.000000*%
%ADD11O,1.800000X3.000000*%
%ADD12RoundRect,0.375000X-0.625000X-0.375000X0.625000X-0.375000X0.625000X0.375000X-0.625000X0.375000X0*%
%ADD13RoundRect,0.500000X-0.500000X-1.400000X0.500000X-1.400000X0.500000X1.400000X-0.500000X1.400000X0*%
%ADD14R,1.600000X1.600000*%
%ADD15C,1.600000*%
%ADD16RoundRect,0.250000X1.100000X-0.412500X1.100000X0.412500X-1.100000X0.412500X-1.100000X-0.412500X0*%
%ADD17C,1.524000*%
%ADD18RoundRect,0.250000X-0.450000X0.350000X-0.450000X-0.350000X0.450000X-0.350000X0.450000X0.350000X0*%
%ADD19R,2.000000X2.000000*%
%ADD20C,2.000000*%
%ADD21RoundRect,0.250000X0.450000X-0.325000X0.450000X0.325000X-0.450000X0.325000X-0.450000X-0.325000X0*%
%ADD22RoundRect,0.250000X0.350000X0.450000X-0.350000X0.450000X-0.350000X-0.450000X0.350000X-0.450000X0*%
%ADD23RoundRect,0.150000X0.875000X0.150000X-0.875000X0.150000X-0.875000X-0.150000X0.875000X-0.150000X0*%
%ADD24C,3.200000*%
%ADD25C,4.000000*%
%ADD26R,1.700000X1.700000*%
%ADD27O,1.700000X1.700000*%
%ADD28RoundRect,0.150000X-0.875000X-0.150000X0.875000X-0.150000X0.875000X0.150000X-0.875000X0.150000X0*%
%ADD29RoundRect,0.200000X-0.800000X0.200000X-0.800000X-0.200000X0.800000X-0.200000X0.800000X0.200000X0*%
%ADD30RoundRect,0.200000X0.200000X0.800000X-0.200000X0.800000X-0.200000X-0.800000X0.200000X-0.800000X0*%
%ADD31RoundRect,0.090000X-0.660000X-0.360000X0.660000X-0.360000X0.660000X0.360000X-0.660000X0.360000X0*%
%ADD32R,0.900000X2.000000*%
%ADD33R,2.000000X0.900000*%
%ADD34R,5.000000X5.000000*%
%ADD35RoundRect,0.250000X-0.450000X0.325000X-0.450000X-0.325000X0.450000X-0.325000X0.450000X0.325000X0*%
%ADD36C,2.700000*%
%ADD37C,3.000000*%
%ADD38RoundRect,0.250000X0.450000X-0.350000X0.450000X0.350000X-0.450000X0.350000X-0.450000X-0.350000X0*%
%ADD39RoundRect,0.250000X-1.250000X0.750000X-1.250000X-0.750000X1.250000X-0.750000X1.250000X0.750000X0*%
%ADD40RoundRect,0.250000X-0.412500X-1.100000X0.412500X-1.100000X0.412500X1.100000X-0.412500X1.100000X0*%
G04 APERTURE END LIST*
D10*
%TO.C,J17*%
X236220000Y-67310000D03*
X236220000Y-72390000D03*
D11*
X238760000Y-67310000D03*
X238760000Y-72390000D03*
X241300000Y-67310000D03*
X241300000Y-72390000D03*
%TD*%
D12*
%TO.C,U3*%
X261772000Y-53566700D03*
X261772000Y-55866700D03*
D13*
X268072000Y-55866700D03*
D12*
X261772000Y-58166700D03*
%TD*%
D10*
%TO.C,J14*%
X281940000Y-86360000D03*
X281940000Y-91440000D03*
D11*
X284480000Y-86360000D03*
X284480000Y-91440000D03*
X287020000Y-86360000D03*
X287020000Y-91440000D03*
%TD*%
D14*
%TO.C,C12*%
X285750000Y-50547651D03*
D15*
X285750000Y-47047651D03*
%TD*%
D16*
%TO.C,C3*%
X271399000Y-63144400D03*
X271399000Y-60019400D03*
%TD*%
D17*
%TO.C,J3*%
X132560000Y-88540000D03*
X132560000Y-94040000D03*
X137560000Y-88540000D03*
X137560000Y-94040000D03*
X142560000Y-88540000D03*
X142560000Y-94040000D03*
X147560000Y-88540000D03*
X147560000Y-94040000D03*
%TD*%
D18*
%TO.C,R8*%
X137160000Y-55880000D03*
X137160000Y-57880000D03*
%TD*%
%TO.C,R9*%
X127000000Y-55880000D03*
X127000000Y-57880000D03*
%TD*%
D16*
%TO.C,C8*%
X258165600Y-61468000D03*
X258165600Y-58343000D03*
%TD*%
D17*
%TO.C,J4*%
X153060000Y-88540000D03*
X153060000Y-94040000D03*
X158060000Y-88540000D03*
X158060000Y-94040000D03*
X163060000Y-88540000D03*
X163060000Y-94040000D03*
X168060000Y-88540000D03*
X168060000Y-94040000D03*
%TD*%
D18*
%TO.C,R18*%
X49530000Y-86360000D03*
X49530000Y-88360000D03*
%TD*%
D19*
%TO.C,K5*%
X187960000Y-73660000D03*
D20*
X187960000Y-71120000D03*
X187960000Y-63500000D03*
X182880000Y-63500000D03*
X182880000Y-71120000D03*
X182880000Y-73660000D03*
%TD*%
D21*
%TO.C,D16*%
X205740000Y-57955400D03*
X205740000Y-55905400D03*
%TD*%
D18*
%TO.C,R19*%
X49530000Y-90170000D03*
X49530000Y-92170000D03*
%TD*%
D10*
%TO.C,J10*%
X304800000Y-86360000D03*
X304800000Y-91440000D03*
D11*
X307340000Y-86360000D03*
X307340000Y-91440000D03*
X309880000Y-86360000D03*
X309880000Y-91440000D03*
%TD*%
D18*
%TO.C,R6*%
X157480000Y-55880000D03*
X157480000Y-57880000D03*
%TD*%
D19*
%TO.C,K12*%
X208280000Y-73660000D03*
D20*
X208280000Y-71120000D03*
X208280000Y-63500000D03*
X203200000Y-63500000D03*
X203200000Y-71120000D03*
X203200000Y-73660000D03*
%TD*%
D18*
%TO.C,R17*%
X271246600Y-53499000D03*
X271246600Y-55499000D03*
%TD*%
%TO.C,R7*%
X147320000Y-55880000D03*
X147320000Y-57880000D03*
%TD*%
D19*
%TO.C,K2*%
X137027500Y-73415000D03*
D20*
X137027500Y-70875000D03*
X137027500Y-63255000D03*
X131947500Y-63255000D03*
X131947500Y-70875000D03*
X131947500Y-73415000D03*
%TD*%
D22*
%TO.C,R23*%
X291560000Y-53340000D03*
X289560000Y-53340000D03*
%TD*%
D18*
%TO.C,R5*%
X167640000Y-55880000D03*
X167640000Y-57880000D03*
%TD*%
%TO.C,R21*%
X208407000Y-55930800D03*
X208407000Y-57930800D03*
%TD*%
D21*
%TO.C,D2*%
X165100000Y-57930000D03*
X165100000Y-55880000D03*
%TD*%
D17*
%TO.C,J21*%
X194106800Y-88556200D03*
X194106800Y-94056200D03*
X199106800Y-88556200D03*
X199106800Y-94056200D03*
X204106800Y-88556200D03*
X204106800Y-94056200D03*
X209106800Y-88556200D03*
X209106800Y-94056200D03*
%TD*%
D10*
%TO.C,J9*%
X236220000Y-86360000D03*
X236220000Y-91440000D03*
D11*
X238760000Y-86360000D03*
X238760000Y-91440000D03*
X241300000Y-86360000D03*
X241300000Y-91440000D03*
%TD*%
D23*
%TO.C,U10*%
X226060000Y-57150000D03*
X226060000Y-55880000D03*
X226060000Y-54610000D03*
X226060000Y-53340000D03*
X226060000Y-52070000D03*
X226060000Y-50800000D03*
X226060000Y-49530000D03*
X226060000Y-48260000D03*
X226060000Y-46990000D03*
X216760000Y-46990000D03*
X216760000Y-48260000D03*
X216760000Y-49530000D03*
X216760000Y-50800000D03*
X216760000Y-52070000D03*
X216760000Y-53340000D03*
X216760000Y-54610000D03*
X216760000Y-55880000D03*
X216760000Y-57150000D03*
%TD*%
%TO.C,U9*%
X190070000Y-48260000D03*
X190070000Y-46990000D03*
X190070000Y-45720000D03*
X190070000Y-44450000D03*
X190070000Y-43180000D03*
X190070000Y-41910000D03*
X190070000Y-40640000D03*
X190070000Y-39370000D03*
X190070000Y-38100000D03*
X180770000Y-38100000D03*
X180770000Y-39370000D03*
X180770000Y-40640000D03*
X180770000Y-41910000D03*
X180770000Y-43180000D03*
X180770000Y-44450000D03*
X180770000Y-45720000D03*
X180770000Y-46990000D03*
X180770000Y-48260000D03*
%TD*%
D10*
%TO.C,J20*%
X259080000Y-67310000D03*
X259080000Y-72390000D03*
D11*
X261620000Y-67310000D03*
X261620000Y-72390000D03*
X264160000Y-67310000D03*
X264160000Y-72390000D03*
%TD*%
D24*
%TO.C,H1*%
X162250000Y-81750000D03*
%TD*%
D10*
%TO.C,J19*%
X247650000Y-67310000D03*
X247650000Y-72390000D03*
D11*
X250190000Y-67310000D03*
X250190000Y-72390000D03*
X252730000Y-67310000D03*
X252730000Y-72390000D03*
%TD*%
D25*
%TO.C,U2*%
X69884000Y-96075000D03*
X74964000Y-96075000D03*
X66859000Y-37667100D03*
X71939000Y-37667100D03*
%TD*%
D14*
%TO.C,C11*%
X220670000Y-80645000D03*
D15*
X217170000Y-80645000D03*
%TD*%
D21*
%TO.C,D4*%
X144780000Y-57930000D03*
X144780000Y-55880000D03*
%TD*%
D18*
%TO.C,R12*%
X96520000Y-55880000D03*
X96520000Y-57880000D03*
%TD*%
D17*
%TO.C,J1*%
X91560000Y-88540000D03*
X91560000Y-94040000D03*
X96560000Y-88540000D03*
X96560000Y-94040000D03*
X101560000Y-88540000D03*
X101560000Y-94040000D03*
X106560000Y-88540000D03*
X106560000Y-94040000D03*
%TD*%
D14*
%TO.C,C10*%
X99695000Y-50490000D03*
D15*
X99695000Y-46990000D03*
%TD*%
D21*
%TO.C,D6*%
X124460000Y-57930000D03*
X124460000Y-55880000D03*
%TD*%
D24*
%TO.C,H2*%
X330500000Y-70000000D03*
%TD*%
D21*
%TO.C,D9*%
X93980000Y-57930000D03*
X93980000Y-55880000D03*
%TD*%
D18*
%TO.C,R14*%
X187960000Y-56002500D03*
X187960000Y-58002500D03*
%TD*%
D10*
%TO.C,J7*%
X224790000Y-86360000D03*
X224790000Y-91440000D03*
D11*
X227330000Y-86360000D03*
X227330000Y-91440000D03*
X229870000Y-86360000D03*
X229870000Y-91440000D03*
%TD*%
D17*
%TO.C,J2*%
X112060000Y-88540000D03*
X112060000Y-94040000D03*
X117060000Y-88540000D03*
X117060000Y-94040000D03*
X122060000Y-88540000D03*
X122060000Y-94040000D03*
X127060000Y-88540000D03*
X127060000Y-94040000D03*
%TD*%
D21*
%TO.C,D8*%
X104140000Y-57930000D03*
X104140000Y-55880000D03*
%TD*%
D26*
%TO.C,J22*%
X309880000Y-66040000D03*
D27*
X307340000Y-66040000D03*
X304800000Y-66040000D03*
X302260000Y-66040000D03*
%TD*%
D28*
%TO.C,U8*%
X248920000Y-38100000D03*
X248920000Y-39370000D03*
X248920000Y-40640000D03*
X248920000Y-41910000D03*
X248920000Y-43180000D03*
X248920000Y-44450000D03*
X248920000Y-45720000D03*
X248920000Y-46990000D03*
X248920000Y-48260000D03*
X248920000Y-49530000D03*
X248920000Y-50800000D03*
X248920000Y-52070000D03*
X248920000Y-53340000D03*
X248920000Y-54610000D03*
X258220000Y-54610000D03*
X258220000Y-53340000D03*
X258220000Y-52070000D03*
X258220000Y-50800000D03*
X258220000Y-49530000D03*
X258220000Y-48260000D03*
X258220000Y-46990000D03*
X258220000Y-45720000D03*
X258220000Y-44450000D03*
X258220000Y-43180000D03*
X258220000Y-41910000D03*
X258220000Y-40640000D03*
X258220000Y-39370000D03*
X258220000Y-38100000D03*
%TD*%
D10*
%TO.C,J8*%
X247650000Y-86360000D03*
X247650000Y-91440000D03*
D11*
X250190000Y-86360000D03*
X250190000Y-91440000D03*
X252730000Y-86360000D03*
X252730000Y-91440000D03*
%TD*%
D18*
%TO.C,R13*%
X177200000Y-56125000D03*
X177200000Y-58125000D03*
%TD*%
D19*
%TO.C,K9*%
X106547500Y-73537500D03*
D20*
X106547500Y-70997500D03*
X106547500Y-63377500D03*
X101467500Y-63377500D03*
X101467500Y-70997500D03*
X101467500Y-73537500D03*
%TD*%
D19*
%TO.C,K6*%
X167640000Y-73537500D03*
D20*
X167640000Y-70997500D03*
X167640000Y-63377500D03*
X162560000Y-63377500D03*
X162560000Y-70997500D03*
X162560000Y-73537500D03*
%TD*%
D29*
%TO.C,SW4*%
X290195000Y-55050000D03*
X290195000Y-59250000D03*
%TD*%
D30*
%TO.C,SW2*%
X311540000Y-38100000D03*
X307340000Y-38100000D03*
%TD*%
D18*
%TO.C,R11*%
X106680000Y-55880000D03*
X106680000Y-57880000D03*
%TD*%
D10*
%TO.C,J16*%
X327660000Y-86360000D03*
X327660000Y-91440000D03*
D11*
X330200000Y-86360000D03*
X330200000Y-91440000D03*
X332740000Y-86360000D03*
X332740000Y-91440000D03*
%TD*%
D21*
%TO.C,D15*%
X195580000Y-57930000D03*
X195580000Y-55880000D03*
%TD*%
D10*
%TO.C,J15*%
X293370000Y-86360000D03*
X293370000Y-91440000D03*
D11*
X295910000Y-86360000D03*
X295910000Y-91440000D03*
X298450000Y-86360000D03*
X298450000Y-91440000D03*
%TD*%
D21*
%TO.C,D10*%
X174660000Y-58175000D03*
X174660000Y-56125000D03*
%TD*%
D19*
%TO.C,K10*%
X177800000Y-73660000D03*
D20*
X177800000Y-71120000D03*
X177800000Y-63500000D03*
X172720000Y-63500000D03*
X172720000Y-71120000D03*
X172720000Y-73660000D03*
%TD*%
D24*
%TO.C,H3*%
X47000000Y-71000000D03*
%TD*%
D19*
%TO.C,K11*%
X198120000Y-73660000D03*
D20*
X198120000Y-71120000D03*
X198120000Y-63500000D03*
X193040000Y-63500000D03*
X193040000Y-71120000D03*
X193040000Y-73660000D03*
%TD*%
D10*
%TO.C,J12*%
X270510000Y-86360000D03*
X270510000Y-91440000D03*
D11*
X273050000Y-86360000D03*
X273050000Y-91440000D03*
X275590000Y-86360000D03*
X275590000Y-91440000D03*
%TD*%
D31*
%TO.C,D1*%
X279490000Y-38355000D03*
X279490000Y-41655000D03*
X284390000Y-41655000D03*
X284390000Y-38355000D03*
%TD*%
D32*
%TO.C,U1*%
X311250000Y-41500000D03*
X309980000Y-41500000D03*
X308710000Y-41500000D03*
X307440000Y-41500000D03*
X306170000Y-41500000D03*
X304900000Y-41500000D03*
X303630000Y-41500000D03*
X302360000Y-41500000D03*
X301090000Y-41500000D03*
X299820000Y-41500000D03*
X298550000Y-41500000D03*
X297280000Y-41500000D03*
X296010000Y-41500000D03*
X294740000Y-41500000D03*
D33*
X293740000Y-44285000D03*
X293740000Y-45555000D03*
X293740000Y-54445000D03*
X293740000Y-55715000D03*
D32*
X294740000Y-58500000D03*
X296010000Y-58500000D03*
X297280000Y-58500000D03*
X298550000Y-58500000D03*
X299820000Y-58500000D03*
X301090000Y-58500000D03*
X302360000Y-58500000D03*
X303630000Y-58500000D03*
X304900000Y-58500000D03*
X306170000Y-58500000D03*
X307440000Y-58500000D03*
X308710000Y-58500000D03*
X309980000Y-58500000D03*
X311250000Y-58500000D03*
D34*
X303750000Y-49000000D03*
%TD*%
D21*
%TO.C,D7*%
X114300000Y-57930000D03*
X114300000Y-55880000D03*
%TD*%
%TO.C,D5*%
X134620000Y-57930000D03*
X134620000Y-55880000D03*
%TD*%
D10*
%TO.C,J13*%
X316230000Y-86360000D03*
X316230000Y-91440000D03*
D11*
X318770000Y-86360000D03*
X318770000Y-91440000D03*
X321310000Y-86360000D03*
X321310000Y-91440000D03*
%TD*%
D17*
%TO.C,J6*%
X26500000Y-90000000D03*
X26500000Y-95500000D03*
X31500000Y-90000000D03*
X31500000Y-95500000D03*
%TD*%
D10*
%TO.C,J18*%
X224790000Y-67310000D03*
X224790000Y-72390000D03*
D11*
X227330000Y-67310000D03*
X227330000Y-72390000D03*
X229870000Y-67310000D03*
X229870000Y-72390000D03*
%TD*%
D26*
%TO.C,J23*%
X291541200Y-38252400D03*
D27*
X294081200Y-38252400D03*
X296621200Y-38252400D03*
X299161200Y-38252400D03*
%TD*%
D18*
%TO.C,R10*%
X116840000Y-55880000D03*
X116840000Y-57880000D03*
%TD*%
D14*
%TO.C,C9*%
X214630000Y-60635000D03*
D15*
X214630000Y-64135000D03*
%TD*%
D19*
%TO.C,K1*%
X157480000Y-73537500D03*
D20*
X157480000Y-70997500D03*
X157480000Y-63377500D03*
X152400000Y-63377500D03*
X152400000Y-70997500D03*
X152400000Y-73537500D03*
%TD*%
D19*
%TO.C,K3*%
X116707500Y-73415000D03*
D20*
X116707500Y-70875000D03*
X116707500Y-63255000D03*
X111627500Y-63255000D03*
X111627500Y-70875000D03*
X111627500Y-73415000D03*
%TD*%
D10*
%TO.C,J11*%
X259080000Y-86360000D03*
X259080000Y-91440000D03*
D11*
X261620000Y-86360000D03*
X261620000Y-91440000D03*
X264160000Y-86360000D03*
X264160000Y-91440000D03*
%TD*%
D21*
%TO.C,D3*%
X154940000Y-57930000D03*
X154940000Y-55880000D03*
%TD*%
D19*
%TO.C,K8*%
X127000000Y-73537500D03*
D20*
X127000000Y-70997500D03*
X127000000Y-63377500D03*
X121920000Y-63377500D03*
X121920000Y-70997500D03*
X121920000Y-73537500D03*
%TD*%
D17*
%TO.C,J5*%
X173560000Y-88540000D03*
X173560000Y-94040000D03*
X178560000Y-88540000D03*
X178560000Y-94040000D03*
X183560000Y-88540000D03*
X183560000Y-94040000D03*
X188560000Y-88540000D03*
X188560000Y-94040000D03*
%TD*%
D31*
%TO.C,D17*%
X272059400Y-38355000D03*
X272059400Y-41655000D03*
X276959400Y-41655000D03*
X276959400Y-38355000D03*
%TD*%
%TO.C,D18*%
X264594000Y-38356000D03*
X264594000Y-41656000D03*
X269494000Y-41656000D03*
X269494000Y-38356000D03*
%TD*%
D29*
%TO.C,SW3*%
X294640000Y-63305000D03*
X294640000Y-67505000D03*
%TD*%
D35*
%TO.C,D14*%
X49530000Y-82500000D03*
X49530000Y-84550000D03*
%TD*%
D21*
%TO.C,D13*%
X273507200Y-55482600D03*
X273507200Y-53432600D03*
%TD*%
%TO.C,D11*%
X185420000Y-58052500D03*
X185420000Y-56002500D03*
%TD*%
D18*
%TO.C,R20*%
X198120000Y-55930800D03*
X198120000Y-57930800D03*
%TD*%
D36*
%TO.C,F1*%
X29000000Y-74750000D03*
D37*
X29000000Y-63500000D03*
X29000000Y-86000000D03*
%TD*%
D19*
%TO.C,K4*%
X96520000Y-73537500D03*
D20*
X96520000Y-70997500D03*
X96520000Y-63377500D03*
X91440000Y-63377500D03*
X91440000Y-70997500D03*
X91440000Y-73537500D03*
%TD*%
D21*
%TO.C,D12*%
X89535000Y-44355000D03*
X89535000Y-42305000D03*
%TD*%
D38*
%TO.C,R16*%
X89535000Y-40005000D03*
X89535000Y-38005000D03*
%TD*%
D39*
%TO.C,SW1*%
X32000000Y-48750000D03*
X32000000Y-52750000D03*
X32000000Y-56750000D03*
X27000000Y-48750000D03*
X27000000Y-52750000D03*
X27000000Y-56750000D03*
%TD*%
D19*
%TO.C,K7*%
X147187500Y-73415000D03*
D20*
X147187500Y-70875000D03*
X147187500Y-63255000D03*
X142107500Y-63255000D03*
X142107500Y-70875000D03*
X142107500Y-73415000D03*
%TD*%
D40*
%TO.C,C4*%
X302260000Y-38100000D03*
X305385000Y-38100000D03*
%TD*%
M02*
